<svg xmlns="http://www.w3.org/2000/svg" width="536" height="284.531" viewBox="0 0 536 284.531">
  <defs>
    <style>
      .cls-1 {
        fill: #ffc42c;
      }

      .cls-13, .cls-2, .cls-6, .cls-9 {
        fill: #f40000;
      }

      .cls-3 {
        fill: #fff;
      }

      .cls-4 {
        fill: #e8e8e8;
      }

      .cls-11, .cls-5, .cls-7, .cls-8 {
        fill: #333d47;
      }

      .cls-6 {
        font-size: 16px;
        font-family: Gotham-Bold, Gotham;
        font-weight: 700;
      }

      .cls-11, .cls-7 {
        font-family: Gotham-Book, Gotham;
      }

      .cls-7 {
        font-weight: 400;
      }

      .cls-11, .cls-8, .cls-9 {
        font-size: 22px;
      }

      .cls-12, .cls-13, .cls-8, .cls-9 {
        font-family: Gotham-Black, Gotham;
        font-weight: 800;
      }

      .cls-10 {
        fill: #e5e6e8;
      }
    </style>
  </defs>
  <g id="ejemplo_meta_de_compra" transform="translate(-692 -2128.965)">
    <g id="cuadro_meta_compra" data-name="cuadro meta compra" transform="translate(660.445 2105.214)">
      <path id="Trazado_7728" data-name="Trazado 7728" class="cls-1" d="M18.191,166.376a1.654,1.654,0,0,1-1.167-2.822l8.747-8.747-8.747-8.747a1.652,1.652,0,0,1,0-2.337l8.747-8.747-8.747-8.747a1.652,1.652,0,0,1,0-2.337l8.747-8.747L17.025,106.4a1.65,1.65,0,0,1,0-2.335l8.747-8.747-8.747-8.749a1.65,1.65,0,0,1,0-2.335l9.914-9.916a1.652,1.652,0,0,1,2.337,2.335L20.529,85.4l8.747,8.747a1.65,1.65,0,0,1,0,2.335l-8.747,8.747,8.747,8.749a1.65,1.65,0,0,1,0,2.335l-8.747,8.747,8.747,8.747a1.652,1.652,0,0,1,0,2.337l-8.747,8.747,8.747,8.747a1.652,1.652,0,0,1,0,2.337l-9.916,9.916A1.648,1.648,0,0,1,18.191,166.376Z" transform="translate(45.434 44.776)"/>
      <rect id="Rectángulo_2361" data-name="Rectángulo 2361" class="cls-2" width="432.951" height="216.679" transform="translate(96.402 66.914)"/>
      <rect id="Rectángulo_2362" data-name="Rectángulo 2362" class="cls-3" width="399.282" height="186.49" transform="translate(114.587 82.009)"/>
      <g id="Grupo_8067" data-name="Grupo 8067" transform="translate(529.353 48.016)">
        <path id="Trazado_7729" data-name="Trazado 7729" class="cls-4" d="M279.806,53.23a8.334,8.334,0,1,1,8.332-8.336A8.344,8.344,0,0,1,279.806,53.23Zm0-13.1a4.768,4.768,0,1,0,4.767,4.767A4.775,4.775,0,0,0,279.806,40.127Z" transform="translate(-255.986 -36.562)"/>
        <path id="Trazado_7730" data-name="Trazado 7730" class="cls-4" d="M276.713,81.73a1.782,1.782,0,0,1-1.782-1.782V45.261a1.782,1.782,0,0,1,3.565,0V79.948A1.782,1.782,0,0,1,276.713,81.73Z" transform="translate(-252.893 -30.378)"/>
        <path id="Trazado_7731" data-name="Trazado 7731" class="cls-4" d="M276.713,84.513a1.782,1.782,0,0,1-1.782-1.782V70.417a1.782,1.782,0,0,1,3.565,0V82.731A1.782,1.782,0,0,1,276.713,84.513Z" transform="translate(-252.893 -7.886)"/>
        <path id="Trazado_7732" data-name="Trazado 7732" class="cls-4" d="M280.564,43.587H265.078a1.783,1.783,0,0,1,0-3.567h15.486a1.783,1.783,0,0,1,0,3.567Z" transform="translate(-263.296 -33.47)"/>
      </g>
      <path id="Trazado_7733" data-name="Trazado 7733" class="cls-4" d="M258,176.42a12.836,12.836,0,0,1-9.141-3.786,9.386,9.386,0,0,0-13.247,0,12.955,12.955,0,0,1-18.291,0,1.783,1.783,0,1,1,2.521-2.521,9.383,9.383,0,0,0,13.249,0,12.954,12.954,0,0,1,18.288,0,9.363,9.363,0,0,0,13.242,0,12.945,12.945,0,0,1,18.286,0,1.782,1.782,0,1,1-2.519,2.521,9.378,9.378,0,0,0-13.245,0A12.84,12.84,0,0,1,258,176.42Z" transform="translate(224.485 127.481)"/>
      <path id="Trazado_7734" data-name="Trazado 7734" class="cls-4" d="M143.2,44.006H67.624a1.782,1.782,0,0,1,0-3.565H143.2a1.782,1.782,0,1,1,0,3.565Z" transform="translate(89.514 14.922)"/>
      <path id="Trazado_7735" data-name="Trazado 7735" class="cls-2" d="M16.4,90.37a1.782,1.782,0,0,1-1.782-1.782A12.371,12.371,0,0,0,2.262,76.23a1.782,1.782,0,0,1,0-3.565A12.37,12.37,0,0,0,14.619,60.31a1.783,1.783,0,0,1,3.567,0A12.369,12.369,0,0,0,30.539,72.666a1.782,1.782,0,1,1,0,3.565A12.37,12.37,0,0,0,18.186,88.587,1.783,1.783,0,0,1,16.4,90.37ZM9.579,74.448A16.021,16.021,0,0,1,16.4,81.272a16.021,16.021,0,0,1,6.823-6.824A16.027,16.027,0,0,1,16.4,67.625,16.027,16.027,0,0,1,9.579,74.448Z" transform="translate(31.075 31.094)"/>
      <g id="Grupo_8068" data-name="Grupo 8068" transform="translate(538.615 279.344)">
        <path id="Trazado_7736" data-name="Trazado 7736" class="cls-2" d="M276.825,169.162a2.119,2.119,0,0,1-2.118-2.118v-6.235a2.118,2.118,0,0,1,4.235,0v6.235A2.117,2.117,0,0,1,276.825,169.162Z" transform="translate(-262.356 -158.693)"/>
        <path id="Trazado_7737" data-name="Trazado 7737" class="cls-2" d="M276.537,169.449H270.3a2.118,2.118,0,1,1,0-4.235h6.233a2.118,2.118,0,1,1,0,4.235Z" transform="translate(-268.186 -152.863)"/>
        <path id="Trazado_7738" data-name="Trazado 7738" class="cls-2" d="M276.825,178.913a2.119,2.119,0,0,1-2.118-2.118v-6.233a2.118,2.118,0,1,1,4.235,0V176.8A2.117,2.117,0,0,1,276.825,178.913Z" transform="translate(-262.356 -149.975)"/>
        <path id="Trazado_7739" data-name="Trazado 7739" class="cls-2" d="M286.289,169.449h-6.235a2.118,2.118,0,0,1,0-4.235h6.235a2.118,2.118,0,1,1,0,4.235Z" transform="translate(-259.467 -152.863)"/>
      </g>
      <g id="Grupo_8071" data-name="Grupo 8071" transform="translate(35.047 23.751)">
        <g id="Grupo_8069" data-name="Grupo 8069" transform="translate(48.813 39.53)">
          <path id="Trazado_7740" data-name="Trazado 7740" class="cls-3" d="M28.095,65.376A20.755,20.755,0,1,1,48.852,86.134,20.755,20.755,0,0,1,28.095,65.376Z" transform="translate(-28.095 -44.621)"/>
          <path id="Trazado_7741" data-name="Trazado 7741" class="cls-2" d="M35.638,61.4h6.313v6.311a1.462,1.462,0,1,0,2.924,0V61.4h6.311a1.462,1.462,0,0,0,0-2.924H44.876V52.165a1.462,1.462,0,0,0-2.924,0v6.313H35.638a1.462,1.462,0,1,0,0,2.924Z" transform="translate(-22.658 -39.183)"/>
        </g>
        <path id="Trazado_7742" data-name="Trazado 7742" class="cls-3" d="M13.1,24.386V47.628h8.7s-.415,7.974,4.675,11.037,5.972,6.362,5.972,6.362V85.395a6.677,6.677,0,0,0,6.233-1.9c3.116-2.885,3.506-6.91,3.506-13.793s-.909-13.893,3.765-17.009S60.237,58.275,68.807,63.6s13.143,9.908,17.4,9.349,4.156-2.337,4.156-2.337S62.574,39.707,55.3,35.292,41.669,23.867,13.1,24.386Z" transform="translate(7.313 -23.208)"/>
        <g id="Grupo_8070" data-name="Grupo 8070" transform="translate(0)">
          <path id="Trazado_7743" data-name="Trazado 7743" class="cls-5" d="M101.234,70.368l-30.5-30.5c-4.847-4.847-18.144-16.119-36.9-16.119H3.443a1.12,1.12,0,0,0,0,2.241H21.886V47.113H3.443a1.12,1.12,0,0,0,0,2.241H30.01c.492,6.495,5.182,10.607,8.343,13.376,1.082.949,2.561,2.245,2.608,2.72V86.411a1.12,1.12,0,0,0,1.119,1.121c3.472,0,10.643-2.436,10.643-9.959,0-.11.015-15.247.015-15.249,0-3.051,1.1-6.97,3.521-8.361,1.5-.864,3.4-.644,5.627.653C70.464,59.6,81.2,66.556,87.615,70.707c1.282.83,2.407,1.559,3.33,2.152,3.682,2.366,7.336,2.046,10.289-.905a1.123,1.123,0,0,0,0-1.585Zm-9.076.606c-.922-.593-2.046-1.32-3.326-2.148C82.4,64.663,71.636,57.7,63.015,52.679c-3.7-2.155-6.324-1.547-7.872-.657-3.207,1.845-4.644,6.5-4.644,10.3,0,0-.015,15.141-.015,15.251,0,5.423-4.747,7.194-7.281,7.61V65.449c0-1.449-1.415-2.69-3.371-4.4-3.218-2.82-7.622-6.68-7.622-12.814a1.12,1.12,0,0,0-1.121-1.119H24.127V25.992h9.709c17.916,0,30.663,10.813,35.312,15.461L98.8,71.105C96.817,72.577,94.587,72.535,92.157,70.975Z" transform="translate(-2.324 -23.751)"/>
          <path id="Trazado_7744" data-name="Trazado 7744" class="cls-5" d="M12.369,34.662A1.141,1.141,0,1,0,11.227,35.8,1.14,1.14,0,0,0,12.369,34.662Z" transform="translate(4.617 -15.017)"/>
        </g>
      </g>
    </g>
    <text id="Ejemplo:_Si_tu_meta_es_de_3_000_MXN_Y_compraste_3_800_MXN_en_productos_de_la_familia_tendrás_1_900_MXN" data-name="Ejemplo: Si tu meta es de $3,000 MXN
Y compraste $3,800 MXN en productos
de la familia, tendrás 1,900 MXN" class="cls-6" transform="translate(790 2215)"><tspan x="10.031" y="18">Ejemplo: </tspan><tspan class="cls-7" y="18">Si tu meta es de </tspan><tspan class="cls-8" y="18">$3,000 MXN</tspan><tspan class="cls-7"><tspan x="7.879" y="43">Y compraste </tspan><tspan class="cls-9" y="43">$3,800 MXN</tspan><tspan y="43" xml:space="preserve"> en productos</tspan><tspan x="45.857" y="68">de la familia, tendrás </tspan><tspan class="cls-9" y="68">1,900 MXN</tspan></tspan></text>
    <rect id="Rectángulo_2600" data-name="Rectángulo 2600" class="cls-10" width="370" height="51" transform="translate(790 2302)"/>
    <text id="_3_800_X_.5_1_900MXN" data-name="$3,800 X .5 = 1,900MXN" class="cls-11" transform="translate(790 2316)"><tspan x="56.564" y="18">$3,800</tspan><tspan class="cls-12" y="18" xml:space="preserve"> X .5 = </tspan><tspan class="cls-13" y="18">1,900MXN</tspan></text>
  </g>
</svg>
