<svg xmlns="http://www.w3.org/2000/svg" width="59.365" height="69.945" viewBox="0 0 59.365 69.945">
  <defs>
    <style>
      .cls-1 {
        fill: #e8e8e8;
      }

      .cls-2 {
        fill: #f40000;
      }
    </style>
  </defs>
  <g id="flecha_producto_sugerido" transform="translate(823.203 119.141) rotate(180)">
    <g id="Grupo_8008" data-name="Grupo 8008" transform="translate(763.838 78.042)">
      <rect id="Rectángulo_2272" data-name="Rectángulo 2272" class="cls-1" width="4.566" height="4.566" transform="translate(0 18.266)"/>
      <rect id="Rectángulo_2273" data-name="Rectángulo 2273" class="cls-1" width="4.566" height="4.566" transform="translate(0 27.399)"/>
      <rect id="Rectángulo_2274" data-name="Rectángulo 2274" class="cls-1" width="4.566" height="4.566" transform="translate(0 9.133)"/>
      <rect id="Rectángulo_2275" data-name="Rectángulo 2275" class="cls-1" width="4.567" height="4.566" transform="translate(9.133 9.133)"/>
      <rect id="Rectángulo_2276" data-name="Rectángulo 2276" class="cls-1" width="4.567" height="4.566" transform="translate(18.266 9.133)"/>
      <rect id="Rectángulo_2277" data-name="Rectángulo 2277" class="cls-1" width="4.566" height="4.566" transform="translate(27.399 9.133)"/>
      <rect id="Rectángulo_2278" data-name="Rectángulo 2278" class="cls-1" width="4.566" height="4.566" transform="translate(27.399 18.266)"/>
      <rect id="Rectángulo_2279" data-name="Rectángulo 2279" class="cls-1" width="4.566" height="4.566" transform="translate(36.532 18.266)"/>
      <rect id="Rectángulo_2280" data-name="Rectángulo 2280" class="cls-1" width="4.566" height="4.566" transform="translate(36.532 27.399)"/>
      <rect id="Rectángulo_2281" data-name="Rectángulo 2281" class="cls-1" width="4.566" height="4.567" transform="translate(36.532 36.532)"/>
      <rect id="Rectángulo_2282" data-name="Rectángulo 2282" class="cls-1" width="4.566" height="4.566" transform="translate(36.532 9.133)"/>
      <rect id="Rectángulo_2283" data-name="Rectángulo 2283" class="cls-1" width="4.566" height="4.567" transform="translate(36.532)"/>
      <rect id="Rectángulo_2284" data-name="Rectángulo 2284" class="cls-1" width="4.566" height="4.566" transform="translate(45.665 18.266)"/>
      <rect id="Rectángulo_2285" data-name="Rectángulo 2285" class="cls-1" width="4.566" height="4.566" transform="translate(45.665 27.399)"/>
      <rect id="Rectángulo_2286" data-name="Rectángulo 2286" class="cls-1" width="4.566" height="4.566" transform="translate(45.665 9.133)"/>
      <rect id="Rectángulo_2287" data-name="Rectángulo 2287" class="cls-1" width="4.567" height="4.566" transform="translate(54.798 18.266)"/>
      <rect id="Rectángulo_2288" data-name="Rectángulo 2288" class="cls-1" width="4.567" height="4.566" transform="translate(18.266 18.266)"/>
      <rect id="Rectángulo_2289" data-name="Rectángulo 2289" class="cls-1" width="4.567" height="4.566" transform="translate(18.266 27.399)"/>
      <rect id="Rectángulo_2290" data-name="Rectángulo 2290" class="cls-1" width="4.566" height="4.566" transform="translate(27.399 27.399)"/>
      <rect id="Rectángulo_2291" data-name="Rectángulo 2291" class="cls-1" width="4.567" height="4.566" transform="translate(9.133 27.399)"/>
      <rect id="Rectángulo_2292" data-name="Rectángulo 2292" class="cls-1" width="4.567" height="4.566" transform="translate(9.133 18.266)"/>
    </g>
    <g id="Grupo_8009" data-name="Grupo 8009" transform="translate(809.422 49.196)">
      <path id="Trazado_7504" data-name="Trazado 7504" class="cls-2" d="M795.631,72.482h0a1.864,1.864,0,0,1,0-2.636l7.415-7.417a1.864,1.864,0,0,0,0-2.636l-7.415-7.415a1.864,1.864,0,0,1,0-2.636h0a1.864,1.864,0,0,1,2.636,0l10.052,10.051a1.864,1.864,0,0,1,0,2.636L798.267,72.482A1.864,1.864,0,0,1,795.631,72.482Z" transform="translate(-795.085 -49.196)"/>
    </g>
    <g id="Grupo_8010" data-name="Grupo 8010" transform="translate(798.274 49.196)">
      <path id="Trazado_7505" data-name="Trazado 7505" class="cls-2" d="M787.989,72.482h0a1.864,1.864,0,0,1,0-2.636l7.417-7.417a1.864,1.864,0,0,0,0-2.636l-7.417-7.415a1.864,1.864,0,0,1,0-2.636h0a1.864,1.864,0,0,1,2.636,0l10.053,10.051a1.864,1.864,0,0,1,0,2.636L790.625,72.482A1.864,1.864,0,0,1,787.989,72.482Z" transform="translate(-787.443 -49.196)"/>
    </g>
    <g id="Grupo_8011" data-name="Grupo 8011" transform="translate(786.628 49.196)">
      <path id="Trazado_7506" data-name="Trazado 7506" class="cls-2" d="M780.006,72.482h0a1.864,1.864,0,0,1,0-2.636l7.417-7.417a1.864,1.864,0,0,0,0-2.636l-7.415-7.415a1.863,1.863,0,0,1,0-2.636h0a1.866,1.866,0,0,1,2.638,0l10.051,10.051a1.864,1.864,0,0,1,0,2.636L782.643,72.482A1.866,1.866,0,0,1,780.006,72.482Z" transform="translate(-779.46 -49.196)"/>
    </g>
  </g>
</svg>
