<svg xmlns="http://www.w3.org/2000/svg" width="113.184" height="99.107" viewBox="0 0 113.184 99.107">
  <defs>
    <style>
      .cls-1 {
        fill: #f6f6f6;
      }

      .cls-2 {
        fill: #f40000;
      }

      .cls-3 {
        fill: #161615;
      }

      .cls-4 {
        fill: #ffc42c;
      }
    </style>
  </defs>
  <g id="ic-mecanica_1" transform="translate(-0.214 -5.288)">
    <path id="Trazado_7553" data-name="Trazado 7553" class="cls-1" d="M35.247,28.3,22.187,41.361V95.911H74.873v-68Z" transform="translate(7.272 7.488)"/>
    <path id="Trazado_7554" data-name="Trazado 7554" class="cls-2" d="M34.391,23.119V29.5H70.806V92.093h6.379V23.119Z" transform="translate(11.311 5.901)"/>
    <g id="Grupo_8037" data-name="Grupo 8037" transform="translate(29.021 34.403)">
      <path id="Trazado_7555" data-name="Trazado 7555" class="cls-3" d="M74.953,27.163h-39.5a1.014,1.014,0,0,0-.705.293l-12.6,12.6a1.014,1.014,0,0,0-.293.705h0v55.4a1,1,0,0,0,1,1h52.1a1,1,0,0,0,1-1v-68A1,1,0,0,0,74.953,27.163Zm-40.5,3.4v9.194h-9.2Zm39.5,64.594h-50.1V41.756h11.6a1,1,0,0,0,1-1v-11.6H73.956Z" transform="translate(-21.858 -27.163)"/>
      <path id="Trazado_7556" data-name="Trazado 7556" class="cls-3" d="M27.785,50.6a1,1,0,0,0,1,1H66.513a1,1,0,0,0,0-2H28.782A1,1,0,0,0,27.785,50.6Z" transform="translate(-19.896 -19.738)"/>
      <path id="Trazado_7557" data-name="Trazado 7557" class="cls-3" d="M66.513,53.4H28.782a1,1,0,1,0,0,1.994H66.513a1,1,0,1,0,0-1.994Z" transform="translate(-19.896 -18.48)"/>
      <path id="Trazado_7558" data-name="Trazado 7558" class="cls-3" d="M66.513,57.2H28.782a1,1,0,1,0,0,1.994H66.513a1,1,0,1,0,0-1.994Z" transform="translate(-19.896 -17.221)"/>
      <path id="Trazado_7559" data-name="Trazado 7559" class="cls-3" d="M54.79,61.006H28.782a1,1,0,1,0,0,1.994H54.79a1,1,0,0,0,0-1.994Z" transform="translate(-19.896 -15.962)"/>
      <path id="Trazado_7560" data-name="Trazado 7560" class="cls-3" d="M43.213,44.758a1.271,1.271,0,1,0-1.271-1.271A1.272,1.272,0,0,0,43.213,44.758Z" transform="translate(-15.211 -22.181)"/>
      <path id="Trazado_7561" data-name="Trazado 7561" class="cls-3" d="M52.533,44.758a1.271,1.271,0,1,0-1.272-1.271A1.271,1.271,0,0,0,52.533,44.758Z" transform="translate(-12.127 -22.181)"/>
      <path id="Trazado_7562" data-name="Trazado 7562" class="cls-3" d="M32.622,43.487a1.272,1.272,0,1,0,1.271-1.271A1.271,1.271,0,0,0,32.622,43.487Z" transform="translate(-18.296 -22.181)"/>
    </g>
    <path id="Trazado_7563" data-name="Trazado 7563" class="cls-2" d="M80.3,10.933a7.184,7.184,0,0,1-5.112-2.116,5.249,5.249,0,0,0-7.411,0,7.247,7.247,0,0,1-10.23,0,1,1,0,0,1,1.409-1.411,5.249,5.249,0,0,0,7.411,0,7.244,7.244,0,0,1,10.23,0,5.238,5.238,0,0,0,7.405,0,7.235,7.235,0,0,1,10.228,0,1,1,0,0,1-1.411,1.411,5.238,5.238,0,0,0-7.408,0A7.182,7.182,0,0,1,80.3,10.933Z" transform="translate(18.877)"/>
    <path id="Trazado_7564" data-name="Trazado 7564" class="cls-4" d="M9.119,45.5a1,1,0,0,1-1-1,6.92,6.92,0,0,0-6.912-6.912,1,1,0,0,1,0-1.994,6.919,6.919,0,0,0,6.912-6.91,1,1,0,1,1,1.994,0,6.918,6.918,0,0,0,6.91,6.91,1,1,0,0,1,0,1.994,6.919,6.919,0,0,0-6.91,6.912A1,1,0,0,1,9.119,45.5ZM5.3,36.591a8.974,8.974,0,0,1,3.817,3.816,8.971,8.971,0,0,1,3.816-3.816,8.964,8.964,0,0,1-3.816-3.816A8.967,8.967,0,0,1,5.3,36.591Z" transform="translate(0 7.413)"/>
  </g>
</svg>
