<svg xmlns="http://www.w3.org/2000/svg" width="113.602" height="99.039" viewBox="0 0 113.602 99.039">
  <g id="ic_actividades_especiales" transform="translate(0 -7.427)">
    <path id="Trazado_7770" data-name="Trazado 7770" d="M59.237,65.04a.885.885,0,0,1-.627-1.51l4.684-4.684L58.61,54.162a.886.886,0,0,1,0-1.252l4.684-4.684L58.61,43.543a.886.886,0,0,1,0-1.252l4.684-4.684L58.61,32.924a.886.886,0,0,1,0-1.252l5.31-5.31a.885.885,0,1,1,1.252,1.252L60.487,32.3l4.684,4.684a.886.886,0,0,1,0,1.252l-4.684,4.683L65.172,47.6a.886.886,0,0,1,0,1.252l-4.684,4.683,4.684,4.684a.886.886,0,0,1,0,1.252l-5.31,5.308A.875.875,0,0,1,59.237,65.04Z" transform="translate(45.582 14.589)" fill="#f40000"/>
    <path id="Trazado_7771" data-name="Trazado 7771" d="M40.75,60.235c0-.486-.025-.965-.064-1.443l4.558-1.256-.442-2.5-4.708.376a17.763,17.763,0,0,0-.987-2.711l3.849-2.738-1.272-2.2-4.3,1.966a18.2,18.2,0,0,0-1.854-2.209l2.682-3.892L36.27,41.993,32.9,45.309a17.98,17.98,0,0,0-2.5-1.446L31.6,39.3l-2.389-.871-2.027,4.262a17.955,17.955,0,0,0-2.843-.5l-.445-4.7H21.351l-.447,4.7a18.026,18.026,0,0,0-2.843.5l-2.025-4.262-2.389.871,1.188,4.565a18.3,18.3,0,0,0-2.5,1.448L8.974,41.994,7.027,43.626l2.682,3.892a18.021,18.021,0,0,0-1.852,2.209l-4.3-1.965-1.27,2.2L6.136,52.7a18.15,18.15,0,0,0-.987,2.711L.442,55.034,0,57.537l4.558,1.256c-.039.477-.062.956-.062,1.443s.023.964.062,1.441L0,62.934l.442,2.5,4.708-.378a17.954,17.954,0,0,0,.987,2.711L2.289,70.507l1.27,2.2,4.3-1.966a18.35,18.35,0,0,0,1.854,2.21l-2.682,3.89,1.947,1.633,3.365-3.317a18.115,18.115,0,0,0,2.5,1.448l-1.188,4.567,2.389.869,2.025-4.262a18.029,18.029,0,0,0,2.843.5l.447,4.7h2.542l.445-4.7a18.016,18.016,0,0,0,2.845-.5l2.025,4.262,2.389-.869-1.188-4.567a18.287,18.287,0,0,0,2.5-1.446l3.365,3.315,1.947-1.633-2.682-3.89a18.35,18.35,0,0,0,1.854-2.21l4.3,1.966,1.272-2.2L39.107,67.77a17.694,17.694,0,0,0,.987-2.711l4.708.378.442-2.5-4.558-1.257C40.725,61.2,40.75,60.72,40.75,60.235ZM22.623,67.084a6.849,6.849,0,1,1,6.847-6.849A6.849,6.849,0,0,1,22.623,67.084Z" transform="translate(0 23.483)" fill="#f40000"/>
    <path id="Trazado_7772" data-name="Trazado 7772" d="M28.908,85.338a4.753,4.753,0,0,1-4.754-4.754V27.031H14.646V22.523A4.754,4.754,0,0,1,19.4,17.769H68.493a4.753,4.753,0,0,1,4.754,4.754V76.076h9.506v4.508A4.753,4.753,0,0,1,78,85.338Z" transform="translate(11.441 8.079)" fill="#f5f5f5"/>
    <path id="Trazado_7773" data-name="Trazado 7773" d="M32.638,25.634,26.9,31.376a.661.661,0,0,1,.935,0L24.382,27.93h0a.661.661,0,1,0-.935.935h0L26.9,32.312a.661.661,0,0,0,.935,0l5.743-5.743h0a.661.661,0,1,0-.935-.935Z" transform="translate(18.165 14.072)" fill="#ffd044"/>
    <path id="Trazado_7774" data-name="Trazado 7774" d="M66.3,25.408H37.69a.662.662,0,0,0,0,1.323H66.3a.662.662,0,0,0,0-1.323ZM48.083,31.346H32.094a.661.661,0,0,0,0,1.322h15.99a.661.661,0,1,0,0-1.322Zm9.4,0H52.2a.661.661,0,0,0,0,1.322h5.29a.661.661,0,0,0,0-1.322Z" transform="translate(24.555 14.047)" fill="#f40000"/>
    <path id="Trazado_7775" data-name="Trazado 7775" d="M32.638,33.925,26.9,39.667a.661.661,0,0,1,.935,0l-3.448-3.447h0a.661.661,0,0,0-.935.935h0L26.9,40.6a.661.661,0,0,0,.935,0l5.743-5.743h0a.661.661,0,0,0-.935-.935Z" transform="translate(18.165 20.548)" fill="#ffd044"/>
    <path id="Trazado_7776" data-name="Trazado 7776" d="M66.3,33.7H37.69a.662.662,0,0,0,0,1.323H66.3a.662.662,0,0,0,0-1.323Zm-12.05,5.938H32.094a.661.661,0,0,0,0,1.322H54.255a.661.661,0,1,0,0-1.322Z" transform="translate(24.555 20.523)" fill="#f40000"/>
    <path id="Trazado_7777" data-name="Trazado 7777" d="M15.6,27.321V22.813a4.091,4.091,0,1,1,8.183,0V80.874a5.416,5.416,0,0,0,10.831,0V76.366a.662.662,0,0,1-.663.661H83.043a.661.661,0,1,0,0-1.322H33.95a.661.661,0,0,0-.661.661v4.508a4.092,4.092,0,1,1-8.184,0V22.813a5.415,5.415,0,1,0-10.83,0v4.508h0a.662.662,0,0,0,1.323,0Z" transform="translate(11.151 7.789)" fill="#111416"/>
    <path id="Trazado_7778" data-name="Trazado 7778" d="M62.236,27.574l-7.768,4.084,1.483-8.649-6.284-6.125,8.684-1.262,3.884-7.869,3.883,7.869L74.8,16.883l-6.284,6.125L70,31.658Z" transform="translate(38.799 0.254)" fill="#ffd044"/>
    <path id="Trazado_7779" data-name="Trazado 7779" d="M62.22,27.316,54.452,31.4a.578.578,0,0,1,.841.609l1.484-8.649a.58.58,0,0,0-.167-.513l-6.284-6.124A.577.577,0,0,1,50,17.71l8.685-1.261a.58.58,0,0,0,.436-.317l3.883-7.869h0A.579.579,0,1,0,61.97,7.75h0l-3.883,7.869a.578.578,0,0,1,.435-.317l-8.683,1.263a.579.579,0,0,0-.322.987L55.8,23.677a.581.581,0,0,1-.166-.513l-1.484,8.649a.578.578,0,0,0,.841.611l7.768-4.082h0a.58.58,0,1,0-.54-1.026Z" transform="translate(38.545 0)" fill="#f40000"/>
  </g>
</svg>
