<svg xmlns="http://www.w3.org/2000/svg" width="60" height="57.407" viewBox="0 0 60 57.407">
  <g id="ic_app" transform="translate(0 -5.479)">
    <rect id="Rect치ngulo_2317" data-name="Rect치ngulo 2317" width="28.435" height="48.063" transform="translate(15.546 9.568)" fill="#f40000"/>
    <rect id="Rect치ngulo_2318" data-name="Rect치ngulo 2318" width="27.96" height="3.293" transform="translate(16.02 6.275)" fill="#ffc42c"/>
    <g id="Grupo_8022" data-name="Grupo 8022" transform="translate(15.224 5.479)">
      <path id="Trazado_7507" data-name="Trazado 7507" d="M44.986,5.479H17.026a.8.8,0,0,0-.8.794V62.092a.8.8,0,0,0,.8.794h27.96a.8.8,0,0,0,.8-.794V6.273A.8.8,0,0,0,44.986,5.479ZM17.822,57.646H44.19V61.3H17.822Zm0-1.587V10.349H44.19v45.71Zm0-47.3v-1.7H44.19v1.7Z" transform="translate(-16.23 -5.479)" fill="#0f1112"/>
      <path id="Trazado_7508" data-name="Trazado 7508" d="M35.071,62.135H28.388a.8.8,0,0,0,0,1.593h6.682a.8.8,0,0,0,0-1.593Z" transform="translate(-16.871 -8.849)" fill="#0f1112"/>
    </g>
    <g id="Grupo_8023" data-name="Grupo 8023" transform="translate(0 22.601)">
      <path id="Trazado_7509" data-name="Trazado 7509" d="M5.159,35.147H.8a.8.8,0,1,0,0,1.593H5.159a.8.8,0,1,0,0-1.593Z" transform="translate(0 -24.362)" fill="#0f1112"/>
      <path id="Trazado_7510" data-name="Trazado 7510" d="M9.178,27.036,6.094,23.95h0a.8.8,0,1,0-1.126,1.126h0l3.085,3.085h0a.8.8,0,1,0,1.126-1.126Z" transform="translate(-0.267 -23.717)" fill="#0f1112"/>
      <path id="Trazado_7511" data-name="Trazado 7511" d="M8.053,43.541,4.968,46.627h0a.8.8,0,0,0,1.126,1.126h0l3.085-3.085h0a.8.8,0,1,0-1.126-1.126Z" transform="translate(-0.267 -24.822)" fill="#0f1112"/>
      <path id="Trazado_7512" data-name="Trazado 7512" d="M58.264,36.74h4.363a.8.8,0,0,0,0-1.593H58.264a.8.8,0,1,0,0,1.593Z" transform="translate(-3.424 -24.362)" fill="#0f1112"/>
      <path id="Trazado_7513" data-name="Trazado 7513" d="M55.448,28.161l3.085-3.085h0a.8.8,0,0,0-1.126-1.126h0l-3.085,3.085h0a.8.8,0,0,0,1.127,1.126Z" transform="translate(-3.233 -23.717)" fill="#0f1112"/>
      <path id="Trazado_7514" data-name="Trazado 7514" d="M54.321,44.667l3.085,3.085h0a.8.8,0,0,0,1.126-1.126h0l-3.085-3.085h0a.8.8,0,1,0-1.127,1.126Z" transform="translate(-3.233 -24.822)" fill="#0f1112"/>
    </g>
    <path id="Trazado_7515" data-name="Trazado 7515" d="M29.465,35.764a2.2,2.2,0,1,1,2.2,2.2A2.2,2.2,0,0,1,29.465,35.764Zm2.2,3.791a3.791,3.791,0,1,0-3.791-3.791A3.795,3.795,0,0,0,31.663,39.556Z" transform="translate(-1.663 -1.582)" fill="#ffc42c"/>
    <g id="Grupo_8024" data-name="Grupo 8024" transform="translate(18.33 22.513)">
      <path id="Trazado_7516" data-name="Trazado 7516" d="M28.728,25.647a10.1,10.1,0,0,1,2.926-.431h0a.8.8,0,1,0,0-1.593h0a11.687,11.687,0,0,0-3.387.5h0a.8.8,0,0,0,.461,1.525Z" transform="translate(-19.984 -23.623)" fill="#fff"/>
      <path id="Trazado_7517" data-name="Trazado 7517" d="M34.768,46.213a10.1,10.1,0,0,1-2.926.43h0a.8.8,0,1,0,0,1.593h0a11.692,11.692,0,0,0,3.387-.5h0a.8.8,0,1,0-.461-1.524Z" transform="translate(-20.172 -24.896)" fill="#fff"/>
      <path id="Trazado_7518" data-name="Trazado 7518" d="M22.378,30.732a10.082,10.082,0,0,1,1.764-2.374h0a.8.8,0,0,0-1.127-1.126h0a11.69,11.69,0,0,0-2.042,2.748h0a.8.8,0,0,0,1.4.752Z" transform="translate(-19.599 -23.813)" fill="#fff"/>
      <path id="Trazado_7519" data-name="Trazado 7519" d="M41.193,41a10.116,10.116,0,0,1-1.764,2.373h0A.8.8,0,1,0,40.554,44.5h0A11.662,11.662,0,0,0,42.6,41.754h0a.8.8,0,0,0-1.4-.751Z" transform="translate(-20.632 -24.58)" fill="#fff"/>
      <path id="Trazado_7520" data-name="Trazado 7520" d="M21.545,38.869a10.094,10.094,0,0,1-.43-2.926h0a.8.8,0,0,0-1.593,0h0a11.719,11.719,0,0,0,.5,3.387h0a.8.8,0,0,0,1.525-.461Z" transform="translate(-19.522 -24.273)" fill="#fff"/>
      <path id="Trazado_7521" data-name="Trazado 7521" d="M42.111,32.829a10.1,10.1,0,0,1,.431,2.926h0a.8.8,0,1,0,1.592,0h0a11.658,11.658,0,0,0-.5-3.386h0a.8.8,0,1,0-1.525.46Z" transform="translate(-20.795 -24.085)" fill="#fff"/>
      <path id="Trazado_7522" data-name="Trazado 7522" d="M26.63,45.294a10.107,10.107,0,0,1-2.374-1.764h0a.8.8,0,1,0-1.126,1.126h0A11.654,11.654,0,0,0,25.879,46.7h0a.8.8,0,1,0,.751-1.4Z" transform="translate(-19.712 -24.733)" fill="#fff"/>
      <path id="Trazado_7523" data-name="Trazado 7523" d="M36.9,26.479a10.116,10.116,0,0,1,2.373,1.764h0A.8.8,0,0,0,40.4,27.118h0a11.7,11.7,0,0,0-2.748-2.043h0a.8.8,0,0,0-.752,1.4Z" transform="translate(-20.479 -23.7)" fill="#fff"/>
    </g>
  </g>
</svg>
