<svg xmlns="http://www.w3.org/2000/svg" width="50" height="44.293" viewBox="0 0 50 44.293">
  <g id="ic_bienvenida" transform="translate(-3.542 -6.778)">
    <rect id="Rect치ngulo_2321" data-name="Rect치ngulo 2321" width="6.284" height="20.282" transform="matrix(0.707, -0.707, 0.707, 0.707, 34.756, 11.222)" fill="#f40000"/>
    <g id="Grupo_8026" data-name="Grupo 8026" transform="translate(3.542 8.948)">
      <rect id="Rect치ngulo_2322" data-name="Rect치ngulo 2322" width="20.282" height="6.283" transform="matrix(0.707, -0.707, 0.707, 0.707, 0, 14.34)" fill="#ffc42c"/>
      <path id="Trazado_7537" data-name="Trazado 7537" d="M49.225,24.643a.74.74,0,0,0-.216-.522L37.295,12.377a.734.734,0,0,0-1.04,0l-2.127,2.131c-1.974-.72-5.714-.694-7.114.707l-2.205,2.217L21.887,14.5a.756.756,0,0,0-1.04,0L9.1,26.283a.739.739,0,0,0,0,1.042l4.07,4.08L11.981,32.6A3.435,3.435,0,0,0,14.4,38.459a3.491,3.491,0,0,0,.419-.041,3.5,3.5,0,0,0-.04.42,3.429,3.429,0,0,0,3.425,3.433,3.337,3.337,0,0,0,.419-.041,3.358,3.358,0,0,0-.041.421,3.43,3.43,0,0,0,3.425,3.433h0a3.337,3.337,0,0,0,.419-.041,3.4,3.4,0,0,0,5.449,3.141l1.575,1.58a.617.617,0,0,0,.05.046,3.424,3.424,0,0,0,5.61-2.743,4.586,4.586,0,0,0,.457.138,3.084,3.084,0,0,0,3.037-.739,3.433,3.433,0,0,0,.991-2.7,4.43,4.43,0,0,0,1.071.135h0a2.974,2.974,0,0,0,2.166-.823,3.419,3.419,0,0,0,1-2.429,3.643,3.643,0,0,0-.023-.4,3.432,3.432,0,0,0,2.829-5.833l-2.468-2.5.246-.247a4.542,4.542,0,0,0,1.245-4.159l3.338-3.345A.74.74,0,0,0,49.225,24.643ZM14.4,36.984a1.96,1.96,0,0,1-1.381-3.345l1.7-1.71,0,0,0,0,.19-.191A1.956,1.956,0,1,1,17.683,34.5l-1.9,1.907A1.939,1.939,0,0,1,14.4,36.984Zm3.8,3.812a1.959,1.959,0,0,1-1.382-3.342h0l1.9-1.907h0a1.957,1.957,0,0,1,2.765,2.771l-1.9,1.906A1.94,1.94,0,0,1,18.206,40.8Zm3.8,3.813a1.96,1.96,0,0,1-1.381-3.345l1.9-1.906a1.95,1.95,0,0,1,2.764,0,1.966,1.966,0,0,1,0,2.77l-1.9,1.906h0a1.93,1.93,0,0,1-1.379.574Zm2.421,3.24a1.968,1.968,0,0,1,0-2.77l1.905-1.907a1.951,1.951,0,0,1,2.764,0,1.966,1.966,0,0,1,0,2.771l-1.706,1.708h0v0l-.195.194h0A1.957,1.957,0,0,1,24.431,47.849ZM45.6,39.225a1.954,1.954,0,0,1-2.764,0h0L40.919,37.3a.737.737,0,0,0-1.04,1.043L41.8,40.267h0a1.961,1.961,0,0,1,0,2.772,1.588,1.588,0,0,1-1.126.391h0a3.084,3.084,0,0,1-2.06-.82h0l-1.02-1.022a.736.736,0,1,0-1.041,1.042l1.02,1.022h0a1.968,1.968,0,0,1,0,2.773,1.636,1.636,0,0,1-1.647.347,4.076,4.076,0,0,1-1.806-1.033.736.736,0,0,0-1.04,1.042,1.964,1.964,0,0,1,0,2.768,1.94,1.94,0,0,1-2.606.146l-1.516-1.522,1.186-1.188a3.445,3.445,0,0,0,0-4.857,3.4,3.4,0,0,0-2.423-1.006,3.348,3.348,0,0,0-.421.041,3.407,3.407,0,0,0-3.382-3.855,3.335,3.335,0,0,0-.42.041,3.534,3.534,0,0,0,.041-.42,3.405,3.405,0,0,0-3.846-3.39,3.374,3.374,0,0,0,.041-.421A3.416,3.416,0,0,0,14.24,30.4L10.657,26.8l10.71-10.737,2.4,2.408L21.6,20.653a.753.753,0,0,0-.133.186A3.9,3.9,0,0,0,26.764,26.4a.735.735,0,0,0,.375-.2L31.331,22,42.579,33.389c.013.017.019.037.034.053s.034.02.05.033L45.6,36.454A1.966,1.966,0,0,1,45.6,39.225ZM44.335,27.763a.738.738,0,0,0-.182.745,3.083,3.083,0,0,1-.767,3.117l-.241.242L31.857,20.434h0v0a.747.747,0,0,0-.113-.076.756.756,0,0,0-.128-.085.7.7,0,0,0-.134-.026.726.726,0,0,0-.142-.028.754.754,0,0,0-.132.025.74.74,0,0,0-.145.028.784.784,0,0,0-.157.1.6.6,0,0,0-.086.056h0l0,0-4.5,4.51a.735.735,0,0,0-.191.107,2.428,2.428,0,0,1-3.409-3.413c.01-.011.018-.023.026-.035l2.571-2.585c.007-.006.017-.009.024-.015s.009-.017.015-.024l2.706-2.72c.926-.929,4.553-.939,5.891-.223a.736.736,0,0,0,.867-.129l1.961-1.963,10.675,10.7Z" transform="translate(-4.074 -9.484)" fill="#161615"/>
    </g>
  </g>
</svg>
