<svg xmlns="http://www.w3.org/2000/svg" width="133.94" height="98.683" viewBox="0 0 133.94 98.683">
  <g id="ic_bonos_extra" transform="translate(-0.378)">
    <path id="Trazado_7538" data-name="Trazado 7538" d="M109.11,20.489a7.122,7.122,0,0,0-10.575-8.869l0,0a8.044,8.044,0,0,0-15.4,1.193,6.061,6.061,0,0,0-7.973,7.674Z" transform="translate(11.941 1.03)" fill="#fed044"/>
    <g id="Grupo_8028" data-name="Grupo 8028" transform="translate(73.059 31.784)">
      <path id="Trazado_7539" data-name="Trazado 7539" d="M84.068,27.389h0L71.843,39.614,84.068,51.839h38.783V27.389Zm.795,16.136a3.911,3.911,0,1,1,3.912-3.911A3.911,3.911,0,0,1,84.863,43.525Z" transform="translate(-61.593 -27.389)" fill="#f40000"/>
      <path id="Trazado_7540" data-name="Trazado 7540" d="M64.2,46.739c9.039,0,14.653-1.808,21.453-6.908h0a1.186,1.186,0,1,0-1.424-1.9h0c-6.413,4.81-11.468,6.434-20.029,6.434h0a1.186,1.186,0,1,0,0,2.372Z" transform="translate(-63.01 -25.735)" fill="#fed044"/>
      <path id="Trazado_7541" data-name="Trazado 7541" d="M110.807,42.21a1.256,1.256,0,1,1-1.258,1.258A1.255,1.255,0,0,1,110.807,42.21Z" transform="translate(-55.543 -25.011)" fill="#fed044"/>
      <path id="Trazado_7542" data-name="Trazado 7542" d="M105.7,42.21a1.256,1.256,0,1,1-1.257,1.258A1.255,1.255,0,0,1,105.7,42.21Z" transform="translate(-56.363 -25.011)" fill="#fed044"/>
      <path id="Trazado_7543" data-name="Trazado 7543" d="M100.588,42.21a1.256,1.256,0,1,1-1.257,1.258A1.255,1.255,0,0,1,100.588,42.21Z" transform="translate(-57.182 -25.011)" fill="#fed044"/>
    </g>
    <g id="Grupo_8029" data-name="Grupo 8029" transform="translate(0.378)">
      <path id="Trazado_7544" data-name="Trazado 7544" d="M41.906,0a.862.862,0,0,0-.862.861V4.283a.862.862,0,0,0,1.723,0V.861A.861.861,0,0,0,41.906,0ZM27.139,3.628a.862.862,0,1,0-1.592.659l1.31,3.161a.861.861,0,1,0,1.591-.659Zm-13.38,8.535a.862.862,0,1,0-1.218,1.218l2.42,2.42a.862.862,0,1,0,1.218-1.218ZM7.826,26.479l-3.161-1.31A.862.862,0,0,0,4,26.761L7.167,28.07a.861.861,0,0,0,.659-1.591Zm-2.3,15.049a.861.861,0,0,0-.861-.861H1.239a.861.861,0,1,0,0,1.722H4.661A.861.861,0,0,0,5.522,41.528ZM7.167,54.984,4,56.293a.862.862,0,0,0,.66,1.592l3.161-1.31a.861.861,0,0,0-.659-1.591ZM76.644,28.07h0l3.161-1.309h0a.862.862,0,0,0-.659-1.592l-3.161,1.31a.861.861,0,1,0,.659,1.591ZM70.051,12.163l-2.42,2.421A.861.861,0,0,0,68.849,15.8l2.421-2.42a.862.862,0,1,0-1.218-1.218Zm-12.254-9a.861.861,0,0,0-1.126.467L55.362,6.789a.861.861,0,1,0,1.591.659l1.309-3.162A.861.861,0,0,0,57.8,3.161Z" transform="translate(-0.378)" fill="#f40000"/>
    </g>
    <path id="Trazado_7545" data-name="Trazado 7545" d="M17.625,20.346H60.256s5.15.306,5.15,5.149V66.686L42.715,82.407,20.622,67.53V24.872A4.408,4.408,0,0,0,17.625,20.346Z" transform="translate(2.767 3.265)" fill="#fff"/>
    <path id="Trazado_7546" data-name="Trazado 7546" d="M76.719,60.705c0-.024,0-.05-.007-.074v-.008c-.006-.024-.015-.048-.022-.071v0c-.008-.027-.014-.053-.024-.079l0-.009c-.01-.024-.024-.045-.037-.068s-.023-.049-.038-.072l-.006-.009h0c-.007-.012-.017-.02-.024-.03l-.023-.028c-.016-.021-.032-.042-.051-.062l-.008-.009c-.02-.019-.042-.034-.063-.051l-.028-.022c-.01-.008-.019-.017-.029-.026l0,0h0l-8.433-5.745V25.778a6.14,6.14,0,0,0-6.133-6.133H16.464a6.139,6.139,0,0,0-6.131,6.133v5a.861.861,0,0,0,.861.861h9.682v22l-9.453,6.441h0l0,0c-.012.008-.02.017-.03.026l-.028.022c-.021.017-.042.032-.062.051l-.008.009c-.02.02-.035.041-.052.062l-.022.028c-.008.01-.017.019-.026.03h0l-.006.009c-.015.023-.027.048-.039.072s-.027.044-.037.068l0,.009c-.01.026-.016.052-.024.079v0a.711.711,0,0,0-.021.071l0,.008c0,.024,0,.05-.007.074a.755.755,0,0,0-.008.088h0V94.67h0a.854.854,0,0,0,.017.172.567.567,0,0,0,.022.072.707.707,0,0,0,.027.088.9.9,0,0,0,.082.151h0c.008.012.017.02.026.03a.83.83,0,0,0,.082.1c.02.02.041.035.062.052s.044.037.068.053.048.027.072.039.05.028.077.039.053.016.08.024.052.017.079.023a.866.866,0,0,0,.133.013.331.331,0,0,0,.034,0H75.867a.309.309,0,0,0,.032,0,.852.852,0,0,0,.133-.013c.027-.006.052-.015.079-.023s.055-.014.081-.024.05-.027.075-.039.049-.024.072-.039.046-.036.068-.053.043-.032.063-.052a.962.962,0,0,0,.082-.1c.007-.01.017-.019.024-.03h0A.9.9,0,0,0,76.661,95c.012-.028.019-.058.028-.088s.016-.048.022-.072a.854.854,0,0,0,.017-.172h0V60.795h0A.758.758,0,0,0,76.719,60.705Zm-2.381.089-6.422,4.376V56.42ZM61.783,21.367a4.416,4.416,0,0,1,4.411,4.411V66.344l-22.308,15.2L22.6,67.039V25.778a6.112,6.112,0,0,0-1.883-4.411ZM12.056,29.915V25.778a4.41,4.41,0,1,1,8.819,0v4.137Zm8.819,25.81V65.866l-7.442-5.071Zm-8.11,6.7L35.234,77.732,12.765,93.041ZM14.7,93.809,36.765,78.776,43.4,83.3a.861.861,0,0,0,.97,0l6.637-4.521L73.073,93.809Zm60.309-.768L52.536,77.732l22.47-15.309Z" transform="translate(1.597 3.152)" fill="#161615"/>
  </g>
</svg>
