<svg xmlns="http://www.w3.org/2000/svg" width="50" height="49.8" viewBox="0 0 50 49.8">
  <g id="ic_cumpleaños" transform="translate(-2.725 -2.665)">
    <path id="Trazado_7767" data-name="Trazado 7767" d="M0,0H4.231V7.817H0Z" transform="translate(25.609 10.388)" fill="#f40000"/>
    <path id="Trazado_7548" data-name="Trazado 7548" d="M43.595,38.626l6.18.574,1.686,1.721v16.6H3.61V40.378l2.06-1.561,5.618-.191Z" transform="translate(-0.111 -5.519)" fill="#fed044"/>
    <g id="Grupo_8033" data-name="Grupo 8033" transform="translate(26.756 2.665)">
      <path id="Trazado_7549" data-name="Trazado 7549" d="M32.217,8.166a.779.779,0,0,1-.261-.045,1.868,1.868,0,0,1-1.083-1.077,2.022,2.022,0,0,1,.311-1.78,1.21,1.21,0,0,0,.1-1.365.784.784,0,0,1,.16-1.077.767.767,0,0,1,1.066.131A2.725,2.725,0,0,1,32.5,6.085c-.161.258-.176.408-.16.452.021.061.14.126.142.126a.774.774,0,0,1-.261,1.5Z" transform="translate(-30.785 -2.665)" fill="#f40000"/>
    </g>
    <g id="Grupo_8034" data-name="Grupo 8034" transform="translate(15.158 21.011)">
      <path id="Trazado_7550" data-name="Trazado 7550" d="M18.012,34.114a.774.774,0,0,1-.774-.774V24.947a.774.774,0,0,1,1.548,0V33.34A.774.774,0,0,1,18.012,34.114Z" transform="translate(-17.238 -24.173)" fill="#f40000"/>
    </g>
    <g id="Grupo_8035" data-name="Grupo 8035" transform="translate(7.616 35.809)">
      <path id="Trazado_7551" data-name="Trazado 7551" d="M9.093,55.21a.774.774,0,0,1-.775-.773V42.489a.774.774,0,0,1,1.549,0V54.437A.773.773,0,0,1,9.093,55.21Z" transform="translate(-8.318 -41.715)" fill="#f40000"/>
    </g>
    <path id="Trazado_7552" data-name="Trazado 7552" d="M48.706,34.138H44.6V22.524c0-2.656-1.761-4.243-4.709-4.243H30.556v-6.63A.756.756,0,0,0,29.8,10.9H25.651a.758.758,0,0,0-.759.756v6.63H15.845a5.566,5.566,0,0,0-3.916,1.257,3.884,3.884,0,0,0-1.083,2.88v11.72H8.574c-4.834,0-5.849,2.762-5.849,5.079V53.5H47.344a.756.756,0,1,0,0-1.512H4.243v-3.41H51.208v4.166a.759.759,0,0,0,1.517,0v-14.6C52.725,35.56,51.3,34.138,48.706,34.138ZM26.41,12.407h2.63v5.874H26.41ZM13,20.611a4.146,4.146,0,0,1,2.836-.818h24.06c2.118,0,3.192.918,3.192,2.73v3.27a4.791,4.791,0,0,0-2.647-.678,4.919,4.919,0,0,0-3.8,1.6,2.652,2.652,0,0,1-2.057.984,3.121,3.121,0,0,1-2.152-.929,6.594,6.594,0,0,0-4.67-1.653,7.528,7.528,0,0,0-4.939,1.674,3.453,3.453,0,0,1-2.133.908,3.048,3.048,0,0,1-2.142-.959,4.608,4.608,0,0,0-3.174-1.325,4.811,4.811,0,0,0-3.008,1.038V22.418A2.411,2.411,0,0,1,13,20.611Zm-.634,8.051a3.631,3.631,0,0,1,3.008-1.738,3.114,3.114,0,0,1,2.2.978,4.473,4.473,0,0,0,3.112,1.307,4.861,4.861,0,0,0,3.017-1.192,6.069,6.069,0,0,1,4.055-1.391,5.1,5.1,0,0,1,3.73,1.328,4.586,4.586,0,0,0,3.093,1.254,4.1,4.1,0,0,0,3.1-1.394,3.446,3.446,0,0,1,2.76-1.188c2.476,0,2.639,1.529,2.647,1.827v5.684H12.364Zm-8.121,18.4V39.217c0-1.661.492-3.567,4.331-3.567H48.706c1.73,0,2.5.769,2.5,2.493v8.92Z" transform="translate(0 -1.033)" fill="#161615"/>
  </g>
</svg>
