<svg xmlns="http://www.w3.org/2000/svg" width="51" height="50" viewBox="0 0 51 50">
  <defs>
    <style>
      .cls-1 {
        fill: #fff;
      }

      .cls-2 {
        fill: #f40000;
        stroke: #f40000;
        stroke-width: 0.5px;
      }
    </style>
  </defs>
  <g id="ic_carrito_catalogo_blanco" transform="translate(0.488 -0.389)">
    <ellipse id="Elipse_26" data-name="Elipse 26" class="cls-1" cx="25.5" cy="25" rx="25.5" ry="25" transform="translate(-0.488 0.389)"/>
    <g id="Grupo_8017" data-name="Grupo 8017" transform="translate(11.414 14.969)">
      <path id="Trazado_1607" data-name="Trazado 1607" class="cls-2" d="M157.33,281.784H146.966a.442.442,0,0,1,0-.884H157.33a1.116,1.116,0,0,0,1.1-.937c0-.01,0-.02.006-.03l1.458-6.414a.693.693,0,0,0-.687-.788h-15.19a.442.442,0,0,1,0-.884H159.2a1.577,1.577,0,0,1,1.559,1.821c0,.01,0,.02-.006.03l-1.458,6.416A1.983,1.983,0,0,1,157.33,281.784Z" transform="translate(-136.748 -268.692)"/>
      <path id="Trazado_1608" data-name="Trazado 1608" class="cls-2" d="M148.459,339.992a2.079,2.079,0,1,1,2.078-2.078A2.081,2.081,0,0,1,148.459,339.992Zm0-3.273a1.195,1.195,0,1,0,1.194,1.195A1.2,1.2,0,0,0,148.459,336.719Z" transform="translate(-138.937 -318.539)"/>
      <path id="Trazado_1609" data-name="Trazado 1609" class="cls-2" d="M190.272,339.992a2.079,2.079,0,1,1,2.079-2.078A2.081,2.081,0,0,1,190.272,339.992Zm0-3.273a1.195,1.195,0,1,0,1.195,1.195A1.2,1.2,0,0,0,190.272,336.719Z" transform="translate(-171.51 -318.539)"/>
      <path id="Trazado_1610" data-name="Trazado 1610" class="cls-2" d="M133.1,272.835H120.714l-1.156-4.54-2.249-9.752a1.293,1.293,0,0,0-1.255-.976h-2.913a.442.442,0,1,0,0,.884h2.913a.408.408,0,0,1,.4.3l2.118,9.18a.422.422,0,0,0,.013.1l.119.468,0,.018,0,.006,1.238,4.859a.442.442,0,0,0,.428.333H133.1a.442.442,0,1,0,0-.884Z" transform="translate(-112.699 -257.567)"/>
    </g>
  </g>
</svg>
