<svg xmlns="http://www.w3.org/2000/svg" width="33.078" height="29.579" viewBox="0 0 33.078 29.579">
  <defs>
    <style>
      .cls-1 {
        fill: #f40000;
        stroke: #f40000;
        stroke-width: 0.5px;
      }
    </style>
  </defs>
  <g id="ic_carrito" transform="translate(-112.449 -257.317)">
    <path id="Trazado_1607" data-name="Trazado 1607" class="cls-1" d="M162.221,285.316H148.173a.6.6,0,0,1,0-1.2h14.047a1.513,1.513,0,0,0,1.485-1.271c0-.013,0-.027.008-.04l1.976-8.693a.939.939,0,0,0-.931-1.068H144.169a.6.6,0,1,1,0-1.2h20.589a2.138,2.138,0,0,1,2.113,2.469c0,.013,0,.027-.008.04l-1.977,8.7A2.688,2.688,0,0,1,162.221,285.316Z" transform="translate(-21.624 -10.003)"/>
    <path id="Trazado_1608" data-name="Trazado 1608" class="cls-1" d="M149.2,341.47a2.817,2.817,0,1,1,2.817-2.817A2.82,2.82,0,0,1,149.2,341.47Zm0-4.436a1.619,1.619,0,1,0,1.619,1.62A1.621,1.621,0,0,0,149.2,337.033Z" transform="translate(-23.592 -54.824)"/>
    <path id="Trazado_1609" data-name="Trazado 1609" class="cls-1" d="M191.01,341.47a2.817,2.817,0,1,1,2.817-2.817A2.82,2.82,0,0,1,191.01,341.47Zm0-4.436a1.619,1.619,0,1,0,1.619,1.62A1.622,1.622,0,0,0,191.01,337.033Z" transform="translate(-52.881 -54.824)"/>
    <path id="Trazado_1610" data-name="Trazado 1610" class="cls-1" d="M140.348,278.262H123.563L122,272.108l-3.049-13.218a1.753,1.753,0,0,0-1.7-1.323H113.3a.6.6,0,1,0,0,1.2h3.948a.553.553,0,0,1,.536.407l2.87,12.443a.572.572,0,0,0,.017.14l.161.634.006.025,0,.009,1.677,6.586a.6.6,0,0,0,.581.451h17.251a.6.6,0,1,0,0-1.2Z" transform="translate(0)"/>
  </g>
</svg>
