<svg xmlns="http://www.w3.org/2000/svg" width="99.346" height="98.995" viewBox="0 0 99.346 98.995">
  <defs>
    <style>
      .cls-1 {
        fill: #f40000;
      }

      .cls-2 {
        fill: #ffc42c;
      }

      .cls-3 {
        fill: #161615;
      }

      .cls-4 {
        fill: #fff;
      }
    </style>
  </defs>
  <g id="ic_ejecucion_de_mercadeo" transform="translate(0 -0.269)">
    <rect id="Rect치ngulo_2337" data-name="Rect치ngulo 2337" class="cls-1" width="24.638" height="51.779" transform="translate(62.348 18.397)"/>
    <g id="Grupo_8048" data-name="Grupo 8048" transform="translate(0 20.561)">
      <rect id="Rect치ngulo_2338" data-name="Rect치ngulo 2338" class="cls-2" width="6.636" height="17.806" transform="translate(4.943 9.948)"/>
      <g id="Grupo_8047" data-name="Grupo 8047">
        <path id="Trazado_7592" data-name="Trazado 7592" class="cls-3" d="M43.535,26.739H28.9a6.6,6.6,0,0,0,1.581-4.378c0-1.313,0-4.8-3.344-4.8a.768.768,0,0,0-.768.768A5.521,5.521,0,0,1,21.319,23.7h-.772c-3.244,0-5.192,1.455-5.672,3.036H.768a.768.768,0,0,0,0,1.536H10.81V44.544H.768a.768.768,0,0,0,0,1.536H14.776a2.543,2.543,0,0,0,2.553,1.879H33.865a3.215,3.215,0,0,0,2.066-5.689,3.185,3.185,0,0,0,0-4.921A3.177,3.177,0,0,0,36.6,33.2h6.935a3.228,3.228,0,0,0,0-6.456Zm0,4.92H31.9a.768.768,0,0,0,0,1.536h1.962a1.694,1.694,0,0,1,0,3.387H31.9a.768.768,0,1,0,0,1.535h1.963a1.693,1.693,0,0,1,0,3.386H31.9a.768.768,0,0,0,0,1.536h1.963a1.692,1.692,0,0,1,0,3.384H17.327a1.11,1.11,0,0,1-.817-.3,1.166,1.166,0,0,1-.322-.81.769.769,0,0,0-.768-.769H12.348V28.275h3.17a.769.769,0,0,0,.768-.769c0-.914,1.354-2.267,4.263-2.267h.772A7.056,7.056,0,0,0,27.842,19.2c.617.229,1.1.948,1.1,3.159,0,2.266-1.138,3.4-2.341,4.6h0a.781.781,0,0,0-.165.25.794.794,0,0,0-.06.293h0l0,.019a.733.733,0,0,0,.21.509l.011.014h0a.763.763,0,0,0,.249.165.794.794,0,0,0,.293.06H43.535a1.692,1.692,0,1,1,0,3.384Z" transform="translate(0 -17.559)"/>
        <path id="Trazado_7593" data-name="Trazado 7593" class="cls-3" d="M7.522,37.732a1.132,1.132,0,1,0-1.133,1.131A1.132,1.132,0,0,0,7.522,37.732Z" transform="translate(0.913 -14.253)"/>
      </g>
    </g>
    <g id="Grupo_8049" data-name="Grupo 8049" transform="translate(42.768 24.082)">
      <path id="Trazado_7594" data-name="Trazado 7594" class="cls-1" d="M36.441,33.047v2.487h0a.768.768,0,1,0,1.535,0h0V33.047h0a.768.768,0,0,0-1.535,0Z" transform="translate(-36.441 -18.524)"/>
      <path id="Trazado_7595" data-name="Trazado 7595" class="cls-1" d="M40.06,32.184l1.758,1.758h0A.768.768,0,0,0,42.9,32.856h0L41.146,31.1h0a.768.768,0,0,0-1.086,1.087Z" transform="translate(-35.852 -18.768)"/>
      <path id="Trazado_7596" data-name="Trazado 7596" class="cls-1" d="M42.009,29.014H44.5a.768.768,0,1,0,0-1.535H42.009a.768.768,0,1,0,0,1.535Z" transform="translate(-35.608 -19.358)"/>
      <path id="Trazado_7597" data-name="Trazado 7597" class="cls-1" d="M41.146,25.655,42.9,23.9h0a.768.768,0,0,0-1.086-1.087h0L40.06,24.569h0a.768.768,0,0,0,1.086,1.086Z" transform="translate(-35.852 -20.207)"/>
      <path id="Trazado_7598" data-name="Trazado 7598" class="cls-1" d="M37.976,23.815V21.327h0a.768.768,0,1,0-1.535,0h0v2.488h0a.768.768,0,0,0,1.535,0Z" transform="translate(-36.441 -20.559)"/>
    </g>
    <path id="Trazado_7599" data-name="Trazado 7599" class="cls-2" d="M37.464,14.872l-5.686,2.989a.794.794,0,0,1,1.151.837l1.086-6.332a.794.794,0,0,0-.228-.7l-4.6-4.484a.793.793,0,0,1-.44,1.353L35.1,7.609a.8.8,0,0,0,.6-.434l2.844-5.761a.793.793,0,0,1-1.422,0l2.842,5.761a.8.8,0,0,0,.6.434l6.359.924a.793.793,0,0,1-.44-1.353l-4.6,4.484a.794.794,0,0,0-.228.7L42.738,18.7a.794.794,0,0,1,1.151-.837L38.2,14.872A.792.792,0,0,0,37.464,14.872ZM44.3,18.429,43.216,12.1a.794.794,0,0,1-.228.7l4.6-4.486a.793.793,0,0,0-.44-1.353l-6.357-.924a.794.794,0,0,1,.6.434L38.545.711a.793.793,0,0,0-1.422,0L34.279,6.473a.792.792,0,0,1,.6-.434l-6.357.924a.793.793,0,0,0-.44,1.353l4.6,4.486a.794.794,0,0,1-.228-.7l-1.087,6.332a.793.793,0,0,0,1.151.837L38.2,16.277a.8.8,0,0,1-.739,0l5.687,2.989a.793.793,0,0,0,1.151-.837Z" transform="translate(4.833)"/>
    <path id="Trazado_7600" data-name="Trazado 7600" class="cls-1" d="M34.858,83.256a7.7,7.7,0,0,0,10.874,0,5.58,5.58,0,0,1,7.877,0,7.685,7.685,0,0,0,10.868,0,5.574,5.574,0,0,1,7.873,0h0a1.06,1.06,0,1,0,1.5-1.5h0a7.7,7.7,0,0,0-10.87,0,5.563,5.563,0,0,1-7.871,0,7.7,7.7,0,0,0-10.874,0,5.577,5.577,0,0,1-7.876,0h0a1.06,1.06,0,0,0-1.5,1.5Z" transform="translate(5.998 13.757)"/>
    <path id="Trazado_7601" data-name="Trazado 7601" class="cls-2" d="M51.209,77.443a7.7,7.7,0,0,0,10.874,0,5.581,5.581,0,0,1,7.877,0,7.683,7.683,0,0,0,10.868,0,5.574,5.574,0,0,1,7.873,0h0a1.06,1.06,0,1,0,1.5-1.5h0a7.7,7.7,0,0,0-10.87,0,5.563,5.563,0,0,1-7.871,0,7.7,7.7,0,0,0-10.874,0,5.577,5.577,0,0,1-7.876,0h0a1.06,1.06,0,1,0-1.5,1.5Z" transform="translate(8.837 12.748)"/>
    <path id="Trazado_7602" data-name="Trazado 7602" class="cls-3" d="M78.815,14.333H52.554a.81.81,0,0,0-.811.811v53.4a.81.81,0,0,0,.811.811H78.815a.811.811,0,0,0,.811-.811v-53.4A.811.811,0,0,0,78.815,14.333ZM78,67.734H53.365V15.955H78Z" transform="translate(8.983 2.442)"/>
    <path id="Trazado_7603" data-name="Trazado 7603" class="cls-4" d="M55.844,24.066a.82.82,0,0,0,.582-.242L60.048,20.2a.823.823,0,0,0-1.163-1.164l-3.622,3.623a.823.823,0,0,0,.581,1.4Z" transform="translate(9.552 3.217)"/>
    <path id="Trazado_7604" data-name="Trazado 7604" class="cls-4" d="M56.147,28.805a.823.823,0,0,0,1.163,0l7.718-7.718a.822.822,0,0,0-1.163-1.163l-7.718,7.717A.823.823,0,0,0,56.147,28.805Z" transform="translate(9.706 3.371)"/>
    <path id="Trazado_7605" data-name="Trazado 7605" class="cls-4" d="M69.043,36.628v4.643a.823.823,0,0,0,1.645,0V36.628a.823.823,0,1,0-1.645,0Z" transform="translate(11.987 6.17)"/>
    <path id="Trazado_7606" data-name="Trazado 7606" class="cls-4" d="M57.054,51.452h15.7a.823.823,0,0,0,0-1.647h-15.7a.823.823,0,1,0,0,1.647Z" transform="translate(9.762 8.6)"/>
    <path id="Trazado_7607" data-name="Trazado 7607" class="cls-4" d="M57.054,56.224h15.7a.823.823,0,0,0,0-1.647h-15.7a.823.823,0,1,0,0,1.647Z" transform="translate(9.762 9.429)"/>
    <path id="Trazado_7608" data-name="Trazado 7608" class="cls-3" d="M83.638,9.663H48.987a.868.868,0,0,0-.867.867V80.656a.868.868,0,0,0,.867.868H83.638a.868.868,0,0,0,.868-.868V10.53A.868.868,0,0,0,83.638,9.663Zm-.867,70.126H49.856V75.646H82.771Zm0-5.879H49.856V11.4H82.771Z" transform="translate(8.354 1.631)"/>
  </g>
</svg>
