<svg xmlns="http://www.w3.org/2000/svg" width="48.799" height="49.172" viewBox="0 0 48.799 49.172">
  <defs>
    <style>
      .cls-1 {
        fill: #f7f7f7;
      }

      .cls-2 {
        fill: #fec42d;
      }
    </style>
  </defs>
  <g id="ic_ganados_en_el_mes" transform="translate(-832 -457)">
    <g id="Grupo_8171" data-name="Grupo 8171" transform="translate(0 -1)">
      <g id="Grupo_8165" data-name="Grupo 8165" transform="translate(832 458)">
        <path id="Trazado_8114" data-name="Trazado 8114" class="cls-1" d="M1044.862,485.629a13.418,13.418,0,1,1,13.419-13.418A13.433,13.433,0,0,1,1044.862,485.629Zm0-25.314a11.9,11.9,0,1,0,11.9,11.9A11.91,11.91,0,0,0,1044.862,460.315Z" transform="translate(-1020.649 -447.625)"/>
        <path id="Trazado_8115" data-name="Trazado 8115" class="cls-1" d="M1038.353,485.82a20.119,20.119,0,1,1,20.12-20.119A20.142,20.142,0,0,1,1038.353,485.82Zm0-38.715a18.6,18.6,0,1,0,18.6,18.6A18.618,18.618,0,0,0,1038.353,447.1Z" transform="translate(-1014.14 -441.116)"/>
        <path id="Trazado_8116" data-name="Trazado 8116" class="cls-1" d="M1015.734,451.453a.761.761,0,0,1-.641-1.17,25.951,25.951,0,0,1,7.842-7.842.761.761,0,0,1,.819,1.282,24.428,24.428,0,0,0-7.38,7.38A.759.759,0,0,1,1015.734,451.453Z" transform="translate(-1012.533 -439.508)"/>
        <path id="Trazado_8117" data-name="Trazado 8117" class="cls-1" d="M1091.187,451.454a.759.759,0,0,1-.641-.351,24.44,24.44,0,0,0-7.38-7.38.761.761,0,1,1,.819-1.282,25.956,25.956,0,0,1,7.842,7.842.761.761,0,0,1-.641,1.17Z" transform="translate(-1045.961 -439.509)"/>
        <path id="Trazado_8118" data-name="Trazado 8118" class="cls-1" d="M1083.576,519.295a.761.761,0,0,1-.41-1.4,24.45,24.45,0,0,0,7.38-7.379.761.761,0,1,1,1.282.819,25.956,25.956,0,0,1-7.842,7.842A.755.755,0,0,1,1083.576,519.295Z" transform="translate(-1045.961 -472.937)"/>
        <path id="Trazado_8119" data-name="Trazado 8119" class="cls-1" d="M1023.345,519.294a.755.755,0,0,1-.409-.12,25.961,25.961,0,0,1-7.842-7.842.761.761,0,1,1,1.282-.819,24.438,24.438,0,0,0,7.38,7.379.761.761,0,0,1-.41,1.4Z" transform="translate(-1012.533 -472.936)"/>
        <path id="Trazado_8120" data-name="Trazado 8120" class="cls-1" d="M1021.719,485.266h-10.795a.761.761,0,1,1,0-1.522h10.795a.761.761,0,1,1,0,1.522Z" transform="translate(-1010.163 -459.919)"/>
        <path id="Trazado_8121" data-name="Trazado 8121" class="cls-1" d="M1057.157,449.467a.761.761,0,0,1-.761-.761V437.538a.761.761,0,1,1,1.522,0v11.168A.761.761,0,0,1,1057.157,449.467Z" transform="translate(-1032.944 -436.777)"/>
        <path id="Trazado_8122" data-name="Trazado 8122" class="cls-1" d="M1093.278,485.266h-11.167a.761.761,0,0,1,0-1.522h11.167a.761.761,0,0,1,0,1.522Z" transform="translate(-1045.24 -459.919)"/>
        <path id="Trazado_8123" data-name="Trazado 8123" class="cls-1" d="M1057.157,521.386a.761.761,0,0,1-.761-.761V509.457a.761.761,0,1,1,1.522,0v11.168A.761.761,0,0,1,1057.157,521.386Z" transform="translate(-1032.944 -472.214)"/>
      </g>
    </g>
    <circle id="Elipse_49" data-name="Elipse 49" class="cls-2" cx="5.5" cy="5.5" r="5.5" transform="translate(851 476)"/>
  </g>
</svg>
