<svg xmlns="http://www.w3.org/2000/svg" width="98.77" height="98.482" viewBox="0 0 98.77 98.482">
  <defs>
    <style>
      .cls-1 {
        fill: #161615;
      }

      .cls-2 {
        fill: #ffc42c;
      }

      .cls-3 {
        fill: #f40000;
      }

      .cls-4 {
        fill: #fff;
      }
    </style>
  </defs>
  <g id="ic_mecanica_2" transform="translate(0.035 -108.323)">
    <path id="Trazado_7642" data-name="Trazado 7642" class="cls-1" d="M21.745,152.17a.933.933,0,0,0-.065-.339l0-.014a.931.931,0,0,0-.507-.507l-.014,0a.934.934,0,0,0-.339-.065H14.647a.93.93,0,1,0,0,1.86H18.57L.238,171.434a.93.93,0,0,0,1.316,1.315l18.332-18.332v3.922a.93.93,0,1,0,1.86,0V152.17Z" transform="translate(0 7.061)"/>
    <path id="Trazado_7643" data-name="Trazado 7643" class="cls-2" d="M90.463,110.184H45.517a.93.93,0,1,1,0-1.861H90.463a.93.93,0,0,1,0,1.861Z" transform="translate(7.342 0)"/>
    <path id="Trazado_7644" data-name="Trazado 7644" class="cls-3" d="M63.537,122.126H34.7a.93.93,0,0,1,0-1.861H63.537a.93.93,0,1,1,0,1.861Z" transform="translate(5.562 1.965)"/>
    <g id="Grupo_8056" data-name="Grupo 8056" transform="translate(16.622 134.556)">
      <path id="Trazado_7645" data-name="Trazado 7645" class="cls-2" d="M29.977,201.9a4.935,4.935,0,0,1-4.935-4.934v-55.6H15.172v-4.68a4.934,4.934,0,0,1,4.933-4.935H70.481a4.934,4.934,0,0,1,4.934,4.935v55.6h9.869v4.68a4.933,4.933,0,0,1-4.932,4.934Z" transform="translate(-14.12 -130.701)"/>
      <path id="Trazado_7646" data-name="Trazado 7646" class="cls-4" d="M16.372,141.517v-4.68a3.883,3.883,0,1,1,7.766,0v60.276a5.987,5.987,0,0,0,11.974,0v-4.68a1.052,1.052,0,0,1-1.053,1.052H47.54v-2.1H35.059a1.053,1.053,0,0,0-1.052,1.052v4.68a3.883,3.883,0,0,1-7.766,0V136.837a5.986,5.986,0,1,0-11.973,0v4.68Z" transform="translate(-14.269 -130.85)"/>
    </g>
    <g id="Grupo_8057" data-name="Grupo 8057" transform="translate(33.223 142.187)">
      <path id="Trazado_7647" data-name="Trazado 7647" class="cls-3" d="M38.375,137.711l-5.962,5.962a1.051,1.051,0,0,1,1.487,0l-3.58-3.58h0a1.052,1.052,0,0,0-1.487,1.487h0l3.58,3.58a1.053,1.053,0,0,0,1.487,0l5.962-5.962h0a1.052,1.052,0,0,0-1.487-1.487Z" transform="translate(-28.524 -137.402)"/>
      <path id="Trazado_7648" data-name="Trazado 7648" class="cls-3" d="M38.375,150.875l-5.962,5.962a1.051,1.051,0,0,1,1.487,0l-3.58-3.579h0a1.052,1.052,0,1,0-1.487,1.487h0l3.58,3.579a1.051,1.051,0,0,0,1.487,0l5.962-5.962h0a1.052,1.052,0,1,0-1.487-1.487Z" transform="translate(-28.524 -135.236)"/>
      <path id="Trazado_7649" data-name="Trazado 7649" class="cls-3" d="M38.375,163.695l-5.962,5.962a1.051,1.051,0,0,1,1.487,0l-3.58-3.579h0a1.052,1.052,0,1,0-1.487,1.487h0l3.58,3.579a1.051,1.051,0,0,0,1.487,0l5.962-5.962h0a1.052,1.052,0,1,0-1.487-1.487Z" transform="translate(-28.524 -133.127)"/>
      <rect id="Rectángulo_2342" data-name="Rectángulo 2342" class="cls-4" width="17.178" height="2.103" transform="translate(18.89 0)"/>
      <rect id="Rectángulo_2343" data-name="Rectángulo 2343" class="cls-4" width="10.166" height="2.103" transform="translate(18.89 5.76)"/>
    </g>
    <rect id="Rectángulo_2344" data-name="Rectángulo 2344" class="cls-4" width="34.82" height="25.793" transform="translate(52.001 179.961)"/>
    <path id="Trazado_7650" data-name="Trazado 7650" class="cls-1" d="M80.572,170.31H73.034a3.883,3.883,0,0,0-3.441-5.693c-.048,0-.093.013-.141.014,0-.048.013-.093.013-.141a3.884,3.884,0,0,0-6.743-2.643,3.885,3.885,0,0,0-6.744,2.643c0,.048.012.093.014.141-.048,0-.093-.014-.141-.014a3.87,3.87,0,0,0-3.442,5.693H44.871a1.051,1.051,0,0,0-1.052,1.052v9.163a1.042,1.042,0,0,0,.967,1.034v15.6a1.051,1.051,0,0,0,1.052,1.052H79.605a1.051,1.051,0,0,0,1.052-1.052v-15.6a1.042,1.042,0,0,0,.967-1.034v-9.163A1.051,1.051,0,0,0,80.572,170.31Zm-1.052,9.163H63.773v-7.059H79.52Zm-17.851-7.059v7.059H45.922v-7.059H61.669Zm-14.78,9.163h14.78V196.1H46.889Zm16.885,0h14.78V196.1H63.773Zm7.087-14.33a1.795,1.795,0,0,1-1.268,3.064H65.26l.384-.384.456-.458,1.4-1.4.108-.107.713-.714a1.8,1.8,0,0,1,2.538,0Zm-5.293-4.55a1.794,1.794,0,0,1,1.268,3.063h0l-3.063,3.064V164.49A1.8,1.8,0,0,1,65.568,162.7Zm-5.693,0a1.8,1.8,0,0,1,1.795,1.793v4.333l-3.062-3.063a1.794,1.794,0,0,1,1.267-3.064Zm-5.294,7.087a1.794,1.794,0,0,1,2.538-2.538l1.127,1.127.411.41c.284.285.588.589.892.892l.634.635H55.85A1.788,1.788,0,0,1,54.58,169.784Z" transform="translate(7.215 8.6)"/>
  </g>
</svg>
