<svg xmlns="http://www.w3.org/2000/svg" width="90.835" height="98.577" viewBox="0 0 90.835 98.577">
  <defs>
    <style>
      .cls-1 {
        fill: #f40000;
      }

      .cls-2 {
        fill: #ffc42c;
      }

      .cls-3 {
        fill: #161615;
      }
    </style>
  </defs>
  <g id="ic_niveles" transform="translate(-3.388 -0.053)">
    <g id="Grupo_8059" data-name="Grupo 8059" transform="translate(20.114 6.621)">
      <path id="Trazado_7651" data-name="Trazado 7651" class="cls-1" d="M22.83,39.912A29.169,29.169,0,1,1,52,69.081,28.977,28.977,0,0,1,22.83,39.912ZM52,74.113a34.2,34.2,0,1,0-34.2-34.2A34.239,34.239,0,0,0,52,74.113Z" transform="translate(-17.799 -5.712)"/>
      <path id="Trazado_7652" data-name="Trazado 7652" class="cls-2" d="M31.632,38.5A18.952,18.952,0,1,1,50.585,57.45,18.975,18.975,0,0,1,31.632,38.5ZM50.585,62.481A23.984,23.984,0,1,0,26.6,38.5,24.011,24.011,0,0,0,50.585,62.481Z" transform="translate(-16.385 -4.298)"/>
      <path id="Trazado_7653" data-name="Trazado 7653" class="cls-1" d="M40.844,37.018a8.26,8.26,0,1,1,8.26,8.26A8.27,8.27,0,0,1,40.844,37.018ZM49.1,50.31A13.292,13.292,0,1,0,35.813,37.018,13.306,13.306,0,0,0,49.1,50.31Z" transform="translate(-14.905 -2.818)"/>
      <path id="Trazado_7654" data-name="Trazado 7654" class="cls-2" d="M44.158,35.677a3.606,3.606,0,1,1,3.606,3.606A3.606,3.606,0,0,1,44.158,35.677Z" transform="translate(-13.564 -1.477)"/>
    </g>
    <path id="Trazado_7655" data-name="Trazado 7655" class="cls-3" d="M55.514,85.655l1.931-1.931-7.578-7.577v-3.66l5.647,5.647L57.445,76.2l-7.578-7.577V35.367a1.366,1.366,0,1,0-2.731,0V68.626L39.562,76.2l1.93,1.931,5.644-5.645v3.658l-7.574,7.577,1.93,1.931,5.644-5.645v3.66l-7.574,7.577,1.93,1.931,5.65-5.651a1.36,1.36,0,0,0,2.719,0l5.652,5.652,1.931-1.931-7.578-7.577v-3.66Z" transform="translate(5.811 5.454)"/>
    <g id="Grupo_8060" data-name="Grupo 8060" transform="translate(17.2 0.054)">
      <rect id="Rectángulo_2345" data-name="Rectángulo 2345" class="cls-2" width="4.141" height="2.731" transform="translate(8.994 5.202)"/>
      <rect id="Rectángulo_2346" data-name="Rectángulo 2346" class="cls-2" width="2.731" height="4.141" transform="translate(5.202)"/>
      <rect id="Rectángulo_2347" data-name="Rectángulo 2347" class="cls-2" width="4.141" height="2.731" transform="translate(0 5.202)"/>
      <rect id="Rectángulo_2348" data-name="Rectángulo 2348" class="cls-2" width="2.731" height="4.141" transform="translate(5.202 8.994)"/>
    </g>
    <g id="Grupo_8061" data-name="Grupo 8061" transform="translate(81.088 67.111)">
      <rect id="Rectángulo_2349" data-name="Rectángulo 2349" class="cls-1" width="4.141" height="2.731" transform="translate(8.994 5.202)"/>
      <rect id="Rectángulo_2350" data-name="Rectángulo 2350" class="cls-1" width="2.731" height="4.141" transform="translate(5.202)"/>
      <rect id="Rectángulo_2351" data-name="Rectángulo 2351" class="cls-1" width="4.141" height="2.731" transform="translate(0 5.202)"/>
      <rect id="Rectángulo_2352" data-name="Rectángulo 2352" class="cls-1" width="2.731" height="4.141" transform="translate(5.202 8.994)"/>
    </g>
    <path id="Trazado_7656" data-name="Trazado 7656" class="cls-1" d="M4.427,71.372A1.038,1.038,0,0,1,3.693,69.6l5.493-5.493L3.693,58.612a1.037,1.037,0,0,1,0-1.468L9.187,51.65,3.693,46.155a1.037,1.037,0,0,1,0-1.468l5.493-5.493L3.693,33.7a1.035,1.035,0,0,1,0-1.467l5.493-5.495L3.693,21.244a1.037,1.037,0,0,1,0-1.468l6.228-6.228a1.038,1.038,0,1,1,1.467,1.468L5.895,20.51,11.388,26a1.037,1.037,0,0,1,0,1.467L5.895,32.966l5.493,5.495a1.037,1.037,0,0,1,0,1.467L5.895,45.422l5.493,5.493a1.039,1.039,0,0,1,0,1.468L5.895,57.878l5.493,5.493a1.039,1.039,0,0,1,0,1.468L5.16,71.068A1.035,1.035,0,0,1,4.427,71.372Z" transform="translate(0 2.119)"/>
  </g>
</svg>
