<svg xmlns="http://www.w3.org/2000/svg" width="57.118" height="57.239" viewBox="0 0 57.118 57.239">
  <defs>
    <style>
      .cls-1 {
        fill: #fff;
      }

      .cls-2, .cls-4 {
        fill: none;
      }

      .cls-2 {
        stroke: #fec42d;
        stroke-width: 1.5px;
      }

      .cls-3 {
        stroke: none;
      }
    </style>
  </defs>
  <g id="ic_puntos_disponibles" transform="translate(-1238 -453.925)">
    <g id="Coin" transform="translate(692.741 59.703)">
      <path id="Trazado_8130" data-name="Trazado 8130" class="cls-1" d="M573.819,394.222a.751.751,0,0,0-.751.751v3.944a.751.751,0,1,0,1.5,0v-3.944A.751.751,0,0,0,573.819,394.222Zm19.131,8.365-2.789,2.789a.751.751,0,1,0,1.062,1.062l2.789-2.789a.751.751,0,1,0-1.062-1.062Zm8.677,19.444h-3.944a.751.751,0,0,0,0,1.5h3.944a.751.751,0,0,0,0-1.5Zm-10.4,17.094a.751.751,0,1,0-1.062,1.062l2.789,2.789a.751.751,0,0,0,1.062-1.062Zm-34.81,0-2.789,2.788a.751.751,0,0,0,1.062,1.062l2.789-2.789a.751.751,0,1,0-1.062-1.062ZM550.7,422.782a.751.751,0,0,0-.751-.751H546.01a.751.751,0,1,0,0,1.5h3.944A.751.751,0,0,0,550.7,422.782Zm3.981-20.195a.751.751,0,0,0-1.062,1.062l2.789,2.789a.751.751,0,1,0,1.062-1.062Zm9.185-5.784a.751.751,0,1,0-1.387.575l1.509,3.644a.751.751,0,0,0,1.388-.575Zm18.792,4.625a.751.751,0,0,0,.981-.406l1.509-3.645a.751.751,0,1,0-1.387-.574l-1.509,3.644A.751.751,0,0,0,582.663,401.427Zm13.491,12.915,3.643-1.509a.751.751,0,0,0-.575-1.388l-3.644,1.509a.751.751,0,0,0,.575,1.387Zm3.643,18.386-3.644-1.509a.751.751,0,0,0-.575,1.388l3.644,1.509a.751.751,0,1,0,.575-1.387Zm-16.152,11.812a.751.751,0,0,0-1.388.575l1.51,3.644a.751.751,0,1,0,1.387-.575Zm-18.672-.406a.751.751,0,0,0-.981.406l-1.509,3.644a.751.751,0,0,0,1.388.575l1.509-3.644A.751.751,0,0,0,564.973,444.134Zm-13.49-12.915-3.644,1.51a.751.751,0,0,0,.575,1.387l3.644-1.509a.751.751,0,0,0-.575-1.388Zm-3.644-18.387,3.644,1.509a.751.751,0,1,0,.575-1.387l-3.644-1.51a.751.751,0,0,0-.575,1.388Z"/>
      <path id="Trazado_8131" data-name="Trazado 8131" class="cls-1" d="M596.621,417.9a19.575,19.575,0,1,0,5.734,13.843A19.448,19.448,0,0,0,596.621,417.9Zm-13.841,31.915a18.073,18.073,0,1,1,18.073-18.073A18.094,18.094,0,0,1,582.779,449.816Z" transform="translate(-8.961 -8.961)"/>
      <path id="Trazado_8139" data-name="Trazado 8139" class="cls-1" d="M563.992,444.541l-1.509,3.644a.751.751,0,0,0,1.388.575l1.509-3.644C565.538,444.732,564.15,444.158,563.992,444.541Z" transform="translate(-108.633 221.69) rotate(-20)"/>
    </g>
    <circle id="Elipse_42" data-name="Elipse 42" class="cls-1" cx="4.5" cy="4.5" r="4.5" transform="translate(1262 478)"/>
    <g id="Elipse_41" data-name="Elipse 41" class="cls-2" transform="translate(1255 471)">
      <circle class="cls-3" cx="11.5" cy="11.5" r="11.5"/>
      <circle class="cls-4" cx="11.5" cy="11.5" r="10.75"/>
    </g>
  </g>
</svg>
