<svg xmlns="http://www.w3.org/2000/svg" width="103.316" height="98.146" viewBox="0 0 103.316 98.146">
  <g id="ic_portafolio_prioritario" transform="translate(-0.091 -8.07)">
    <g id="Grupo_8075" data-name="Grupo 8075" transform="translate(53.575 49.858)">
      <path id="Trazado_7755" data-name="Trazado 7755" d="M41.148,38.791H39.358V40.06l-4.435,4.714a6.837,6.837,0,0,0-1.862,4.7V63.32a2.076,2.076,0,0,0,.4,1.228l.868,1.191a.3.3,0,0,1,0,.35l-.584.8a2.079,2.079,0,0,0,0,2.456l.584.8a.3.3,0,0,1,0,.352l-.584.8a2.081,2.081,0,0,0,0,2.458l.584.8a.3.3,0,0,1,0,.35l-.584.8a2.079,2.079,0,0,0,0,2.456l.584.8a.3.3,0,0,1,0,.35l-.868,1.191a2.073,2.073,0,0,0-.4,1.228v2.675A2.686,2.686,0,0,0,35.744,87.1H51.366a2.686,2.686,0,0,0,2.683-2.683V81.744a2.073,2.073,0,0,0-.4-1.228l-.866-1.191a.292.292,0,0,1,0-.35l.584-.8a2.084,2.084,0,0,0,0-2.456l-.584-.8a.292.292,0,0,1,0-.35l.584-.8a2.086,2.086,0,0,0,0-2.458l-.584-.8a.294.294,0,0,1,0-.352l.584-.8a2.084,2.084,0,0,0,0-2.456l-.584-.8a.292.292,0,0,1,0-.35l.866-1.191a2.076,2.076,0,0,0,.4-1.228V49.473a6.836,6.836,0,0,0-1.862-4.7L47.752,40.06V38.791h-6.6Z" transform="translate(-33.061 -30.743)" fill="#ffd044"/>
      <path id="Trazado_7756" data-name="Trazado 7756" d="M47.573,36.513A2.686,2.686,0,0,0,44.89,33.83H38.628a2.686,2.686,0,0,0-2.681,2.683v4.172H47.573Z" transform="translate(-31.265 -33.83)" fill="#ffd044"/>
      <path id="Trazado_7757" data-name="Trazado 7757" d="M45.648,55.018H37a.6.6,0,0,0,0,1.192h8.646a.6.6,0,0,0,0-1.192Z" transform="translate(-30.98 -20.647)" fill="#ffd15b"/>
      <path id="Trazado_7758" data-name="Trazado 7758" d="M45.648,57.775H37a.6.6,0,0,0,0,1.192h8.646a.6.6,0,0,0,0-1.192Z" transform="translate(-30.98 -18.931)" fill="#ffd15b"/>
      <path id="Trazado_7759" data-name="Trazado 7759" d="M45.648,60.531H37a.6.6,0,0,0,0,1.194h8.646a.6.6,0,0,0,0-1.194Z" transform="translate(-30.98 -17.217)" fill="#ffd15b"/>
      <path id="Trazado_7760" data-name="Trazado 7760" d="M45.648,63.288H37a.6.6,0,0,0,0,1.192h8.646a.6.6,0,0,0,0-1.192Z" transform="translate(-30.98 -15.501)" fill="#ffd15b"/>
    </g>
    <path id="Trazado_7761" data-name="Trazado 7761" d="M52.548,80.6a1.048,1.048,0,0,1-.741-1.789l5.548-5.548-5.548-5.548a1.05,1.05,0,0,1,0-1.483l5.548-5.548-5.548-5.548a1.05,1.05,0,0,1,0-1.483L57.355,48.1l-5.548-5.548a1.05,1.05,0,0,1,0-1.483l5.548-5.548-5.548-5.55a1.048,1.048,0,0,1,0-1.481L58.1,22.2a1.048,1.048,0,0,1,1.483,1.481l-5.548,5.55,5.548,5.548a1.048,1.048,0,0,1,0,1.481l-5.548,5.55,5.548,5.548a1.05,1.05,0,0,1,0,1.483l-5.548,5.548,5.548,5.548a1.05,1.05,0,0,1,0,1.483l-5.548,5.548,5.548,5.548a1.05,1.05,0,0,1,0,1.483l-6.289,6.289A1.047,1.047,0,0,1,52.548,80.6Z" transform="translate(31.987 8.602)" fill="#f40000"/>
    <path id="Trazado_7762" data-name="Trazado 7762" d="M59.658,66.769a1.048,1.048,0,0,1-.741-1.789l5.55-5.548-5.55-5.548a1.05,1.05,0,0,1,0-1.483l5.55-5.548-5.55-5.548a1.05,1.05,0,0,1,0-1.483l5.55-5.548-5.55-5.548a1.05,1.05,0,0,1,0-1.483l5.55-5.548-5.55-5.548a1.05,1.05,0,0,1,0-1.483l6.291-6.289a1.048,1.048,0,0,1,1.481,1.483l-5.548,5.548,5.548,5.548a1.047,1.047,0,0,1,0,1.483l-5.548,5.548,5.548,5.548a1.047,1.047,0,0,1,0,1.483l-5.548,5.548,5.548,5.548a1.047,1.047,0,0,1,0,1.483l-5.548,5.548,5.548,5.548a1.047,1.047,0,0,1,0,1.483L60.4,66.463A1.044,1.044,0,0,1,59.658,66.769Z" transform="translate(36.411)" fill="#ffd044"/>
    <g id="Grupo_8076" data-name="Grupo 8076" transform="translate(19.217 27.277)">
      <path id="Trazado_7763" data-name="Trazado 7763" d="M30.257,23.747A3.841,3.841,0,0,0,26.42,19.91H19.056a3.841,3.841,0,0,0-3.837,3.837v3.838H30.257ZM27.78,25.108H17.694V23.747a1.364,1.364,0,0,1,1.361-1.361H26.42a1.362,1.362,0,0,1,1.359,1.361Z" transform="translate(-9.804 -19.91)" fill="#111416"/>
      <path id="Trazado_7764" data-name="Trazado 7764" d="M37.747,66.413V55.133a14.169,14.169,0,0,0-1.08-5.442l-3.27-7.9a24.727,24.727,0,0,1-1.7-6.5l-1.16-9.626H28.038l.428,3.556h-7.3l.428-3.556H19.1l-1.16,9.626a24.71,24.71,0,0,1-1.7,6.5l-3.27,7.9a14.176,14.176,0,0,0-1.082,5.442V66.413a14.269,14.269,0,0,0,1.791,6.912,8.32,8.32,0,0,1,.206,7.686l-.555,1.139a14.313,14.313,0,0,0-1.442,6.239v.423a6.444,6.444,0,0,0,6.437,6.437H31.312a6.443,6.443,0,0,0,6.435-6.437v-.423a14.311,14.311,0,0,0-1.441-6.239l-.555-1.139a8.33,8.33,0,0,1,.2-7.686A14.251,14.251,0,0,0,37.747,66.413Zm-22.5-15.776,3.27-7.9A27.287,27.287,0,0,0,20.4,35.581l.568-4.716h7.7l.568,4.716a27.241,27.241,0,0,0,1.874,7.152l3.27,7.9c.118.284.221.571.316.861H14.937C15.031,51.209,15.134,50.922,15.252,50.637Zm18.54,21.486a10.8,10.8,0,0,0-.266,9.975l.555,1.137a11.824,11.824,0,0,1,1.191,5.154v.423a3.964,3.964,0,0,1-3.96,3.96H18.318a3.964,3.964,0,0,1-3.96-3.96v-.423a11.824,11.824,0,0,1,1.191-5.154L16.1,82.1a10.8,10.8,0,0,0-.266-9.975,11.814,11.814,0,0,1-1.129-2.876H34.921A11.814,11.814,0,0,1,33.792,72.123Zm1.479-5.71a11.537,11.537,0,0,1-.067,1.184H14.423c-.039-.393-.065-.788-.065-1.184V55.133a11.863,11.863,0,0,1,.17-1.982H35.1a11.863,11.863,0,0,1,.17,1.982Z" transform="translate(-11.881 -16.334)" fill="#111416"/>
    </g>
    <path id="Trazado_7765" data-name="Trazado 7765" d="M11.341,26.394,4.388,30.05l1.328-7.742L.091,16.824l7.774-1.13L11.341,8.65l3.476,7.044,7.774,1.13-5.625,5.484,1.328,7.742Z" transform="translate(0 0.361)" fill="#f40000"/>
  </g>
</svg>
