<svg xmlns="http://www.w3.org/2000/svg" width="60.1" height="49.831" viewBox="0 0 60.1 49.831">
  <defs>
    <style>
      .cls-1, .cls-4, .cls-6 {
        fill: none;
      }

      .cls-1 {
        stroke: #fff;
      }

      .cls-1, .cls-4 {
        stroke-width: 1.5px;
      }

      .cls-2 {
        fill: #f7f7f7;
      }

      .cls-3 {
        fill: #fff;
      }

      .cls-4 {
        stroke: #fec42d;
      }

      .cls-5 {
        stroke: none;
      }
    </style>
  </defs>
  <g id="ic_puntos_canjeados" transform="translate(-1027.478 -457.973)">
    <g id="Grupo_8167" data-name="Grupo 8167" transform="translate(1057.039 481.912)">
      <path id="Trazado_8124" data-name="Trazado 8124" class="cls-1" d="M181.132,345.991A12.57,12.57,0,1,1,193.7,358.563,12.57,12.57,0,0,1,181.132,345.991Z" transform="translate(-181.132 -333.421)"/>
    </g>
    <g id="Grupo_8168" data-name="Grupo 8168" transform="translate(1027.478 457.973)">
      <path id="Trazado_8126" data-name="Trazado 8126" class="cls-2" d="M154.2,319.127a.678.678,0,0,1-.679-.679v-12.7c-.028-.287-.925-1.073-1.579-1.647-1.914-1.678-4.755-4.168-5.053-8.1H142.65a.679.679,0,1,1,0-1.357h4.895a.678.678,0,0,1,.679.679c0,3.714,2.668,6.052,4.616,7.76,1.185,1.039,2.042,1.789,2.042,2.667v11.952c1.535-.252,4.409-1.325,4.409-4.61,0-.066.01-9.236.01-9.236,0-2.3.869-5.122,2.812-6.239.936-.538,2.523-.907,4.767.4,5.222,3.038,11.741,7.258,15.635,9.779.775.5,1.455.942,2.013,1.3a3.286,3.286,0,0,0,4.025.08l-17.958-17.958c-2.815-2.815-10.536-9.364-21.386-9.364H142.65a.679.679,0,1,1,0-1.357h6.559c11.358,0,19.41,6.826,22.346,9.761l18.472,18.471a.678.678,0,0,1,0,.959,4.626,4.626,0,0,1-6.231.549c-.559-.36-1.24-.8-2.017-1.3-3.884-2.515-10.386-6.723-15.58-9.745-1.351-.785-2.5-.919-3.408-.4-1.465.843-2.132,3.215-2.132,5.063,0,0-.01,9.168-.01,9.235C160.647,317.652,156.3,319.127,154.2,319.127Z" transform="translate(-130.124 -280.5)"/>
      <path id="Trazado_8127" data-name="Trazado 8127" class="cls-2" d="M128.307,296H116.461a.679.679,0,1,1,0-1.357h11.168v-12.79H116.461a.679.679,0,0,1,0-1.357h11.847a.678.678,0,0,1,.679.679v14.148A.678.678,0,0,1,128.307,296Z" transform="translate(-115.782 -280.5)"/>
      <path id="Trazado_8128" data-name="Trazado 8128" class="cls-2" d="M136.157,305.271a.692.692,0,1,1-.691.693A.691.691,0,0,1,136.157,305.271Z" transform="translate(-126.562 -294.066)"/>
    </g>
    <circle id="Elipse_39" data-name="Elipse 39" class="cls-3" cx="3.5" cy="3.5" r="3.5" transform="translate(1066 491)"/>
    <g id="Elipse_40" data-name="Elipse 40" class="cls-4" transform="translate(1061 486)">
      <circle class="cls-5" cx="8.5" cy="8.5" r="8.5"/>
      <circle class="cls-6" cx="8.5" cy="8.5" r="7.75"/>
    </g>
  </g>
</svg>
