<svg xmlns="http://www.w3.org/2000/svg" width="48.456" height="48.455" viewBox="0 0 48.456 48.455">
  <defs>
    <style>
      .cls-1 {
        fill: #fff;
      }

      .cls-2 {
        fill: #fec42d;
      }
    </style>
  </defs>
  <g id="ic_saldo_anterior" transform="translate(-627 -457)">
    <g id="Grupo_8178" data-name="Grupo 8178" transform="translate(0 -2)">
      <g id="Grupo_8177" data-name="Grupo 8177" transform="translate(-300.841 127.462)">
        <path id="Trazado_8134" data-name="Trazado 8134" class="cls-1" d="M952.07,379.993A24.228,24.228,0,1,1,976.3,355.766,24.255,24.255,0,0,1,952.07,379.993Zm0-46.7a22.476,22.476,0,1,0,22.476,22.477A22.5,22.5,0,0,0,952.07,333.289Z" transform="translate(0)"/>
        <g id="Grupo_8176" data-name="Grupo 8176" transform="translate(933.681 337.376)">
          <path id="Trazado_8135" data-name="Trazado 8135" class="cls-1" d="M953.231,376.205a18.437,18.437,0,0,1-1.853-.184l.262-1.732a16.7,16.7,0,0,0,1.675.167Zm1.861,0L955,374.454a16.53,16.53,0,0,0,1.676-.17l.265,1.731A18.523,18.523,0,0,1,955.091,376.2Zm-5.537-.553a18.468,18.468,0,0,1-1.778-.555l.606-1.643a16.664,16.664,0,0,0,1.607.5Zm9.213-.01-.439-1.7a16.612,16.612,0,0,0,1.606-.5l.61,1.641A18.2,18.2,0,0,1,958.767,375.641Zm-12.7-1.279a18.408,18.408,0,0,1-1.628-.9l.926-1.486a16.65,16.65,0,0,0,1.472.816Zm16.191-.016-.774-1.571a16.683,16.683,0,0,0,1.472-.819l.929,1.484A18.441,18.441,0,0,1,962.254,374.345ZM942.906,372.4c-.489-.378-.964-.785-1.414-1.211l1.2-1.272c.407.386.838.755,1.28,1.1Zm22.5-.023-1.073-1.383c.442-.343.872-.714,1.277-1.1l1.207,1.269A18.557,18.557,0,0,1,965.406,372.373Zm-25.2-2.536c-.4-.469-.787-.962-1.143-1.469l1.435-1a16.634,16.634,0,0,0,1.035,1.33Zm27.893-.027-1.329-1.141c.365-.425.712-.873,1.032-1.332l1.436,1A18.45,18.45,0,0,1,968.1,369.81Zm-30.024-3.019a18.1,18.1,0,0,1-.824-1.669l1.607-.694a16.749,16.749,0,0,0,.746,1.509Zm32.149-.032-1.531-.851a16.689,16.689,0,0,0,.742-1.512l1.609.691A18.118,18.118,0,0,1,970.226,366.759ZM936.6,363.376c-.185-.59-.343-1.2-.469-1.8l1.715-.355a16.712,16.712,0,0,0,.424,1.63Zm35.093-.036-1.672-.524a16.329,16.329,0,0,0,.421-1.63l1.717.351A18.5,18.5,0,0,1,971.694,363.34Zm-35.845-3.607c-.062-.613-.1-1.238-.1-1.858l1.751,0c0,.562.031,1.128.088,1.683Zm36.59-.038-1.743-.175a16.805,16.805,0,0,0,.084-1.683v-.066l1.751-.014v.08C972.532,358.457,972.5,359.082,972.439,359.7Zm-34.854-3.507-1.743-.171a18.333,18.333,0,0,1,.276-1.841l1.716.348C937.723,355.07,937.64,355.63,937.584,356.188Zm33.105-.1a16.781,16.781,0,0,0-.26-1.663l1.714-.358a18.458,18.458,0,0,1,.287,1.839Zm-32.438-3.194-1.672-.52a18.271,18.271,0,0,1,.644-1.748l1.61.687A16.6,16.6,0,0,0,938.251,352.892Zm31.75-.1a16.665,16.665,0,0,0-.59-1.576l1.606-.7a18.488,18.488,0,0,1,.654,1.744Zm-30.43-3-1.532-.848a18.477,18.477,0,0,1,.982-1.581l1.439,1C940.141,348.828,939.842,349.309,939.572,349.8Zm29.09-.089a16.557,16.557,0,0,0-.9-1.426l1.433-1.007a18.363,18.363,0,0,1,.992,1.575Zm-27.172-2.677-1.331-1.139c.4-.469.832-.924,1.28-1.352l1.21,1.266A16.806,16.806,0,0,0,941.49,347.032Zm25.236-.077a16.778,16.778,0,0,0-1.165-1.217l1.2-1.274c.45.425.883.878,1.288,1.345Zm-22.8-2.249-1.077-1.382a18.442,18.442,0,0,1,1.524-1.069l.932,1.483A16.621,16.621,0,0,0,943.924,344.707Zm20.355-.062a16.32,16.32,0,0,0-1.385-.959l.923-1.489c.526.327,1.041.683,1.531,1.06Zm-17.507-1.729-.776-1.57a18.241,18.241,0,0,1,1.709-.74l.613,1.64A16.677,16.677,0,0,0,946.773,342.916Zm14.646-.045a16.552,16.552,0,0,0-1.549-.66l.6-1.644a18.141,18.141,0,0,1,1.714.729Zm-11.5-1.132-.443-1.695a18.474,18.474,0,0,1,1.823-.379l.269,1.731A16.509,16.509,0,0,0,949.923,341.739Zm8.338-.026a16.664,16.664,0,0,0-1.651-.332l.258-1.732a18.183,18.183,0,0,1,1.826.368Zm-5.014-.49-.092-1.749c.617-.033,1.246-.035,1.86-.006l-.082,1.75C954.375,341.191,953.806,341.193,953.248,341.223Z" transform="translate(-935.753 -339.448)"/>
        </g>
      </g>
    </g>
    <circle id="Elipse_48" data-name="Elipse 48" class="cls-2" cx="7.5" cy="7.5" r="7.5" transform="translate(644 474)"/>
  </g>
</svg>
