<svg xmlns="http://www.w3.org/2000/svg" width="50" height="50" viewBox="0 0 50 50">
  <defs>
    <style>
      .cls-1 {
        fill: #f40000;
      }

      .cls-2 {
        fill: #fff;
        stroke: #fff;
        stroke-width: 0.5px;
      }
    </style>
  </defs>
  <g id="ic_ver_catalogo_rojo" transform="translate(0 -0.389)">
    <circle id="Elipse_34" data-name="Elipse 34" class="cls-1" cx="25" cy="25" r="25" transform="translate(0 0.389)"/>
    <g id="Grupo_8099" data-name="Grupo 8099" transform="translate(10.823 16.062)">
      <path id="Trazado_7821" data-name="Trazado 7821" class="cls-2" d="M427.811,700.029c.17-.214.317-.4.45-.561v0a.494.494,0,0,0,.041-.062.162.162,0,0,0,.013-.021.435.435,0,0,0,.024-.058c0-.011.01-.021.012-.032s0-.024.007-.036.009-.038.011-.057a.512.512,0,0,0-.015-.173c0-.005,0-.01,0-.015a.286.286,0,0,0-.015-.036.438.438,0,0,0-.022-.054c0-.008-.01-.015-.015-.023a.538.538,0,0,0-.04-.06v0c-.133-.161-.28-.347-.45-.561-1.966-2.481-6.056-7.644-14.037-7.644s-12.071,5.163-14.037,7.644c-.17.214-.317.4-.45.561v0a.577.577,0,0,0-.04.06c0,.008-.011.015-.015.023a.448.448,0,0,0-.023.054c0,.012-.011.024-.014.035s0,.014,0,.02a.5.5,0,0,0-.015.111.522.522,0,0,0,.015.135c0,.005,0,.01,0,.016s.01.025.015.037.013.036.021.052.011.016.016.024a.489.489,0,0,0,.039.058v0c.133.161.28.347.45.561,1.966,2.481,6.056,7.644,14.037,7.644S425.845,702.51,427.811,700.029Zm-14.037,6.653c-7.5,0-11.391-4.909-13.26-7.268l-.207-.261.208-.261c1.869-2.359,5.758-7.268,13.259-7.268s11.391,4.909,13.26,7.268l.208.261-.208.261C425.165,701.773,421.275,706.682,413.774,706.682Z" transform="translate(-399.176 -690.632)"/>
      <path id="Trazado_7822" data-name="Trazado 7822" class="cls-2" d="M419.04,693.274a6.448,6.448,0,1,0,6.449,6.448A6.456,6.456,0,0,0,419.04,693.274Zm0,11.987a5.539,5.539,0,1,1,5.539-5.539A5.545,5.545,0,0,1,419.04,705.261Z" transform="translate(-404.442 -691.201)"/>
      <path id="Trazado_7823" data-name="Trazado 7823" class="cls-2" d="M422.14,699.7a3.126,3.126,0,1,0,3.126,3.126A3.129,3.129,0,0,0,422.14,699.7Zm0,5.342a2.216,2.216,0,1,1,2.217-2.216A2.219,2.219,0,0,1,422.14,705.038Z" transform="translate(-407.542 -694.301)"/>
    </g>
  </g>
</svg>
