<svg xmlns="http://www.w3.org/2000/svg" width="536" height="243.978" viewBox="0 0 536 243.978">
  <defs>
    <style>
      .cls-1 {
        fill: #f40000;
      }

      .cls-2 {
        fill: #111416;
      }

      .cls-3 {
        fill: #fdce41;
      }

      .cls-4 {
        fill: #ffd15b;
      }

      .cls-5 {
        fill: #fff;
      }
    </style>
  </defs>
  <g id="img_canje_de_productos" transform="translate(-10.788 -6.977)">
    <g id="Grupo_8082" data-name="Grupo 8082" transform="translate(485.051 56.163)">
      <g id="Grupo_8080" data-name="Grupo 8080" transform="translate(22.931 21.023)">
        <path id="Trazado_7780" data-name="Trazado 7780" class="cls-1" d="M609.992,122.66a1.784,1.784,0,0,1-1.6-1l-14.5-29.8a1.782,1.782,0,0,1,2.382-2.381l29.806,14.5a1.781,1.781,0,0,1,.48,2.862l-15.309,15.3A1.781,1.781,0,0,1,609.992,122.66ZM599.354,94.932,610.5,117.85l11.771-11.767Z" transform="translate(-593.713 -89.291)"/>
        <path id="Trazado_7781" data-name="Trazado 7781" class="cls-1" d="M634.558,131.917a1.777,1.777,0,0,1-1.261-.522L620.206,118.3a1.782,1.782,0,0,1,2.52-2.52l13.092,13.09a1.782,1.782,0,0,1-1.26,3.042Z" transform="translate(-597.533 -93.111)"/>
      </g>
      <g id="Grupo_8081" data-name="Grupo 8081">
        <path id="Trazado_7782" data-name="Trazado 7782" class="cls-2" d="M594.378,76.126a1.781,1.781,0,0,1-1.782-1.782V66.426a1.782,1.782,0,1,1,3.563,0v7.919A1.782,1.782,0,0,1,594.378,76.126Z" transform="translate(-570.619 -64.644)"/>
        <path id="Trazado_7783" data-name="Trazado 7783" class="cls-2" d="M606.031,81.353a1.782,1.782,0,0,1-1.26-3.042l5.6-5.6a1.782,1.782,0,0,1,2.52,2.52l-5.6,5.6A1.777,1.777,0,0,1,606.031,81.353Z" transform="translate(-572.332 -65.754)"/>
        <path id="Trazado_7784" data-name="Trazado 7784" class="cls-2" d="M576.53,93.973h-7.919a1.782,1.782,0,0,1,0-3.564h7.919a1.782,1.782,0,0,1,0,3.564Z" transform="translate(-566.829 -68.433)"/>
        <path id="Trazado_7785" data-name="Trazado 7785" class="cls-2" d="M576.157,111.226a1.782,1.782,0,0,1-1.26-3.042l5.6-5.6a1.782,1.782,0,1,1,2.52,2.52l-5.6,5.6A1.777,1.777,0,0,1,576.157,111.226Z" transform="translate(-567.939 -70.147)"/>
        <path id="Trazado_7786" data-name="Trazado 7786" class="cls-2" d="M594.378,118.375a1.782,1.782,0,0,1-1.782-1.782v-7.92a1.782,1.782,0,1,1,3.563,0v7.92A1.783,1.783,0,0,1,594.378,118.375Z" transform="translate(-570.619 -70.857)"/>
      </g>
    </g>
    <g id="Grupo_8083" data-name="Grupo 8083" transform="translate(325.169 71.093)">
      <rect id="Rectángulo_2396" data-name="Rectángulo 2396" class="cls-3" width="124.592" height="92.002" transform="translate(0 31.657)"/>
      <path id="Trazado_7787" data-name="Trazado 7787" class="cls-2" d="M476.648,124.927a2.386,2.386,0,0,1-2.386-2.386V114.31a27.39,27.39,0,0,0-54.78,0v8.231a2.386,2.386,0,0,1-4.772,0V114.31a32.162,32.162,0,0,1,64.324,0v8.231A2.386,2.386,0,0,1,476.648,124.927Z" transform="translate(-384.575 -82.149)"/>
      <path id="Trazado_7788" data-name="Trazado 7788" class="cls-2" d="M417.095,152.037a2.387,2.387,0,0,1-2.386-2.386v-6.234a2.386,2.386,0,1,1,4.772,0v6.234A2.387,2.387,0,0,1,417.095,152.037Z" transform="translate(-384.575 -90.809)"/>
      <path id="Trazado_7789" data-name="Trazado 7789" class="cls-2" d="M486.916,152.037a2.387,2.387,0,0,1-2.386-2.386v-6.234a2.386,2.386,0,1,1,4.772,0v6.234A2.387,2.387,0,0,1,486.916,152.037Z" transform="translate(-394.843 -90.809)"/>
    </g>
    <path id="Trazado_7790" data-name="Trazado 7790" class="cls-1" d="M186.209,55.124,172.946,62.1l2.533-14.768L164.749,36.87l14.83-2.155,6.63-13.436,6.631,13.436,14.828,2.155L196.939,47.329,199.473,62.1Z" transform="translate(-22.643 -2.104)"/>
    <path id="Trazado_7791" data-name="Trazado 7791" class="cls-3" d="M551.3,248.555l-8.418,4.427,1.608-9.375-6.812-6.639,9.412-1.368,4.21-8.529,4.211,8.529,9.413,1.368-6.81,6.639,1.608,9.375Z" transform="translate(-77.492 -32.37)"/>
    <g id="Grupo_8084" data-name="Grupo 8084" transform="translate(240.798 6.977)">
      <path id="Trazado_7792" data-name="Trazado 7792" class="cls-3" d="M299.165,18.774a2.386,2.386,0,0,1-2.386-2.386V9.363a2.386,2.386,0,1,1,4.772,0v7.025A2.386,2.386,0,0,1,299.165,18.774Z" transform="translate(-282.859 -6.977)"/>
      <path id="Trazado_7793" data-name="Trazado 7793" class="cls-3" d="M289.87,28.069h-7.025a2.386,2.386,0,0,1,0-4.773h7.025a2.386,2.386,0,0,1,0,4.773Z" transform="translate(-280.459 -9.377)"/>
      <path id="Trazado_7794" data-name="Trazado 7794" class="cls-3" d="M299.165,43.173a2.386,2.386,0,0,1-2.386-2.386V33.762a2.386,2.386,0,0,1,4.772,0v7.025A2.386,2.386,0,0,1,299.165,43.173Z" transform="translate(-282.859 -10.565)"/>
      <path id="Trazado_7795" data-name="Trazado 7795" class="cls-3" d="M314.272,28.069h-7.025a2.386,2.386,0,0,1,0-4.773h7.025a2.386,2.386,0,1,1,0,4.773Z" transform="translate(-284.048 -9.377)"/>
    </g>
    <path id="Trazado_7796" data-name="Trazado 7796" class="cls-1" d="M546.824,196.355a1.835,1.835,0,0,1-1.3-3.133l9.714-9.714-9.714-9.714a1.834,1.834,0,0,1,0-2.6l9.714-9.714-9.714-9.714a1.834,1.834,0,0,1,0-2.6l9.714-9.714-9.714-9.714a1.834,1.834,0,0,1,0-2.6l11.011-11.012a1.835,1.835,0,0,1,2.6,2.6l-9.714,9.714,9.714,9.714a1.834,1.834,0,0,1,0,2.6l-9.714,9.714,9.714,9.714a1.834,1.834,0,0,1,0,2.6l-9.714,9.714,9.714,9.714a1.834,1.834,0,0,1,0,2.6l-11.012,11.012A1.828,1.828,0,0,1,546.824,196.355Z" transform="translate(-78.566 -15.976)"/>
    <path id="Trazado_7797" data-name="Trazado 7797" class="cls-3" d="M616.107,188.233l-7.5,7.5V171.237h-8.277V195.73l-7.5-7.5-5.852,5.852,14.561,14.564,2.926,2.927,2.926-2.927,14.561-14.564Z" transform="translate(-84.743 -24.158)"/>
    <g id="Grupo_8085" data-name="Grupo 8085" transform="translate(87.696 73.579)">
      <path id="Trazado_7798" data-name="Trazado 7798" class="cls-3" d="M233.6,219.072H108.06a1.938,1.938,0,0,1-1.938-1.938v-61.67a1.938,1.938,0,0,1,1.938-1.938H233.6a1.938,1.938,0,0,1,1.938,1.938v61.67A1.938,1.938,0,0,1,233.6,219.072ZM110,215.2H231.658V157.4H110Z" transform="translate(-101.717 -95.132)"/>
      <path id="Trazado_7799" data-name="Trazado 7799" class="cls-3" d="M237.242,153.638H102.9a1.938,1.938,0,0,1-1.938-1.938V129.872a1.938,1.938,0,0,1,1.938-1.939H237.242a1.938,1.938,0,0,1,1.938,1.939V151.7A1.938,1.938,0,0,1,237.242,153.638Zm-132.408-3.876H235.3V131.81H104.834Z" transform="translate(-100.958 -91.368)"/>
      <path id="Trazado_7800" data-name="Trazado 7800" class="cls-3" d="M181.652,125.5a1.937,1.937,0,0,1-1.938-1.938V97.708a12.648,12.648,0,1,1,21.593,8.945h0l-18.283,18.282A1.936,1.936,0,0,1,181.652,125.5Zm10.711-36.566a8.781,8.781,0,0,0-8.773,8.77v21.179l14.976-14.974a8.773,8.773,0,0,0-6.2-14.975Z" transform="translate(-112.541 -85.063)"/>
      <path id="Trazado_7801" data-name="Trazado 7801" class="cls-3" d="M207.511,128.116H181.652a1.938,1.938,0,0,1-1.37-3.308l18.283-18.282a12.648,12.648,0,1,1,8.946,21.591Zm-21.18-3.877h21.18a8.772,8.772,0,1,0-6.2-14.974Z" transform="translate(-112.541 -87.674)"/>
      <path id="Trazado_7802" data-name="Trazado 7802" class="cls-3" d="M177.959,125.5a1.936,1.936,0,0,1-1.371-.568L158.3,106.654l0,0A12.648,12.648,0,1,1,179.9,97.708v25.858a1.937,1.937,0,0,1-1.937,1.938Zm-16.914-21.591,14.976,14.974V97.708a8.772,8.772,0,1,0-14.976,6.205Z" transform="translate(-108.847 -85.063)"/>
      <path id="Trazado_7803" data-name="Trazado 7803" class="cls-3" d="M175.346,128.116H149.491a12.649,12.649,0,1,1,8.942-21.591l18.283,18.282a1.938,1.938,0,0,1-1.371,3.308Zm-25.856-21.421a8.772,8.772,0,1,0,0,17.545h21.176l-14.975-14.974A8.716,8.716,0,0,0,149.489,106.695Z" transform="translate(-106.235 -87.674)"/>
      <path id="Trazado_7804" data-name="Trazado 7804" class="cls-3" d="M181.652,215.308a1.938,1.938,0,0,1-1.938-1.938v-83.5a1.938,1.938,0,1,1,3.876,0v83.5A1.938,1.938,0,0,1,181.652,215.308Z" transform="translate(-112.541 -91.368)"/>
    </g>
    <path id="Trazado_7805" data-name="Trazado 7805" class="cls-1" d="M174.169,261.4H137.222a1.841,1.841,0,0,1,0-3.682h36.947a1.841,1.841,0,1,1,0,3.682Z" transform="translate(-18.324 -36.878)"/>
    <path id="Trazado_7806" data-name="Trazado 7806" class="cls-3" d="M250.419,285.354a1.9,1.9,0,0,1-1.9-1.9,13.18,13.18,0,0,0-13.165-13.165,1.9,1.9,0,0,1,0-3.8A13.179,13.179,0,0,0,248.52,253.33a1.9,1.9,0,1,1,3.8,0,13.178,13.178,0,0,0,13.162,13.162,1.9,1.9,0,1,1,0,3.8,13.179,13.179,0,0,0-13.162,13.165A1.9,1.9,0,0,1,250.419,285.354Zm-7.27-16.963a17.078,17.078,0,0,1,7.27,7.27,17.074,17.074,0,0,1,7.268-7.27,17.067,17.067,0,0,1-7.268-7.267A17.071,17.071,0,0,1,243.15,268.391Z" transform="translate(-32.748 -35.953)"/>
    <g id="Grupo_8086" data-name="Grupo 8086" transform="translate(322.197 247.218)">
      <path id="Trazado_7807" data-name="Trazado 7807" class="cls-1" d="M520.41,292.379H507.352a1.867,1.867,0,1,1,0-3.735H520.41a1.867,1.867,0,1,1,0,3.735Z" transform="translate(-394.953 -288.644)"/>
      <path id="Trazado_7808" data-name="Trazado 7808" class="cls-1" d="M463.912,292.379h-86.15a1.867,1.867,0,1,1,0-3.735h86.15a1.867,1.867,0,1,1,0,3.735Z" transform="translate(-375.894 -288.644)"/>
    </g>
    <path id="Trazado_7809" data-name="Trazado 7809" class="cls-3" d="M425.7,261.237H337.382a1.868,1.868,0,0,1,0-3.736H425.7a1.868,1.868,0,0,1,0,3.736Z" transform="translate(-47.758 -36.845)"/>
    <path id="Trazado_7810" data-name="Trazado 7810" class="cls-4" d="M70.453,131.893a1.868,1.868,0,0,1-1.32-3.188l9.885-9.885-9.885-9.885a1.867,1.867,0,0,1,0-2.641l9.885-9.885-9.885-9.885a1.867,1.867,0,0,1,0-2.641L80.338,72.677a1.867,1.867,0,0,1,2.641,2.641L73.094,85.2l9.885,9.885a1.867,1.867,0,0,1,0,2.641l-9.885,9.885,9.885,9.885a1.867,1.867,0,0,1,0,2.641L71.773,131.345A1.86,1.86,0,0,1,70.453,131.893Z" transform="translate(-8.5 -9.582)"/>
    <g id="Grupo_8088" data-name="Grupo 8088" transform="translate(422.431 29.603)">
      <g id="Grupo_8087" data-name="Grupo 8087">
        <path id="Trazado_7811" data-name="Trazado 7811" class="cls-3" d="M511.348,33.5a17.937,17.937,0,1,1-17.936,17.938A17.939,17.939,0,0,1,511.348,33.5Z" transform="translate(-493.412 -33.504)"/>
      </g>
      <path id="Trazado_7812" data-name="Trazado 7812" class="cls-5" d="M514.155,61.829h0a1.66,1.66,0,0,1-1.66-1.661v-14.3a1.661,1.661,0,0,1,1.661-1.661h0a1.66,1.66,0,0,1,1.66,1.661v14.3A1.66,1.66,0,0,1,514.155,61.829Z" transform="translate(-496.219 -35.078)"/>
      <path id="Trazado_7813" data-name="Trazado 7813" class="cls-5" d="M520.075,55.909H505.77a1.66,1.66,0,0,1,0-3.32h14.305a1.66,1.66,0,0,1,0,3.32Z" transform="translate(-494.985 -36.311)"/>
    </g>
    <g id="Grupo_8089" data-name="Grupo 8089" transform="translate(10.788 127.221)">
      <path id="Trazado_7814" data-name="Trazado 7814" class="cls-1" d="M10.788,184.934l27.321,27.32L71.2,179.164h0V151.842l-27.32,0h0Zm41.493-14.171a6.18,6.18,0,1,1,8.74,0A6.183,6.183,0,0,1,52.281,170.762Z" transform="translate(-10.788 -148.527)"/>
      <path id="Trazado_7815" data-name="Trazado 7815" class="cls-2" d="M67.239,167.019a1.89,1.89,0,0,0,.238-.016c13.248-1.892,21.51-6.13,31.575-16.195a1.671,1.671,0,0,0-2.363-2.363C87.086,158.049,79.6,161.9,67,163.693a1.671,1.671,0,0,0,.235,3.326Z" transform="translate(-18.845 -147.955)"/>
    </g>
    <path id="Trazado_7816" data-name="Trazado 7816" class="cls-2" d="M141.448,291.009a14.454,14.454,0,0,1-10.292-4.264,10.565,10.565,0,0,0-14.915,0,14.588,14.588,0,0,1-20.6,0,2.007,2.007,0,1,1,2.839-2.839,10.566,10.566,0,0,0,14.919,0,14.586,14.586,0,0,1,20.591,0,10.543,10.543,0,0,0,14.909,0,14.575,14.575,0,0,1,20.589,0,2.007,2.007,0,1,1-2.838,2.838,10.559,10.559,0,0,0-14.913,0A14.458,14.458,0,0,1,141.448,291.009Z" transform="translate(-12.394 -40.103)"/>
    <path id="Trazado_7817" data-name="Trazado 7817" class="cls-1" d="M404,36.158a13.316,13.316,0,0,1-9.484-3.93,2.624,2.624,0,0,1,3.713-3.708A8.1,8.1,0,0,0,404,30.912h0a8.1,8.1,0,0,0,5.765-2.391,13.441,13.441,0,0,1,18.973,0,2.624,2.624,0,1,1-3.709,3.711,8.186,8.186,0,0,0-11.554,0A13.3,13.3,0,0,1,404,36.158Z" transform="translate(-56.323 -2.592)"/>
    <g id="Grupo_8090" data-name="Grupo 8090" transform="translate(196.39 61.784)">
      <path id="Trazado_7818" data-name="Trazado 7818" class="cls-2" d="M302.3,125.576A29.9,29.9,0,0,1,272.433,95.71V89.474a2.386,2.386,0,0,1,4.772,0V95.71a25.093,25.093,0,1,0,50.186,0V89.474a2.386,2.386,0,0,1,4.772,0V95.71A29.9,29.9,0,0,1,302.3,125.576Z" transform="translate(-234.871 -73.567)"/>
      <path id="Trazado_7819" data-name="Trazado 7819" class="cls-2" d="M370.139,206.969H230.78a2.386,2.386,0,0,1-2.387-2.386V73.621a2.386,2.386,0,0,1,2.387-2.386H370.139a2.386,2.386,0,0,1,2.387,2.386V204.583A2.386,2.386,0,0,1,370.139,206.969ZM233.167,202.2H367.753V76.007H233.167Z" transform="translate(-228.394 -71.235)"/>
      <path id="Trazado_7820" data-name="Trazado 7820" class="cls-2" d="M378.967,206.969a2.386,2.386,0,0,1-2.386-2.386V73.621a2.386,2.386,0,0,1,4.772,0V204.583A2.386,2.386,0,0,1,378.967,206.969Z" transform="translate(-250.188 -71.235)"/>
    </g>
  </g>
</svg>
