<svg xmlns="http://www.w3.org/2000/svg" xmlns:xlink="http://www.w3.org/1999/xlink" width="566.929" height="263.369" viewBox="0 0 566.929 263.369">
  <defs>
    <clipPath id="clip-path">
      <rect id="Rectángulo_2357" data-name="Rectángulo 2357" width="566.929" height="263.369" transform="translate(0.48 10.048)" fill="none"/>
    </clipPath>
  </defs>
  <g id="img_autoevaluacion" transform="translate(-0.48 -10.048)">
    <g id="Grupo_8064" data-name="Grupo 8064">
      <g id="Grupo_8063" data-name="Grupo 8063" clip-path="url(#clip-path)">
        <path id="Trazado_7657" data-name="Trazado 7657" d="M373.574,30.234a8.9,8.9,0,1,1-8.9,8.9,8.913,8.913,0,0,1,8.9-8.9m0,20.681A11.778,11.778,0,1,0,361.8,39.137a11.793,11.793,0,0,0,11.778,11.778" fill="#ffc42c"/>
        <path id="Trazado_7658" data-name="Trazado 7658" d="M216.3,35.993a5.7,5.7,0,1,1-5.7,5.7,5.7,5.7,0,0,1,5.7-5.7m0,14.266a8.57,8.57,0,1,0-8.57-8.57,8.579,8.579,0,0,0,8.57,8.57" fill="#ffc42c"/>
        <path id="Trazado_7659" data-name="Trazado 7659" d="M387.921,260.83h-3.84v-3.839a1.437,1.437,0,1,0-2.874,0v3.839h-3.84a1.438,1.438,0,0,0,0,2.876h3.84v3.839a1.437,1.437,0,1,0,2.874,0v-3.839h3.84a1.438,1.438,0,0,0,0-2.876" fill="#d30014"/>
        <path id="Trazado_7660" data-name="Trazado 7660" d="M201.873,120.287h3.84v3.839a1.438,1.438,0,1,0,2.875,0v-3.839h3.839a1.438,1.438,0,1,0,0-2.876h-3.839v-3.839a1.438,1.438,0,1,0-2.875,0v3.839h-3.84a1.438,1.438,0,0,0,0,2.876" fill="#d30014"/>
        <path id="Trazado_7661" data-name="Trazado 7661" d="M186.214,68.7h3.84v3.84a1.438,1.438,0,0,0,2.875,0V68.7h3.839a1.438,1.438,0,0,0,0-2.876h-3.839V61.989a1.438,1.438,0,1,0-2.875,0v3.838h-3.84a1.438,1.438,0,0,0,0,2.876" fill="#d30014"/>
        <path id="Trazado_7662" data-name="Trazado 7662" d="M409.076,155.263a3.4,3.4,0,0,0-.221-.412,2.852,2.852,0,0,0-.3-.365,3.468,3.468,0,0,0-.364-.3,2.344,2.344,0,0,0-.412-.221,2.686,2.686,0,0,0-.451-.134,2.182,2.182,0,0,0-.938,0,2.369,2.369,0,0,0-.451.134,2.344,2.344,0,0,0-.412.221,2.62,2.62,0,0,0-.365.3,2.408,2.408,0,0,0,0,3.393,2.87,2.87,0,0,0,.365.3,2.556,2.556,0,0,0,.412.22,2.3,2.3,0,0,0,.451.134,2.316,2.316,0,0,0,.938,0,2.6,2.6,0,0,0,.451-.134,2.556,2.556,0,0,0,.412-.22,3.92,3.92,0,0,0,.364-.3,2.444,2.444,0,0,0,.7-1.7,2.675,2.675,0,0,0-.048-.47,2.456,2.456,0,0,0-.134-.45" fill="#d30014"/>
        <path id="Trazado_7663" data-name="Trazado 7663" d="M403.8,143.79a2.394,2.394,0,0,0,2.377,2.137,2.461,2.461,0,0,0,.258-.009,2.4,2.4,0,1,0-2.635-2.128" fill="#d30014"/>
        <path id="Trazado_7664" data-name="Trazado 7664" d="M381.176,83.688a2.393,2.393,0,1,0,3.354.412,2.4,2.4,0,0,0-3.354-.412" fill="#d30014"/>
        <path id="Trazado_7665" data-name="Trazado 7665" d="M387.828,97.24a2.4,2.4,0,0,0,2.04,1.141,2.333,2.333,0,0,0,1.257-.365,2.4,2.4,0,1,0-3.3-.776" fill="#d30014"/>
        <path id="Trazado_7666" data-name="Trazado 7666" d="M394.872,104.945a2.4,2.4,0,0,0,1.025,4.562,2.294,2.294,0,0,0,1.025-.23,2.4,2.4,0,0,0-2.05-4.332" fill="#d30014"/>
        <path id="Trazado_7667" data-name="Trazado 7667" d="M372.656,74.305a2.4,2.4,0,1,0,3.382.047,2.4,2.4,0,0,0-3.382-.047" fill="#d30014"/>
        <path id="Trazado_7668" data-name="Trazado 7668" d="M399.885,116.581a2.4,2.4,0,0,0,.785,4.668,2.482,2.482,0,0,0,.777-.135,2.4,2.4,0,0,0-1.562-4.533" fill="#d30014"/>
        <path id="Trazado_7669" data-name="Trazado 7669" d="M403.584,128.7a2.4,2.4,0,0,0,.517,4.745,2.563,2.563,0,0,0,.528-.058,2.4,2.4,0,0,0-1.045-4.687" fill="#d30014"/>
        <path id="Trazado_7670" data-name="Trazado 7670" d="M365.007,69.829a2.4,2.4,0,0,0,1.7-4.092,2.486,2.486,0,0,0-3.393,0,2.4,2.4,0,0,0,1.7,4.092" fill="#d30014"/>
        <path id="Trazado_7671" data-name="Trazado 7671" d="M267.871,267.283a2.092,2.092,0,0,0-.221-.412,1.842,1.842,0,0,0-.3-.364,2.137,2.137,0,0,0-.364-.3,2.551,2.551,0,0,0-.412-.219,2.321,2.321,0,0,0-.451-.144,2.446,2.446,0,0,0-2.166.661,2.289,2.289,0,0,0-.3.364,3,3,0,0,0-.221.412,2.451,2.451,0,0,0-.132.442,2.557,2.557,0,0,0-.048.469,2.414,2.414,0,0,0,.048.469,2.38,2.38,0,0,0,.132.451,2.941,2.941,0,0,0,.221.412,2.281,2.281,0,0,0,.3.363,2.4,2.4,0,0,0,1.7.7,1.924,1.924,0,0,0,.47-.048,2.514,2.514,0,0,0,.451-.134,2.563,2.563,0,0,0,.412-.221,2.137,2.137,0,0,0,.364-.3,1.835,1.835,0,0,0,.3-.363,2.064,2.064,0,0,0,.221-.412,2.538,2.538,0,0,0,.134-.451,1.873,1.873,0,0,0,.048-.469,1.957,1.957,0,0,0-.048-.469,2.629,2.629,0,0,0-.134-.442" fill="#d30014"/>
        <path id="Trazado_7672" data-name="Trazado 7672" d="M282.008,268.376a2.4,2.4,0,0,0-.412,4.773c.066,0,.143.009.211.009a2.4,2.4,0,0,0,.2-4.782" fill="#d30014"/>
        <path id="Trazado_7673" data-name="Trazado 7673" d="M298.023,268.635a2.392,2.392,0,0,0,.125,4.782h.134a2.394,2.394,0,1,0-.259-4.782" fill="#d30014"/>
        <path id="Trazado_7674" data-name="Trazado 7674" d="M344.008,256.022a2.394,2.394,0,1,0,3.231,1.006,2.388,2.388,0,0,0-3.231-1.006" fill="#d30014"/>
        <path id="Trazado_7675" data-name="Trazado 7675" d="M329.335,262.4a2.4,2.4,0,0,0,.8,4.657,2.247,2.247,0,0,0,.8-.134,2.4,2.4,0,1,0-1.591-4.523" fill="#d30014"/>
        <path id="Trazado_7676" data-name="Trazado 7676" d="M313.9,266.641a2.394,2.394,0,0,0,.46,4.744,2.585,2.585,0,0,0,.47-.048,2.394,2.394,0,0,0-.93-4.7" fill="#d30014"/>
        <path id="Trazado_7677" data-name="Trazado 7677" d="M361.241,248.632a2.564,2.564,0,0,0-.221-.421,3.279,3.279,0,0,0-.3-.364,4.54,4.54,0,0,0-.364-.3,3.258,3.258,0,0,0-.412-.22,2.633,2.633,0,0,0-.451-.134,2.549,2.549,0,0,0-.938,0,2.37,2.37,0,0,0-.451.134,3.26,3.26,0,0,0-.412.22,3.378,3.378,0,0,0-.365.3,3.272,3.272,0,0,0-.3.364,2.42,2.42,0,0,0-.221.421,2.306,2.306,0,0,0-.134.442,1.918,1.918,0,0,0-.048.469,1.874,1.874,0,0,0,.048.469,2.462,2.462,0,0,0,.134.451,2.344,2.344,0,0,0,.221.412,2.226,2.226,0,0,0,.3.365,2.409,2.409,0,0,0,1.7.7,1.918,1.918,0,0,0,.469-.048,2.726,2.726,0,0,0,.451-.134,2.412,2.412,0,0,0,.412-.221,2.563,2.563,0,0,0,.364-.3,2.23,2.23,0,0,0,.3-.365,2.448,2.448,0,0,0,.4-1.332,2.574,2.574,0,0,0-.048-.469,2.3,2.3,0,0,0-.134-.442" fill="#d30014"/>
        <path id="Trazado_7678" data-name="Trazado 7678" d="M219.6,65.219a2.367,2.367,0,0,0-.441-.134,2.435,2.435,0,0,0-2.166.651,2.408,2.408,0,0,0,0,3.393,2.447,2.447,0,0,0,1.7.7,2.675,2.675,0,0,0,.469-.048,2.367,2.367,0,0,0,.441-.134,2.786,2.786,0,0,0,.422-.221,3.764,3.764,0,0,0,.364-.3,2.408,2.408,0,0,0,0-3.393,3.6,3.6,0,0,0-.364-.3,3.324,3.324,0,0,0-.422-.221" fill="#d30014"/>
        <path id="Trazado_7679" data-name="Trazado 7679" d="M207.146,80.774a2.4,2.4,0,1,0-1.62-.633,2.4,2.4,0,0,0,1.62.633" fill="#d30014"/>
        <path id="Trazado_7680" data-name="Trazado 7680" d="M186.952,103.393a2.393,2.393,0,0,0,1.063,3.211,2.3,2.3,0,0,0,1.074.259,2.4,2.4,0,1,0-2.137-3.47" fill="#d30014"/>
        <path id="Trazado_7681" data-name="Trazado 7681" d="M195.252,89.438a2.394,2.394,0,1,0,3.335-.6,2.393,2.393,0,0,0-3.335.6" fill="#d30014"/>
        <path id="Trazado_7682" data-name="Trazado 7682" d="M179.658,165.978a2.4,2.4,0,1,0-2.4,2.6,1.6,1.6,0,0,0,.212-.009,2.387,2.387,0,0,0,2.184-2.587" fill="#d30014"/>
        <path id="Trazado_7683" data-name="Trazado 7683" d="M178.431,136.852a2.56,2.56,0,0,0,.451.047,2.42,2.42,0,1,0-.451-.047" fill="#d30014"/>
        <path id="Trazado_7684" data-name="Trazado 7684" d="M176.869,152.675h.115a2.335,2.335,0,1,0-.115,0" fill="#d30014"/>
        <path id="Trazado_7685" data-name="Trazado 7685" d="M182.169,121.392a2.395,2.395,0,1,0-1.5-3.038,2.4,2.4,0,0,0,1.5,3.038" fill="#d30014"/>
        <path id="Trazado_7686" data-name="Trazado 7686" d="M179.725,184.313a2.432,2.432,0,0,0,1.7-.7,2.408,2.408,0,0,0,.7-1.7,2.58,2.58,0,0,0-.038-.471,2.455,2.455,0,0,0-.144-.45,2.37,2.37,0,0,0-.221-.411,2.15,2.15,0,0,0-.3-.365,2.474,2.474,0,0,0-3.384,0,2.057,2.057,0,0,0-.3.365,2.371,2.371,0,0,0-.221.411,2.457,2.457,0,0,0-.144.45,2.6,2.6,0,0,0-.048.471,2.405,2.405,0,0,0,2.4,2.4" fill="#d30014"/>
        <path id="Trazado_7687" data-name="Trazado 7687" d="M168.469,204.638a5.7,5.7,0,1,1,5.7-5.7,5.7,5.7,0,0,1-5.7,5.7m0-14.266a8.57,8.57,0,1,0,8.57,8.57,8.58,8.58,0,0,0-8.57-8.57" fill="#161615"/>
        <path id="Trazado_7688" data-name="Trazado 7688" d="M305.08,156.24a7.4,7.4,0,0,1-3.4,4.338l-11.825,6.906V150.635l4.829-2.822c5.74-2.189,9.632.354,10.585,4.936a7.115,7.115,0,0,1-.186,3.491M290.277,174c2.4-.151,4.693.371,5.674,3.151l1.371,3.918a5.109,5.109,0,0,1,.287,1.524,5.176,5.176,0,0,1-3.454,5.059l-2.856,1c-.048.017-.1.026-.146.042a6.141,6.141,0,0,1-2.592.278,6.288,6.288,0,0,1-5.272-4.169l-.636-1.8a6.288,6.288,0,0,1,3.857-8.016l2.384-.838c.459-.066.923-.121,1.383-.15m5.895,22.628s1.368,3.911,1.371,3.918a5.3,5.3,0,0,1-3.166,6.582s-4.683,1.412-5.6,1.315c-.057,0-.116,0-.173-.013a6.258,6.258,0,0,1-5.1-4.14l-.626-1.808a6.282,6.282,0,0,1,3.846-8.016s3.2-1.11,3.365-1.152a5.192,5.192,0,0,1,6.086,3.314m-4.227,17.358a5.2,5.2,0,0,1,3.728,1.951,5.059,5.059,0,0,1,.831,1.5l.8,2.256a5.3,5.3,0,0,1-3.177,6.6,7.988,7.988,0,0,1-5.261.459,6.28,6.28,0,0,1-3.96-3.923l-.045-.118a6.3,6.3,0,0,1,3.877-8.022,7.772,7.772,0,0,1,3.208-.7m-4.967,21.653H220.219V135.77h66.759v5.6h0v30.406l-1.42.5a9.162,9.162,0,0,0-5.615,11.682l.633,1.8a9.175,9.175,0,0,0,5.99,5.714l-.8.281a9.157,9.157,0,0,0-5.608,11.676l.628,1.809a9.122,9.122,0,0,0,6.19,5.789v1.27a9.184,9.184,0,0,0-4.82,11.39l.044.114a9.1,9.1,0,0,0,4.776,5.28Zm0,8.795a1.341,1.341,0,0,1-1.34,1.339H221.559a1.341,1.341,0,0,1-1.34-1.34v-5.92h66.759ZM220.219,128.9a1.341,1.341,0,0,1,1.34-1.34h64.079a1.341,1.341,0,0,1,1.34,1.34v4H220.219Zm-2.875,68.478-.264.127c-1.052.446-1.371.1-1.5-.036a1.2,1.2,0,0,1-.249-1l2.01-16.037Zm90.636-45.637a10.34,10.34,0,0,0-7.026-7.3,10.04,10.04,0,0,0-7.691.87l-3.411,1.992V128.9a4.22,4.22,0,0,0-4.214-4.216H221.559a4.221,4.221,0,0,0-4.215,4.216v21.739c-.018-.017-.04-.032-.058-.048a9.139,9.139,0,0,0-15.081,4.437l-15.547,48.9c-.016.05-.024.1-.04.154a68.1,68.1,0,0,0-2.2,28.31l.044.2-9.458,11.143a1.437,1.437,0,1,0,2.192,1.86l8.4-9.9a40.48,40.48,0,0,0,2.27,4.135,1.438,1.438,0,1,0,2.438-1.524c-6.489-10.41-3.106-22.417-.881-33.592l15.536-48.868c.009-.031.018-.063.03-.114a6.355,6.355,0,0,1,7.186-4.617c4.257.761,5.372,5.036,4.9,8.724s-4.559,35.956-4.6,36.24a3.917,3.917,0,0,0,4.551,4.412c.06-.012.12-.022.183-.037.042-.009.083-.017.127-.028v44a4.22,4.22,0,0,0,4.215,4.215H257.91c-1.513,1.017-3.128,2.046-4.818,3.057-5.923,3.536-12.7,6.8-18.695,8.21-.613.144-1.217.268-1.816.373a19.9,19.9,0,0,1-4.619.33,1.437,1.437,0,0,0-.173,2.869c.351.021.709.032,1.076.032.185,0,.387-.023.577-.028l-6.228,7.348a1.437,1.437,0,1,0,2.193,1.859l8.21-9.686a58.176,58.176,0,0,0,15.78-5.743,84.487,84.487,0,0,0,7.259-4.324c1.246-.819,2.545-1.615,3.726-2.526.68-.525,1.6-1.771,2.537-1.771h22.719a4.219,4.219,0,0,0,4.214-4.215V229.884c.035,0,.07,0,.1.005a11.153,11.153,0,0,0,6.616-1.6,8.162,8.162,0,0,0,3.444-9.56l-.8-2.258a8.206,8.206,0,0,0-7.461-5.368c-.046,0-.093-.011-.155-.011.019-.005.038-.013.057-.017,1.247-.317,2.459-.816,3.671-1.242a7.979,7.979,0,0,0,3.761-2.744,8.1,8.1,0,0,0,.824-1.359,7.984,7.984,0,0,0,.343-6.142s-1.372-3.923-1.381-3.945a8.171,8.171,0,0,0-4.844-4.865c-.02-.007-.037-.017-.057-.024l1.134-.4a8.025,8.025,0,0,0,4.846-4.731c.012-.029.026-.056.036-.085.03-.077.049-.158.076-.237a7.992,7.992,0,0,0-.031-5.194s-1.559-4.412-1.669-4.646a8.221,8.221,0,0,0-8.454-4.567c-.018,0-.04,0-.06.007v-.089l13.105-7.66.139-.081a10.2,10.2,0,0,0,5.2-8.7,9.883,9.883,0,0,0-.32-2.637" fill="#161615"/>
        <path id="Trazado_7689" data-name="Trazado 7689" d="M250.849,243.568h6.731a1.438,1.438,0,0,0,0-2.876h-6.731a1.438,1.438,0,1,0,0,2.876" fill="#ffc42c"/>
      </g>
    </g>
    <rect id="Rectángulo_2358" data-name="Rectángulo 2358" width="31.294" height="71.14" transform="translate(255.651 18.558)" fill="#ffc42c"/>
    <rect id="Rectángulo_2359" data-name="Rectángulo 2359" width="31.294" height="71.14" transform="translate(299.391 18.558)" fill="#ffc42c"/>
    <path id="Trazado_7690" data-name="Trazado 7690" d="M286.945,89.7h-29.1V19.655h29.1Zm1.1-72.237H256.748a1.1,1.1,0,0,0-1.1,1.1V90.795a1.1,1.1,0,0,0,1.1,1.1h31.294a1.1,1.1,0,0,0,1.1-1.1V18.558a1.1,1.1,0,0,0-1.1-1.1" fill="#d30014"/>
    <path id="Trazado_7691" data-name="Trazado 7691" d="M262.016,38.295a1.113,1.113,0,0,0,1.574,0l10.44-10.439a1.113,1.113,0,0,0-1.575-1.574L262.016,36.721a1.112,1.112,0,0,0,0,1.574" fill="#d30014"/>
    <path id="Trazado_7692" data-name="Trazado 7692" d="M281.136,52.663v6.281a1.114,1.114,0,0,0,2.227,0V52.663a1.114,1.114,0,0,0-2.227,0" fill="#d30014"/>
    <path id="Trazado_7693" data-name="Trazado 7693" d="M261.39,76h21.242a1.113,1.113,0,1,0,0-2.227H261.39a1.113,1.113,0,0,0,0,2.227" fill="#d30014"/>
    <path id="Trazado_7694" data-name="Trazado 7694" d="M261.39,83.579h21.242a1.114,1.114,0,1,0,0-2.227H261.39a1.114,1.114,0,0,0,0,2.227" fill="#d30014"/>
    <path id="Trazado_7695" data-name="Trazado 7695" d="M329.588,89.7h-29.1V19.655h29.1Zm1.1-72.237H299.391a1.1,1.1,0,0,0-1.1,1.1V90.795a1.1,1.1,0,0,0,1.1,1.1h31.294a1.1,1.1,0,0,0,1.1-1.1V18.558a1.1,1.1,0,0,0-1.1-1.1" fill="#d30014"/>
    <path id="Trazado_7696" data-name="Trazado 7696" d="M304.659,38.295a1.113,1.113,0,0,0,1.574,0l10.44-10.439a1.113,1.113,0,0,0-1.574-1.574l-10.44,10.439a1.112,1.112,0,0,0,0,1.574" fill="#d30014"/>
    <path id="Trazado_7697" data-name="Trazado 7697" d="M323.779,52.663v6.281a1.114,1.114,0,0,0,2.227,0V52.663a1.114,1.114,0,0,0-2.227,0" fill="#d30014"/>
    <path id="Trazado_7698" data-name="Trazado 7698" d="M304.033,76h21.242a1.113,1.113,0,1,0,0-2.227H304.033a1.113,1.113,0,0,0,0,2.227" fill="#d30014"/>
    <path id="Trazado_7699" data-name="Trazado 7699" d="M304.033,83.579h21.242a1.114,1.114,0,1,0,0-2.227H304.033a1.114,1.114,0,0,0,0,2.227" fill="#d30014"/>
    <path id="Trazado_7700" data-name="Trazado 7700" d="M335.976,10.048H250.69a1.174,1.174,0,0,0-1.175,1.174v94.86a1.174,1.174,0,0,0,1.175,1.174h85.286a1.173,1.173,0,0,0,1.174-1.174V11.222A1.173,1.173,0,0,0,335.976,10.048ZM294.507,12.4h40.3V96.958h-40.3Zm-42.643,0h40.294V96.958H251.864Zm0,86.909h40.294v5.6H251.864Zm82.938,5.6h-40.3v-5.6h40.3Z" fill="#161615"/>
    <path id="Trazado_7701" data-name="Trazado 7701" d="M273,180.325a19.448,19.448,0,1,1-19.449-19.449A19.449,19.449,0,0,1,273,180.325" fill="#d30014"/>
    <path id="Trazado_7702" data-name="Trazado 7702" d="M250.7,188.011a1.018,1.018,0,0,0,1.441,0l13.931-13.931a1.019,1.019,0,1,0-1.441-1.441l-13.21,13.21-8.948-8.949a1.02,1.02,0,0,0-1.443,1.441Z" fill="#fff"/>
    <path id="Trazado_7703" data-name="Trazado 7703" d="M362.158,177.743V166.1a1.69,1.69,0,0,1-1.69,1.69h11.644a1.69,1.69,0,1,0,0-3.38H360.468a1.691,1.691,0,0,0-1.691,1.69v11.644a1.69,1.69,0,0,0,3.381,0" fill="#d30014"/>
    <path id="Trazado_7704" data-name="Trazado 7704" d="M424.32,167.789h11.644a1.69,1.69,0,0,1-1.69-1.69v11.644a1.69,1.69,0,0,0,3.38,0V166.1a1.69,1.69,0,0,0-1.69-1.69H424.32a1.69,1.69,0,1,0,0,3.38" fill="#d30014"/>
    <path id="Trazado_7705" data-name="Trazado 7705" d="M434.274,225.443v11.644a1.69,1.69,0,0,1,1.69-1.69H424.32a1.69,1.69,0,1,0,0,3.38h11.644a1.69,1.69,0,0,0,1.691-1.69V225.443a1.691,1.691,0,0,0-3.381,0" fill="#d30014"/>
    <path id="Trazado_7706" data-name="Trazado 7706" d="M372.112,235.4H360.468a1.691,1.691,0,0,1,1.69,1.69V225.443a1.69,1.69,0,1,0-3.38,0v11.644a1.69,1.69,0,0,0,1.69,1.691h11.644a1.69,1.69,0,0,0,0-3.381" fill="#d30014"/>
    <path id="Trazado_7707" data-name="Trazado 7707" d="M484.261,115.141h-41.4a1.583,1.583,0,0,0,0,3.167h41.4a1.583,1.583,0,0,0,0-3.167" fill="#ffc42c"/>
    <path id="Trazado_7708" data-name="Trazado 7708" d="M484.261,124.158h-41.4a1.583,1.583,0,0,0,0,3.167h41.4a1.583,1.583,0,0,0,0-3.167" fill="#ffc42c"/>
    <path id="Trazado_7709" data-name="Trazado 7709" d="M473.473,133.177H442.857a1.583,1.583,0,1,0,0,3.167h30.616a1.583,1.583,0,1,0,0-3.167" fill="#ffc42c"/>
    <path id="Trazado_7710" data-name="Trazado 7710" d="M448.826,106.254a2.122,2.122,0,1,1-2.12-2.122,2.121,2.121,0,0,1,2.12,2.122" fill="#ffc42c"/>
    <path id="Trazado_7711" data-name="Trazado 7711" d="M459.957,106.252a2.123,2.123,0,1,1-2.122-2.119,2.123,2.123,0,0,1,2.122,2.119" fill="#ffc42c"/>
    <path id="Trazado_7712" data-name="Trazado 7712" d="M471.087,106.252a2.122,2.122,0,1,1-2.12-2.122,2.122,2.122,0,0,1,2.12,2.122" fill="#ffc42c"/>
    <path id="Trazado_7713" data-name="Trazado 7713" d="M87.756,158.52a19.485,19.485,0,1,1,19.486-19.484A19.483,19.483,0,0,1,87.756,158.52m28.285-19.484c0-.764-.038-1.516-.1-2.265L123.1,134.8l-.694-3.929-7.389.592a28.185,28.185,0,0,0-1.549-4.256l6.04-4.3-1.995-3.455-6.744,3.086a28.746,28.746,0,0,0-2.909-3.469l4.208-6.107-3.054-2.565-5.284,5.206a28.208,28.208,0,0,0-3.919-2.271l1.865-7.17L97.924,104.8l-3.179,6.689a28.524,28.524,0,0,0-4.464-.778l-.7-7.383H85.593l-.7,7.383a28.4,28.4,0,0,0-4.462.779l-3.18-6.69L73.5,106.165l1.864,7.17a28.426,28.426,0,0,0-3.919,2.271l-5.283-5.2-3.055,2.563,4.211,6.107a28.382,28.382,0,0,0-2.909,3.469l-6.747-3.086-1.994,3.456,6.04,4.3a28.4,28.4,0,0,0-1.549,4.256l-7.389-.592-.693,3.929,7.153,1.971c-.06.749-.1,1.5-.1,2.265s.037,1.514.1,2.263l-7.153,1.973.693,3.927,7.389-.592a28.186,28.186,0,0,0,1.549,4.256l-6.04,4.3,1.994,3.455,6.745-3.086A28.834,28.834,0,0,0,67.317,159L63.108,165.1l3.055,2.565,5.283-5.205a28.217,28.217,0,0,0,3.919,2.27L73.5,171.9l3.748,1.365,3.179-6.69a28.552,28.552,0,0,0,4.463.778l.7,7.383h3.988l.7-7.383a28.557,28.557,0,0,0,4.465-.778l3.178,6.69,3.749-1.364-1.865-7.172a28.263,28.263,0,0,0,3.92-2.269l5.283,5.2,3.054-2.564L107.857,159a28.823,28.823,0,0,0,2.909-3.469l6.744,3.086,1.995-3.456-6.04-4.295a28.362,28.362,0,0,0,1.55-4.258l7.388.592.694-3.927-7.154-1.973c.06-.748.1-1.5.1-2.263" fill="#d30014"/>
    <path id="Trazado_7714" data-name="Trazado 7714" d="M144.394,160.417a5.925,5.925,0,1,1,5.924-5.925,5.925,5.925,0,0,1-5.924,5.925m15.681-5.925c0-.42-.021-.836-.054-1.247l3.943-1.087-.383-2.165-4.072.326a15.532,15.532,0,0,0-.854-2.345l3.329-2.37-1.1-1.9-3.718,1.7a15.594,15.594,0,0,0-1.6-1.912l2.32-3.366-1.683-1.413-2.912,2.869a15.682,15.682,0,0,0-2.16-1.251l1.029-3.952-2.068-.752-1.752,3.687a15.557,15.557,0,0,0-2.46-.429l-.385-4.068h-2.2l-.387,4.068a15.439,15.439,0,0,0-2.458.43l-1.754-3.688-2.065.752,1.028,3.952a15.693,15.693,0,0,0-2.161,1.251l-2.91-2.868-1.684,1.412,2.32,3.366a15.594,15.594,0,0,0-1.6,1.912l-3.718-1.7-1.1,1.9,3.327,2.368a15.526,15.526,0,0,0-.853,2.345l-4.073-.326-.381,2.165,3.942,1.087c-.033.411-.053.827-.053,1.247s.02.835.053,1.247l-3.942,1.088.381,2.164,4.073-.327a15.59,15.59,0,0,0,.853,2.347l-3.327,2.368,1.1,1.9,3.717-1.7a15.691,15.691,0,0,0,1.6,1.912l-2.32,3.365,1.684,1.413,2.91-2.867a15.492,15.492,0,0,0,2.161,1.251l-1.028,3.951,2.065.753,1.752-3.687a15.615,15.615,0,0,0,2.46.429l.387,4.069h2.2l.385-4.069a15.588,15.588,0,0,0,2.461-.429l1.751,3.687,2.068-.752-1.029-3.952a15.574,15.574,0,0,0,2.16-1.25l2.912,2.868,1.683-1.414-2.319-3.366a15.591,15.591,0,0,0,1.6-1.911l3.718,1.7,1.1-1.9-3.329-2.368a15.555,15.555,0,0,0,.854-2.347l4.072.327.383-2.164-3.943-1.088c.033-.412.054-.827.054-1.247" fill="#ffc42c"/>
    <g id="Grupo_8065" data-name="Grupo 8065">
      <path id="Trazado_7715" data-name="Trazado 7715" d="M108.06,138.922a20.323,20.323,0,1,0-21.236,20.256v3.781h-2.6a.933.933,0,0,0-.932.932l0,20.054c0,1.532,1.92,2.686,4.464,2.687a5.525,5.525,0,0,0,3.828-1.251,2.009,2.009,0,0,0,.638-1.437V163.89a.93.93,0,0,0-.932-.932h-2.6v-3.782A20.314,20.314,0,0,0,108.06,138.922Zm-20.3,45.845c-1.67,0-2.545-.627-2.6-.828V164.823h5.2v19.117C90.3,184.14,89.426,184.767,87.757,184.767ZM69.318,138.922A18.439,18.439,0,1,1,87.756,157.36h0a18.437,18.437,0,0,1-18.435-18.438Z" fill="#161615"/>
      <path id="Trazado_7716" data-name="Trazado 7716" d="M87.756,152.831a13.891,13.891,0,0,0,12.817-8.495.932.932,0,1,0-1.716-.726,12.03,12.03,0,0,1-11.1,7.357.932.932,0,1,0,0,1.864Z" fill="#161615"/>
      <path id="Trazado_7717" data-name="Trazado 7717" d="M99.776,138.113a.932.932,0,1,0,1.86-.123,13.9,13.9,0,0,0-2.17-6.583.933.933,0,0,0-1.569,1.009A12.011,12.011,0,0,1,99.776,138.113Z" fill="#161615"/>
    </g>
    <path id="Trazado_7718" data-name="Trazado 7718" d="M84.225,182.281h7.066a.932.932,0,1,0,0-1.864H84.225a.932.932,0,1,0,0,1.864" fill="#0f1112"/>
    <path id="Trazado_7719" data-name="Trazado 7719" d="M123.669,230.531H111.82a1.694,1.694,0,1,0,0,3.389h11.849a1.694,1.694,0,1,0,0-3.389" fill="#ffc42c"/>
    <path id="Trazado_7720" data-name="Trazado 7720" d="M89.7,230.531H26.8a1.694,1.694,0,1,0,0,3.389H89.7a1.694,1.694,0,1,0,0-3.389" fill="#ffc42c"/>
    <path id="Trazado_7721" data-name="Trazado 7721" d="M36.186,213.586H2.175a1.695,1.695,0,1,0,0,3.389H36.186a1.695,1.695,0,1,0,0-3.389" fill="#d30014"/>
    <path id="Trazado_7722" data-name="Trazado 7722" d="M444.22,69.648h11.849a1.695,1.695,0,1,0,0-3.389H444.22a1.695,1.695,0,1,0,0,3.389" fill="#ffc42c"/>
    <path id="Trazado_7723" data-name="Trazado 7723" d="M478.189,69.648h62.9a1.695,1.695,0,1,0,0-3.389h-62.9a1.695,1.695,0,1,0,0,3.389" fill="#ffc42c"/>
    <path id="Trazado_7724" data-name="Trazado 7724" d="M531.7,86.593h34.012a1.695,1.695,0,1,0,0-3.389H531.7a1.695,1.695,0,1,0,0,3.389" fill="#d30014"/>
    <path id="Trazado_7725" data-name="Trazado 7725" d="M400.664,179.4a23.654,23.654,0,1,1-23.653,23.655A23.656,23.656,0,0,1,400.664,179.4" fill="#ffc42c"/>
    <path id="Trazado_7726" data-name="Trazado 7726" d="M402.853,212.49V193.627a2.189,2.189,0,1,0-4.378,0l0,18.863a2.189,2.189,0,0,0,4.379,0" fill="#fff"/>
    <path id="Trazado_7727" data-name="Trazado 7727" d="M391.232,205.247H410.1a2.189,2.189,0,1,0,0-4.378H391.232a2.189,2.189,0,0,0,0,4.378" fill="#fff"/>
    <rect id="Rectángulo_2360" data-name="Rectángulo 2360" width="566.929" height="263.369" transform="translate(0.48 10.048)" fill="none"/>
  </g>
</svg>
