<svg xmlns="http://www.w3.org/2000/svg" width="141.16" height="55.847" viewBox="0 0 141.16 55.847">
  <defs>
    <style>
      .cls-1, .cls-2 {
        fill: #888;
      }

      .cls-2 {
        fill-rule: evenodd;
      }
    </style>
  </defs>
  <g id="logo_rica_footer" transform="translate(-60.277 -146.667)">
    <rect id="Rectángulo_2221" data-name="Rectángulo 2221" class="cls-1" width="2.342" height="17.704" transform="translate(137.276 159.723)"/>
    <path id="Trazado_1555" data-name="Trazado 1555" class="cls-1" d="M4906.357,803.951h7.083s-1.714-5.931-4.135-8.888c0-.059-3.1,3.792-5.854,15.231h-2.477a48.74,48.74,0,0,1,7.095-17.65h2.617s5.921,8.349,7.029,17.577h-2.479s-.9-3.788-1.107-4.193h-8.4a2.37,2.37,0,0,1,.629-2.076" transform="translate(-4742.758 -632.906)"/>
    <path id="Trazado_1556" data-name="Trazado 1556" class="cls-1" d="M4164.156,793.212v-1.876s-10.5-2.419-11.44,8.149c0,0-.536,10.644,11.44,9.151a15.766,15.766,0,0,0,0-1.88s-8.885,1.953-8.739-7.347c0,.076.06-7.745,8.739-6.131" transform="translate(-4009.635 -631.392)"/>
    <g id="Grupo_7970" data-name="Grupo 7970" transform="translate(60.277 190.345)">
      <path id="Trazado_1557" data-name="Trazado 1557" class="cls-1" d="M201.181,2305.985H60.533a.256.256,0,1,1,0-.512H201.181a.256.256,0,1,1,0,.512Z" transform="translate(-60.277 -2305.473)"/>
    </g>
    <path id="Trazado_1558" data-name="Trazado 1558" class="cls-1" d="M1784.889,575.3c24.007,1.592,32.93,7.675,32.93,7.675,8.415,5.031,2.379,9.453,2.379,9.453,3.439-6.776-12.972-9.745-12.972-9.745l-2.213-3.676a1.139,1.139,0,0,0-.938-.612h-2.74a1.263,1.263,0,0,0-.89.539l-1.519,2.4c-1.785-.328-7.437-.743-7.437-.743s.018-1.493,0-1.493c0-.525-.594-.568-.594-.568-5.743-.936-8.592,1.723-8.592,1.723-.681-.084-5.015-.015-5.015-.015v-.823a1.019,1.019,0,0,0-1.071-1.078h-2.451a1.052,1.052,0,0,0-1.082,1.071v1.2c-.126.025-3.506.4-3.506.4-2.226-2.47-6.176-2.67-6.176-2.67h-7.958a1.092,1.092,0,0,0-1.051,1.074v4.707c-5.674,1.96-7.315,3.985-7.315,3.985-4.646,5.311,7.315,8.79,7.315,8.79a1.216,1.216,0,0,0,1.24.921h1.862c9.238,2.459,25.8,3.129,26.112,3.129a77.2,77.2,0,0,1-10.089.536c-25.762.5-42.838-5.617-42.838-13.009s19.3-13.4,43.1-13.4c2.4,0,7.049.135,7.049.135h-.022c.035.015,4.484.091,4.484.091" transform="translate(-1636.214 -419.739)"/>
    <path id="Trazado_1559" data-name="Trazado 1559" class="cls-2" d="M730.385,157.134c-21.174-12.888-61.489-10.244-61.489-10.244-38.689.983-47.275,11.508-47.268,11.486-11.524,11.992,8.617,20.3,8.617,20.3,19.677,7.912,56.317,5.847,56.317,5.847-1.306,0-2.778-.157-4.047-.179-25.179-.638-44.331-5.745-45-15.42,0-4.881,3.8-7.7,10.772-10.634,8.965-3.475,22.967-5.049,38.128-5.049,26.988,0,48.481,6.331,48.768,15.49a11.531,11.531,0,0,1-.5,2.582c7.652-7.653-4.306-14.178-4.306-14.178" transform="translate(-546.506 0)"/>
    <path id="Trazado_1560" data-name="Trazado 1560" class="cls-1" d="M2949.988,791.951v17.7h2.344V793.74h5.776s4.267.827,4.267,4.477c0,0-.131,4.477-4.329,4.477-.071.065-3.375.273-4.89-.754v1.723a23.272,23.272,0,0,0,11.775,5.993v-2s-5.022-1.377-6.885-3.1c.062.062,7.435-.692,6.954-6.408,0,.066.686-5.377-7.025-6.2Z" transform="translate(-2831.245 -632.228)"/>
    <g id="Grupo_7971" data-name="Grupo 7971" transform="translate(93.46 193.735)">
      <path id="Trazado_1561" data-name="Trazado 1561" class="cls-1" d="M1704.761,2506.543c-.015.135-.033.27-.04.419h-.164a6.067,6.067,0,0,1-1.971-.284,3.486,3.486,0,0,1-1.415-.8,2.848,2.848,0,0,1-.618-.882,3.037,3.037,0,0,1-.217-1.173,2.711,2.711,0,0,1,.217-1.089,3.27,3.27,0,0,1,.578-.86,3.7,3.7,0,0,1,1.4-.827,5.378,5.378,0,0,1,1.885-.317h.207a2.52,2.52,0,0,0,.022.273c.007.113.018.244.035.379h-.153a5.762,5.762,0,0,0-1.186.124,3.851,3.851,0,0,0-1.053.382,2.452,2.452,0,0,0-.88.838,2.109,2.109,0,0,0-.311,1.1,2.391,2.391,0,0,0,.279,1.122,2.363,2.363,0,0,0,.885.831,3.765,3.765,0,0,0,1.093.415,5.767,5.767,0,0,0,1.208.124h.21A1.487,1.487,0,0,0,1704.761,2506.543Z" transform="translate(-1700.337 -2500.164)"/>
      <path id="Trazado_1562" data-name="Trazado 1562" class="cls-1" d="M1959.2,2574.557a2.254,2.254,0,0,1-.547.823,2.167,2.167,0,0,1-2.989,0,2.111,2.111,0,0,1-.539-.823,2.67,2.67,0,0,1-.188-1.024,2.4,2.4,0,0,1,.672-1.752,1.92,1.92,0,0,1,.7-.5,2.263,2.263,0,0,1,.849-.167,2.042,2.042,0,0,1,1.543.63,2.516,2.516,0,0,1,.683,1.8A3.013,3.013,0,0,1,1959.2,2574.557Zm-.685-1.814a1.761,1.761,0,0,0-.43-.685,1.226,1.226,0,0,0-.415-.266,1.351,1.351,0,0,0-.516-.095,1.224,1.224,0,0,0-.976.419,1.665,1.665,0,0,0-.375.623,2.345,2.345,0,0,0-.133.794,2.5,2.5,0,0,0,.135.852,1.563,1.563,0,0,0,.459.67,1.213,1.213,0,0,0,.889.328,1.291,1.291,0,0,0,.969-.386,1.835,1.835,0,0,0,.394-.645,2.218,2.218,0,0,0,.138-.787A2.556,2.556,0,0,0,1958.51,2572.743Z" transform="translate(-1949.782 -2569.133)"/>
      <path id="Trazado_1563" data-name="Trazado 1563" class="cls-1" d="M2238.777,2572.91c-.337.135-.735.3-1.185.514v.142c0,.073,0,.171-.006.317v1.337c0,.211,0,.437.006.688s.011.448.018.576v.244h-.721v-.16c0-.084,0-.2.006-.346s.007-.332.007-.576v-1.4c0-.2,0-.426-.007-.678v-.754c0-.229-.006-.466-.006-.685h.7v.685l.011.011c.178-.088.346-.189.521-.27a4.151,4.151,0,0,1,.5-.241c.156-.065.3-.12.439-.174a2.884,2.884,0,0,1,.353-.117l.135.641A7.69,7.69,0,0,0,2238.777,2572.91Z" transform="translate(-2226.033 -2570.017)"/>
      <path id="Trazado_1564" data-name="Trazado 1564" class="cls-1" d="M2417.587,2578.3a2.453,2.453,0,0,1-.844.783,3.883,3.883,0,0,1-1.029.35,6.639,6.639,0,0,1-1.049.091l.022,2.094h-.729c0-.029.011-.456.011-1.26,0-.4.009-.783.009-1.18v-1.191c0-.386-.007-.852-.009-1.37s-.011-1.093-.011-1.712c.111,0,.2,0,.3,0h.219a8.2,8.2,0,0,1,1.479.1,2.982,2.982,0,0,1,.964.357,1.911,1.911,0,0,1,.721.714,2.035,2.035,0,0,1,.257,1.031A2.185,2.185,0,0,1,2417.587,2578.3Zm-.63-1.953a1.544,1.544,0,0,0-.55-.532,3.078,3.078,0,0,0-1.519-.327h-.21v.186c0,.08,0,.2-.013.357v2.925a4.83,4.83,0,0,0,.862-.073,2.529,2.529,0,0,0,.7-.219,1.626,1.626,0,0,0,.692-.6,1.644,1.644,0,0,0,.25-.929A1.464,1.464,0,0,0,2416.957,2576.343Z" transform="translate(-2399.52 -2572.835)"/>
      <path id="Trazado_1565" data-name="Trazado 1565" class="cls-1" d="M2653.113,2574.557a2.342,2.342,0,0,1-.541.823,1.959,1.959,0,0,1-.66.43,2.168,2.168,0,0,1-2.332-.43,2.308,2.308,0,0,1-.544-.823,2.748,2.748,0,0,1-.191-1.024,2.421,2.421,0,0,1,.679-1.752,1.991,1.991,0,0,1,.7-.5,2.3,2.3,0,0,1,.865-.167,2.019,2.019,0,0,1,1.526.63,2.481,2.481,0,0,1,.7,1.8A2.738,2.738,0,0,1,2653.113,2574.557Zm-.676-1.814a1.716,1.716,0,0,0-.434-.685,1.162,1.162,0,0,0-.417-.266,1.35,1.35,0,0,0-.508-.095,1.433,1.433,0,0,0-.543.1,1.653,1.653,0,0,0-.814.943,2.25,2.25,0,0,0-.133.794,2.291,2.291,0,0,0,.14.852,1.548,1.548,0,0,0,.452.67,1.224,1.224,0,0,0,.894.328,1.3,1.3,0,0,0,.965-.386,1.8,1.8,0,0,0,.4-.645,2.177,2.177,0,0,0,.135-.787A2.5,2.5,0,0,0,2652.437,2572.743Z" transform="translate(-2629.655 -2569.133)"/>
      <path id="Trazado_1566" data-name="Trazado 1566" class="cls-1" d="M2933.146,2572.91c-.354.135-.752.3-1.193.514v.142c0,.073,0,.171-.011.317v1.337c0,.211.007.437.011.688s.007.448.007.576.013.211.013.244h-.729v-.16c0-.084,0-.2.009-.346s.011-.332.011-.576v-1.4c0-.2,0-.426-.011-.678v-.754c0-.229-.007-.466-.009-.685h.708v.685l.007.011c.169-.088.343-.189.514-.27.179-.1.35-.171.5-.241s.3-.12.446-.174a2.1,2.1,0,0,1,.355-.117l.142.641A6.662,6.662,0,0,0,2933.146,2572.91Z" transform="translate(-2906.339 -2570.017)"/>
      <path id="Trazado_1567" data-name="Trazado 1567" class="cls-1" d="M3089.256,2577.82v1.581c-.033,0-.175.011-.421.029s-.586.029-.974.029a4.119,4.119,0,0,1-.758-.065,2.832,2.832,0,0,1-.652-.2,1.671,1.671,0,0,1-.594-.448,1.134,1.134,0,0,1-.222-.7,1.12,1.12,0,0,1,.266-.743,2.016,2.016,0,0,1,.745-.525,5.6,5.6,0,0,1,.789-.215c.319-.054.7-.113,1.133-.157a1,1,0,0,0-.625-.921,2.729,2.729,0,0,0-1.014-.157c-.142,0-.255.011-.355.015s-.22.015-.385.025l.062-.608c.053,0,.144-.014.284-.018.124,0,.312,0,.552,0a4.019,4.019,0,0,1,.954.106,1.584,1.584,0,0,1,.7.372,1.3,1.3,0,0,1,.217.244,1.758,1.758,0,0,1,.175.328,2,2,0,0,1,.1.433,4.323,4.323,0,0,1,.027.579Zm-.688-.867c-.135.011-.374.036-.707.087a6.107,6.107,0,0,0-.842.186,1.392,1.392,0,0,0-.455.3.638.638,0,0,0-.2.481.688.688,0,0,0,.171.488,1.03,1.03,0,0,0,.474.295,2.3,2.3,0,0,0,.481.106,3.7,3.7,0,0,0,.577.033h.217c.091,0,.173,0,.284-.008v-1.963Z" transform="translate(-3057.607 -2572.673)"/>
      <path id="Trazado_1568" data-name="Trazado 1568" class="cls-1" d="M3325.743,2581.154h-.251a5.739,5.739,0,0,1-1.091-.11,3.8,3.8,0,0,1-.907-.324,2.363,2.363,0,0,1-.864-.8,1.961,1.961,0,0,1-.32-1.1,1.918,1.918,0,0,1,.288-1,2.457,2.457,0,0,1,.741-.751,3.172,3.172,0,0,1,.98-.407,5.369,5.369,0,0,1,1.173-.135h.193l.035.608h-.138a6.425,6.425,0,0,0-.865.062,3.182,3.182,0,0,0-.692.208,1.565,1.565,0,0,0-.71.576,1.392,1.392,0,0,0-.268.838,1.627,1.627,0,0,0,.238.889,1.643,1.643,0,0,0,.66.55,2.945,2.945,0,0,0,.725.233,5.315,5.315,0,0,0,.849.058h.288Z" transform="translate(-3289.493 -2574.426)"/>
      <path id="Trazado_1569" data-name="Trazado 1569" class="cls-1" d="M3554.394,2496.1v-.776h.807v.776Zm.043,5.482v-.244c0-.16,0-.371.015-.648s.007-.532.007-.758v-.6c0-.313-.007-.655-.007-1.027s0-.812-.015-1.319h.73c-.011.43-.022.849-.031,1.22v1.993c0,.284,0,.521.009.729s0,.36.011.477,0,.182,0,.182Z" transform="translate(-3516.882 -2494.871)"/>
      <path id="Trazado_1570" data-name="Trazado 1570" class="cls-1" d="M3660.122,2478.42a2.341,2.341,0,0,1-.545.823,2.182,2.182,0,0,1-1.5.6,2.094,2.094,0,0,1-1.5-.6,2.332,2.332,0,0,1-.539-.823,2.744,2.744,0,0,1-.189-1.024,2.454,2.454,0,0,1,.672-1.752,2.067,2.067,0,0,1,.7-.5,2.265,2.265,0,0,1,.861-.167,2.034,2.034,0,0,1,1.53.63,2.5,2.5,0,0,1,.687,1.8A2.844,2.844,0,0,1,3660.122,2478.42Zm-.683-1.814a1.692,1.692,0,0,0-.424-.685,1.236,1.236,0,0,0-.421-.266,1.332,1.332,0,0,0-.508-.095,1.526,1.526,0,0,0-.547.1,1.561,1.561,0,0,0-.438.321,1.614,1.614,0,0,0-.37.623,2.22,2.22,0,0,0-.138.794,2.338,2.338,0,0,0,.142.852,1.488,1.488,0,0,0,.452.67,1.207,1.207,0,0,0,.894.328,1.262,1.262,0,0,0,.96-.386,1.639,1.639,0,0,0,.4-.645,2.174,2.174,0,0,0,.138-.786A2.5,2.5,0,0,0,3659.439,2476.606Zm-1.8-2.029-.272-.444,1.949-1.137.315.51Z" transform="translate(-3616.288 -2472.996)"/>
      <path id="Trazado_1571" data-name="Trazado 1571" class="cls-1" d="M3941.309,2576.2v-.834c.009-.24.009-.43.009-.579v-1.4a2.623,2.623,0,0,0-.009-.284,1.117,1.117,0,0,0-.2-.747.777.777,0,0,0-.632-.226,1.765,1.765,0,0,0-.688.168,5.769,5.769,0,0,0-.834.419v2.7c.015.255.015.444.019.572v.215h-.72c0-.011,0-.208.011-.554s0-.874,0-1.566v-1.1c0-.437,0-.889-.015-1.377h.716l-.015.528.015.011a5.459,5.459,0,0,1,1.064-.5,2.064,2.064,0,0,1,.7-.153,1.233,1.233,0,0,1,.936.364,1.357,1.357,0,0,1,.35,1.006c0,.386,0,.714-.007.995s-.008.491-.008.67v.47c0,.168,0,.346.008.561s.025.379.025.47v.182Z" transform="translate(-3892.973 -2569.493)"/>
      <path id="Trazado_1572" data-name="Trazado 1572" class="cls-1" d="M4451.3,2509.093c-.036-.043-.115-.116-.219-.251s-.282-.313-.489-.54-.465-.528-.78-.881c-.3-.353-.665-.769-1.1-1.26l.005-.036a1.688,1.688,0,0,0,.206-.076c.082-.036.167-.073.246-.116a2.357,2.357,0,0,0,.264-.164,2.142,2.142,0,0,0,.227-.175,1.138,1.138,0,0,0,.295-.364,1.306,1.306,0,0,0,.127-.623.925.925,0,0,0-.191-.6,1.138,1.138,0,0,0-.5-.379,2.09,2.09,0,0,0-.562-.109c-.194-.019-.373-.029-.537-.029a1.523,1.523,0,0,0-.249.011h-.125c-.011.58-.011,1.079-.011,1.512s-.007.754-.007.936v.74c0,.273.007.59.007.955s.011.659.011.878v.466h-.747v-1.056c.015-.514.015-1.177.015-1.956v-1.7c-.008-.375-.015-.831-.015-1.377h.129c.08,0,.189,0,.332,0,.127,0,.262-.007.39-.007h.362a7.628,7.628,0,0,1,.763.036,3.414,3.414,0,0,1,.729.2,1.67,1.67,0,0,1,.716.565,1.5,1.5,0,0,1,.262.874,1.478,1.478,0,0,1-.4,1.078,3.228,3.228,0,0,1-.379.368,1.892,1.892,0,0,1-.366.259v.025c.219.251.434.5.661.75.206.24.45.492.7.758.488.517.759.787.8.823Z" transform="translate(-4391.591 -2502.277)"/>
      <path id="Trazado_1573" data-name="Trazado 1573" class="cls-1" d="M4739.558,2509.511c0-.182,0-.506.013-.969s0-1.136,0-2.015v-.594c0-.226,0-.484,0-.761v-.86c0-.288-.013-.594-.013-.9h.732v.714c0,.251-.011.517-.011.816v1.4c0,.922,0,1.636.011,2.142v1.027Z" transform="translate(-4678.067 -2502.802)"/>
      <path id="Trazado_1574" data-name="Trazado 1574" class="cls-1" d="M4865.148,2506.543c-.006.135-.025.27-.037.419h-.153a6.082,6.082,0,0,1-1.981-.284,3.527,3.527,0,0,1-1.412-.8,2.672,2.672,0,0,1-.613-.882,2.959,2.959,0,0,1-.226-1.173,2.643,2.643,0,0,1,.226-1.089,2.909,2.909,0,0,1,.575-.86,3.7,3.7,0,0,1,1.4-.827,5.431,5.431,0,0,1,1.9-.317h.2c0,.066.007.146.015.273s.023.244.037.379h-.148a5.834,5.834,0,0,0-1.193.124,3.71,3.71,0,0,0-1.04.382,2.441,2.441,0,0,0-.887.838,2.087,2.087,0,0,0-.31,1.1,2.364,2.364,0,0,0,.279,1.122,2.288,2.288,0,0,0,.875.831,3.971,3.971,0,0,0,1.093.415,5.918,5.918,0,0,0,1.218.124h.208A2.051,2.051,0,0,1,4865.148,2506.543Z" transform="translate(-4796.783 -2500.164)"/>
      <path id="Trazado_1575" data-name="Trazado 1575" class="cls-1" d="M5103.639,2506.106c-.006-.011-.029-.07-.081-.186s-.127-.27-.206-.481c-.184-.419-.41-.951-.7-1.614h-2.721c-.314.707-.558,1.264-.734,1.639-.178.394-.277.6-.293.641l-.6-.332a5.879,5.879,0,0,0,.306-.623c.164-.339.392-.816.674-1.443s.576-1.257.867-1.894.6-1.312.913-1.993h.586c.3.681.6,1.352.892,2,.3.663.594,1.307.887,1.948s.527,1.118.674,1.443.233.51.246.536Zm-1.767-4.022c-.177-.4-.363-.82-.574-1.264h-.013c-.085.164-.166.353-.262.554s-.191.437-.3.678-.2.462-.295.663-.171.371-.245.532h2.21C5102.232,2502.864,5102.061,2502.489,5101.872,2502.084Z" transform="translate(-5029.556 -2499.279)"/>
    </g>
  </g>
</svg>
