<svg xmlns="http://www.w3.org/2000/svg" width="280.954" height="50" viewBox="0 0 280.954 50">
  <defs>
    <style>
      .cls-1 {
        fill: #d1d3d4;
      }

      .cls-2 {
        fill: #333d47;
      }

      .cls-3 {
        fill: #f40000;
      }
    </style>
  </defs>
  <g id="logo_cliente_consentido_header" transform="translate(-278 -88)">
    <g id="Grupo_8195" data-name="Grupo 8195" transform="translate(0 0.503)">
      <g id="Grupo_7964" data-name="Grupo 7964" transform="translate(404 88.497)">
        <g id="Grupo_7961" data-name="Grupo 7961">
          <path id="Trazado_1526" data-name="Trazado 1526" class="cls-1" d="M157.074,115.5l-.619,2.307a7.7,7.7,0,0,0-2.978-.679,3.468,3.468,0,0,0-2.734,1.228,4.142,4.142,0,0,0-1.01,2.82q0,2.195,2.49,2.194a10.288,10.288,0,0,0,3.038-.5l-.661,2.464a10.931,10.931,0,0,1-3.387.618,4.838,4.838,0,0,1-3.427-1.176,4.254,4.254,0,0,1-1.267-3.281,6.892,6.892,0,0,1,1.8-4.789,6.311,6.311,0,0,1,4.937-2.16A8.048,8.048,0,0,1,157.074,115.5Z" transform="translate(-146.52 -112.483)"/>
          <path id="Trazado_1527" data-name="Trazado 1527" class="cls-1" d="M160.222,112.871l-3.57,13.286h-3.082l3.57-13.286Z" transform="translate(-144.88 -112.871)"/>
          <path id="Trazado_1528" data-name="Trazado 1528" class="cls-1" d="M162.905,114.679l-2.96,11.058h-3.083l2.961-11.058Z" transform="translate(-144.114 -112.45)"/>
          <path id="Trazado_1529" data-name="Trazado 1529" class="cls-1" d="M171.744,117.655a3.4,3.4,0,0,1-.64,2,4.25,4.25,0,0,1-1.78,1.424,13.749,13.749,0,0,1-5.32.765q0,1.681,2.3,1.681a11.9,11.9,0,0,0,3.726-.627l-.653,2.447a12.029,12.029,0,0,1-3.692.6,5.378,5.378,0,0,1-3.387-.958,3.735,3.735,0,0,1-1.358-3.143,7.27,7.27,0,0,1,1.96-5.093,6.661,6.661,0,0,1,5.085-2.211,4.29,4.29,0,0,1,2.552.748A2.739,2.739,0,0,1,171.744,117.655Zm-2.76.217q0-.967-1.183-.966a3.3,3.3,0,0,0-2.168.853,4.411,4.411,0,0,0-1.324,1.872c.308.03.54.043.7.043Q168.984,119.674,168.984,117.872Z" transform="translate(-143.166 -112.483)"/>
          <path id="Trazado_1530" data-name="Trazado 1530" class="cls-1" d="M180.116,118.159a5.257,5.257,0,0,1-.2,1.384l-1.671,6.226h-3.083l1.654-6.138a4.268,4.268,0,0,0,.184-1.123,1.212,1.212,0,0,0-1.358-1.384,1.769,1.769,0,0,0-1.48.714,7.356,7.356,0,0,0-.9,2.211l-1.549,5.721h-3.083l1.654-6.138a8.516,8.516,0,0,1,1.838-3.743,5.126,5.126,0,0,1,3.805-1.35,4.5,4.5,0,0,1,3.013,1A3.275,3.275,0,0,1,180.116,118.159Z" transform="translate(-141.376 -112.483)"/>
          <path id="Trazado_1531" data-name="Trazado 1531" class="cls-1" d="M185.781,114.994l-.679,2.5h-2.925l-.531,2.029a11.977,11.977,0,0,0-.488,2.534,1.539,1.539,0,0,0,1.75,1.732,7.242,7.242,0,0,0,1.785-.27l-.662,2.429a9.076,9.076,0,0,1-2.158.279,3.812,3.812,0,0,1-2.813-1.049,3.7,3.7,0,0,1-1.054-2.748,11.647,11.647,0,0,1,.48-2.655l1.733-6.452H183.3l-.444,1.671Z" transform="translate(-139.196 -112.766)"/>
          <path id="Trazado_1532" data-name="Trazado 1532" class="cls-1" d="M194.753,117.655a3.4,3.4,0,0,1-.64,2,4.262,4.262,0,0,1-1.781,1.424,13.745,13.745,0,0,1-5.32.765q0,1.681,2.3,1.681a11.9,11.9,0,0,0,3.726-.627l-.653,2.447a12.023,12.023,0,0,1-3.692.6,5.374,5.374,0,0,1-3.386-.958,3.731,3.731,0,0,1-1.358-3.143,7.269,7.269,0,0,1,1.959-5.093,6.661,6.661,0,0,1,5.085-2.211,4.29,4.29,0,0,1,2.552.748A2.74,2.74,0,0,1,194.753,117.655Zm-2.76.217q0-.967-1.185-.966a3.3,3.3,0,0,0-2.168.853,4.411,4.411,0,0,0-1.324,1.872c.308.03.54.043.7.043Q191.992,119.674,191.993,117.872Z" transform="translate(-137.814 -112.483)"/>
        </g>
        <g id="Grupo_7963" data-name="Grupo 7963" transform="translate(57.94 0.014)">
          <g id="Grupo_7962" data-name="Grupo 7962">
            <path id="Trazado_1533" data-name="Trazado 1533" class="cls-2" d="M204.078,115.507l-.618,2.307a7.7,7.7,0,0,0-2.978-.679,3.467,3.467,0,0,0-2.734,1.228,4.142,4.142,0,0,0-1.009,2.82q0,2.195,2.49,2.194a10.289,10.289,0,0,0,3.038-.5l-.662,2.464a10.918,10.918,0,0,1-3.386.618,4.843,4.843,0,0,1-3.427-1.175,4.259,4.259,0,0,1-1.267-3.282,6.9,6.9,0,0,1,1.8-4.789,6.315,6.315,0,0,1,4.938-2.16A8.04,8.04,0,0,1,204.078,115.507Z" transform="translate(-193.526 -112.494)"/>
            <path id="Trazado_1534" data-name="Trazado 1534" class="cls-2" d="M213.007,118.772a7.324,7.324,0,0,1-1.785,4.78,6.332,6.332,0,0,1-5.067,2.4,4.818,4.818,0,0,1-3.331-1.114,3.952,3.952,0,0,1-1.249-3.109,7.285,7.285,0,0,1,1.8-4.78,6.272,6.272,0,0,1,5.041-2.4,4.818,4.818,0,0,1,3.317,1.088A3.994,3.994,0,0,1,213.007,118.772Zm-3.212.217a1.971,1.971,0,0,0-.444-1.35,1.627,1.627,0,0,0-1.289-.5,2.819,2.819,0,0,0-2.4,1.479,5.212,5.212,0,0,0-.871,2.909,1.972,1.972,0,0,0,.444,1.345,1.608,1.608,0,0,0,1.281.509,2.829,2.829,0,0,0,2.412-1.48A5.243,5.243,0,0,0,209.8,118.989Z" transform="translate(-191.653 -112.494)"/>
            <path id="Trazado_1535" data-name="Trazado 1535" class="cls-2" d="M221.69,118.17a5.263,5.263,0,0,1-.2,1.384l-1.671,6.226h-3.083l1.654-6.138a4.267,4.267,0,0,0,.184-1.123,1.212,1.212,0,0,0-1.358-1.384,1.77,1.77,0,0,0-1.48.714,7.356,7.356,0,0,0-.9,2.211l-1.549,5.721H210.2l1.655-6.138A8.5,8.5,0,0,1,213.7,115.9a5.126,5.126,0,0,1,3.805-1.35,4.5,4.5,0,0,1,3.013,1A3.276,3.276,0,0,1,221.69,118.17Z" transform="translate(-189.646 -112.494)"/>
            <path id="Trazado_1536" data-name="Trazado 1536" class="cls-2" d="M228.621,115.063l-.609,2.246a9.255,9.255,0,0,0-2.656-.392q-1.6,0-1.6.949,0,.531.949.992.373.183,1.228.627a3.088,3.088,0,0,1,.269,5.563,6.2,6.2,0,0,1-3.395.906,12.266,12.266,0,0,1-3.867-.618l.645-2.378a8.954,8.954,0,0,0,3.186.557q1.838,0,1.838-1.035,0-.566-1.245-1.159-.444-.2-1.376-.679a2.822,2.822,0,0,1-1.446-2.516,3.1,3.1,0,0,1,1.2-2.49,5.313,5.313,0,0,1,3.527-1.088A11.463,11.463,0,0,1,228.621,115.063Z" transform="translate(-187.615 -112.494)"/>
            <path id="Trazado_1537" data-name="Trazado 1537" class="cls-2" d="M237.441,117.666a3.4,3.4,0,0,1-.64,2,4.262,4.262,0,0,1-1.781,1.424,13.745,13.745,0,0,1-5.32.765q0,1.681,2.3,1.681a11.894,11.894,0,0,0,3.726-.627l-.653,2.447a12.023,12.023,0,0,1-3.692.6,5.374,5.374,0,0,1-3.386-.958,3.731,3.731,0,0,1-1.358-3.143,7.269,7.269,0,0,1,1.959-5.093,6.661,6.661,0,0,1,5.085-2.211,4.29,4.29,0,0,1,2.551.748A2.74,2.74,0,0,1,237.441,117.666Zm-2.76.217q0-.967-1.185-.966a3.305,3.305,0,0,0-2.168.853A4.411,4.411,0,0,0,230,119.642c.308.03.54.043.7.043Q234.68,119.685,234.681,117.883Z" transform="translate(-185.824 -112.494)"/>
            <path id="Trazado_1538" data-name="Trazado 1538" class="cls-2" d="M245.957,118.17a5.258,5.258,0,0,1-.2,1.384l-1.671,6.226H241l1.654-6.138a4.267,4.267,0,0,0,.184-1.123,1.212,1.212,0,0,0-1.358-1.384,1.768,1.768,0,0,0-1.48.714,7.355,7.355,0,0,0-.9,2.211l-1.549,5.721h-3.083l1.654-6.138a8.516,8.516,0,0,1,1.838-3.743,5.126,5.126,0,0,1,3.805-1.35,4.5,4.5,0,0,1,3.013,1A3.275,3.275,0,0,1,245.957,118.17Z" transform="translate(-184.001 -112.494)"/>
            <path id="Trazado_1539" data-name="Trazado 1539" class="cls-2" d="M251.767,115.005l-.679,2.5h-2.925l-.531,2.029a11.976,11.976,0,0,0-.488,2.534,1.539,1.539,0,0,0,1.75,1.732,7.242,7.242,0,0,0,1.785-.27l-.662,2.429a9.091,9.091,0,0,1-2.158.279,3.812,3.812,0,0,1-2.813-1.049,3.7,3.7,0,0,1-1.054-2.748,11.648,11.648,0,0,1,.479-2.655l1.732-6.452h3.083l-.444,1.671Z" transform="translate(-181.787 -112.777)"/>
            <path id="Trazado_1540" data-name="Trazado 1540" class="cls-2" d="M255.336,114.69l-2.96,11.058h-3.083l2.961-11.058Z" transform="translate(-180.553 -112.461)"/>
            <path id="Trazado_1541" data-name="Trazado 1541" class="cls-2" d="M266.584,112.882l-2.247,8.367q-1.376,5.094-6.364,5.093a4.5,4.5,0,0,1-3.257-1.157,4.151,4.151,0,0,1-1.2-3.135,7.438,7.438,0,0,1,1.768-4.833,5.656,5.656,0,0,1,4.51-2.28,4.171,4.171,0,0,1,2.873,1.088l.836-3.143Zm-4.99,6.565q0-1.925-1.715-1.924A2.746,2.746,0,0,0,257.528,119a5.014,5.014,0,0,0-.862,2.83q0,1.934,1.75,1.933a2.7,2.7,0,0,0,2.333-1.48A5.119,5.119,0,0,0,261.595,119.447Z" transform="translate(-179.572 -112.882)"/>
            <path id="Trazado_1542" data-name="Trazado 1542" class="cls-2" d="M274.389,118.772a7.33,7.33,0,0,1-1.785,4.78,6.334,6.334,0,0,1-5.067,2.4,4.814,4.814,0,0,1-3.331-1.114,3.949,3.949,0,0,1-1.25-3.109,7.284,7.284,0,0,1,1.8-4.78,6.274,6.274,0,0,1,5.041-2.4,4.823,4.823,0,0,1,3.318,1.088A4,4,0,0,1,274.389,118.772Zm-3.213.217a1.971,1.971,0,0,0-.444-1.35,1.625,1.625,0,0,0-1.288-.5,2.823,2.823,0,0,0-2.4,1.479,5.211,5.211,0,0,0-.87,2.909,1.973,1.973,0,0,0,.444,1.345,1.6,1.6,0,0,0,1.279.509,2.827,2.827,0,0,0,2.412-1.48A5.233,5.233,0,0,0,271.175,118.989Z" transform="translate(-177.375 -112.494)"/>
          </g>
        </g>
      </g>
      <g id="Grupo_7967" data-name="Grupo 7967" transform="translate(439 108.542)">
        <path id="Trazado_1543" data-name="Trazado 1543" class="cls-3" d="M211.758,156.62a11.343,11.343,0,0,0-6.9-2.031,4.217,4.217,0,0,0-3.363,1.837c-1.049-1.842-3.119-2.973-6.32-2.95-5.168.057-10.3,2.454-14.361,2.449-3.9,0-6.737-2.471-6.638-6.85.171-7.674,6.622-14.584,11.44-17.693,2.77-1.786,5.087-2.315,6.6-2.144a2.229,2.229,0,0,1,1.6,3.3c-1.236,2.777-2.939,2.542-2.874,1.217a2.2,2.2,0,0,1,1.034-1.7,2.079,2.079,0,0,1,1-.248c.243-.207.431-1.726-1.552-1.226s-4.372,2.457-6.65,4.982-5.827,7.313-6.705,12.336c-.41,2.333-.141,6.58,5.342,6.538,4.649-.037,11.519-3.112,17.824-3.049a11.956,11.956,0,0,1,6.233,1.723A17.255,17.255,0,0,1,211.758,156.62Z" transform="translate(-174.177 -129.208)"/>
        <path id="Trazado_1544" data-name="Trazado 1544" class="cls-3" d="M207.947,145.258c-1.171.648-.749-.507-.43-1.024.407-.655,5.58-9.335,5.58-9.335l-2.739,0-.318.5a1.829,1.829,0,0,0-1.508-.807c-2.744.178-6.015,4.578-7.455,6.517s-4.538,5.643-6.167,4.98c-1.779-.722-.009-4.026,1.165-5.966,1.275-2.113,3.533-4.2,4.425-4.218,1.1-.02.666.981.666.981a1.657,1.657,0,0,0-1.418.65c-.42.531-.769,1.31-.371,1.733.647.684,1.489-.007,1.991-.781,1.572-2.412.426-3.686-.8-3.873-2.623-.4-5.041,2.988-6.879,4.245-1.273.874-1.8.8-1.8.8s2.213-4.362-.457-5.05c-2.639-.682-7.035,3.843-8.888,7.526-1.143,2.273-1.648,5.129.381,5.876s5.481-2.979,6.294-4.063,2.14-3.252,2.14-3.252.407-.078.673-.141.7-.185.7-.185-.5.9-.954,1.814c-.534,1.088-1.993,4.714.811,5.8,2.678,1.043,6.5-3.285,6.7-3.369,0,0-1.14,2.952.624,3.408,1.935.5,4.058-1.993,4.058-1.993s-.447,1.875,1.061,2.051c2.7.317,7.484-6.63,7.484-6.63h-.954S209.117,144.61,207.947,145.258Zm-17.62-4.577a25.366,25.366,0,0,1-1.644,2.479c-.793,1.017-2.253,2.552-3.121,2.227-1.358-.507.094-3.465,1.075-4.91s1.123-1.631,1.15-1.67.054-.07.079-.026a2.994,2.994,0,0,0,1.007,1.124,5.9,5.9,0,0,0,1.41.651C190.331,140.574,190.364,140.6,190.327,140.682Zm1.14-2.257a11.788,11.788,0,0,1-.528,1.183.227.227,0,0,1-.264.108c-.211-.011-1.876-.394-1.864-1.736.011-1.308,1.843-2.586,2.561-2.039C192.042,136.454,191.72,137.758,191.467,138.425Zm12.92,6a3.116,3.116,0,0,1-1.334,1.085.72.72,0,0,1-.521-.055c-.5-.3-.117-1.43.752-3.024a33.146,33.146,0,0,1,3.281-4.628c1.408-1.763,2.105-1.9,2.529-1.886a.451.451,0,0,1,.408.393s-3.061,5.35-4.169,6.877C204.972,143.689,204.661,144.112,204.387,144.429Z" transform="translate(-172.465 -127.966)"/>
        <path id="Trazado_1545" data-name="Trazado 1545" class="cls-3" d="M211.615,134.846l-2.6,0-1.471,2.4,2.6,0Z" transform="translate(-166.416 -127.898)"/>
        <g id="Grupo_7965" data-name="Grupo 7965" transform="translate(78.149 24.419)">
          <path id="Trazado_1546" data-name="Trazado 1546" class="cls-3" d="M240.427,149.51a1.624,1.624,0,0,0-1.182-.491,1.588,1.588,0,0,0-1.172.491,1.68,1.68,0,0,0-.01,2.37,1.658,1.658,0,0,0,2.364,0,1.627,1.627,0,0,0,.484-1.188A1.61,1.61,0,0,0,240.427,149.51Zm-.166,2.222a1.425,1.425,0,0,1-1.018.417,1.388,1.388,0,0,1-1.011-.418,1.441,1.441,0,0,1-.419-1.04,1.432,1.432,0,1,1,2.865,0A1.439,1.439,0,0,1,240.26,151.732Z" transform="translate(-237.578 -149.019)"/>
          <path id="Trazado_1547" data-name="Trazado 1547" class="cls-3" d="M239.779,151.346c0-.042,0-.086,0-.132v-.131a.559.559,0,0,0-.1-.29.413.413,0,0,0-.313-.173.757.757,0,0,0,.265-.1.389.389,0,0,0,.179-.36.449.449,0,0,0-.282-.463,1.339,1.339,0,0,0-.5-.067l-.634,0,0,1.843h.316l0-.728.26,0a.757.757,0,0,1,.354.06c.118.064.173.207.175.419l0,.147,0,.064c0,.011,0,.011.01.017v.021h.3l-.007-.026C239.785,151.433,239.785,151.4,239.779,151.346Zm-.477-.865a1.139,1.139,0,0,1-.3.037h-.293l0-.672h.28a.817.817,0,0,1,.388.071.288.288,0,0,1,.121.272A.309.309,0,0,1,239.3,150.48Z" transform="translate(-237.39 -148.878)"/>
        </g>
        <g id="Grupo_7966" data-name="Grupo 7966" transform="translate(52.238 0.09)">
          <path id="Trazado_1548" data-name="Trazado 1548" class="cls-3" d="M243.761,131.878A11.8,11.8,0,0,1,236.607,134c-.648.675-1.344,1.456-2.041,2.307,4.442.887,8.331-1.88,10.4-4.238a13.99,13.99,0,0,0,1.932-2.786A17.287,17.287,0,0,1,243.761,131.878Z" transform="translate(-212.367 -129.281)"/>
          <path id="Trazado_1549" data-name="Trazado 1549" class="cls-3" d="M245.834,142.751l-2.738,0-.445.693a1.934,1.934,0,0,0-1.5-1c-1.621.026-3.243,1.27-5.133,3.428-1.382,1.583-3.677,5.1-3.677,5.1s-1.76,2.724-2.649,2.508c-1.514-.364,1.279-6.007,1.279-6.007a32.067,32.067,0,0,0,3.365-2.515c1.2-1.012,2.575-2.4,3.841-3.693a43.527,43.527,0,0,0,3.8-4.51,9.966,9.966,0,0,1-1.012.1,44.48,44.48,0,0,1-3.441,3.992,47.835,47.835,0,0,1-4.044,3.794,13.654,13.654,0,0,1-1.643,1.175,60.327,60.327,0,0,1,5.1-8.293c3.184-4.354,7.64-8.4,7.288-6.475a8.689,8.689,0,0,1-.956,2.279,10.254,10.254,0,0,0,1.051-.279c.768-1.591,1.032-2.9.46-3.281-2.331-1.548-8.273,4.843-11.25,8.556a57.465,57.465,0,0,0-5.679,9.39,5.446,5.446,0,0,1-.979.293,1.116,1.116,0,0,1-.516.027.041.041,0,0,1-.03-.03s2.623-4.919-.055-5.576c-2.586-.632-7.067,4.175-8.667,7.524-1.1,2.3-1.715,5.186.158,5.878,2.029.748,5.48-2.978,6.292-4.06a33.223,33.223,0,0,0,1.827-2.886s.494-.023.764-.065c.52-.076.761-.139.761-.139s-.337.884-.7,2.005c-.677,2.089-1.292,5.082,1.145,5.224,1.553.092,3.831-2.727,3.831-2.727s-.616,2.507,1.4,2.735c1.488.164,3.656-2.146,3.656-2.146s-.475,1.993,1.034,2.171c1.293.152,3.122-1.371,4.627-3.045a32.306,32.306,0,0,0,2.905-3.83h-.955s-2.116,3.222-3.6,4.085c-1.218.708-.8-.429-.429-1.023C240.719,151.476,245.834,142.751,245.834,142.751ZM224.964,148.8a18.432,18.432,0,0,1-1.457,2.229c-.791,1.019-2.24,2.548-3.11,2.222-1.357-.505.142-3.485,1.12-4.93s1.091-1.541,1.118-1.579.055-.073.08-.027a4.184,4.184,0,0,0,.948,1.154,5.576,5.576,0,0,0,1.258.81C224.967,148.694,225,148.715,224.964,148.8Zm.614-1.071c-.086.144-.148.15-.325.1a2.258,2.258,0,0,1-1.6-2.033c.011-1.308,1.843-2.585,2.56-2.039.669.512.348,1.817.094,2.482A11.667,11.667,0,0,1,225.577,147.729Zm12.437,3.248c-.362.5-.664.949-.939,1.266-.583.679-.961.993-1.3,1.075a.75.75,0,0,1-.525-.055c-.5-.3-.145-1.49.722-3.085a22.861,22.861,0,0,1,3.22-4.6c1.512-1.684,2.089-1.764,2.515-1.744a.444.444,0,0,1,.4.392.837.837,0,0,1-.081.186C241.53,145.287,239.012,149.606,238.014,150.976Z" transform="translate(-216.557 -129.222)"/>
        </g>
        <path id="Trazado_1550" data-name="Trazado 1550" class="cls-3" d="M243.761,131.878A11.8,11.8,0,0,1,236.607,134c-.648.675-1.344,1.456-2.041,2.307,4.442.887,8.331-1.88,10.4-4.238a13.99,13.99,0,0,0,1.932-2.786A17.287,17.287,0,0,1,243.761,131.878Z" transform="translate(-160.129 -129.191)"/>
        <path id="Trazado_1551" data-name="Trazado 1551" class="cls-3" d="M232.135,129.367a9.719,9.719,0,0,0-4.328.719s-.738-1.013-3.014-.687-9.3,3.274-15.276,12.888c-5.407,8.695-2.868,13.682,1.011,13.629,4.2-.057,8.21-4.759,9.569-8.642s-.243-4.933-1.473-4.832a7.033,7.033,0,0,0-5.091,4.022,11.091,11.091,0,0,0-1.324,4.339,13.767,13.767,0,0,1,1.755-1.563,7.853,7.853,0,0,1,1.855-1.082,9.639,9.639,0,0,1,.688-2.015,3.99,3.99,0,0,1,2.172-2.28c1.9-.477.984,3.006-.413,5.278-.747,1.22-3.408,4.728-5.7,4.725s-2.724-2.224-2.241-4.3,1.152-4.711,4.5-9.5a30.274,30.274,0,0,1,9.049-8.813c2.147-1.223,3.022-.685,3.022-.685a18.74,18.74,0,0,0-4.306,3.739c-1.493,1.954-2.384,4.151-1.695,5.23.659,1.028,2.98,1.049,5.543-2.664,2.528-3.666,1.895-5.849,1.895-5.849a3.759,3.759,0,0,1,.508-.128,5.959,5.959,0,0,1,3.743.955c1.6.828,3.132,2.155,5.231,3.239.636-.7,1.34-1.437,2.081-2.161C237.067,131.543,234.917,129.561,232.135,129.367Zm-5.246,5a10.456,10.456,0,0,1-2.775,3.868c-1.314,1.186-2.036,1.146-2.347.9-.815-.625.28-2.979,2.18-5.082a10.8,10.8,0,0,1,3.52-2.746A5.318,5.318,0,0,1,226.889,134.369Z" transform="translate(-166.677 -129.179)"/>
      </g>
    </g>
    <g id="Grupo_7968" data-name="Grupo 7968" transform="translate(278 88)">
      <path id="Trazado_1552" data-name="Trazado 1552" class="cls-2" d="M128.9,122.648a40.513,40.513,0,0,1,11.6,1.708l2.662-9.792a50.187,50.187,0,0,0-14.641-2.239q-9.736,0-15.4,4.744c-3.5,2.885-4.912,6.517-5.247,10.855-.212,2.737,1.437,10.636,7.439,11.558.191.042.373.08.549.117a49.263,49.263,0,0,0,5.6.194,1.568,1.568,0,0,1,1.441-.639,22.011,22.011,0,0,1,2.96,1.017,1.1,1.1,0,0,0,.922-.359,1.4,1.4,0,0,1,1.482-.2c.615.2.8.961.9,1.4a33.718,33.718,0,0,1,0,8.922c-.1.436-.29,1.192-.9,1.4a1.407,1.407,0,0,1-1.482-.2,1.1,1.1,0,0,0-.922-.362,22.121,22.121,0,0,1-2.96,1.017,1.571,1.571,0,0,1-1.441-.64h-.376a57.224,57.224,0,0,0-6.125.2c-.2.021-.4.044-.59.07a40.593,40.593,0,0,0-8.757,2.2,12.1,12.1,0,0,0-5.438,4.259l-.483,1.219a61.358,61.358,0,0,0,18.068,2.96,27.151,27.151,0,0,0,14.831-3.948q7.074-4.518,7.073-12.222,0-7.364-8.251-12.033-3.727-1.936-5.362-2.733-4.147-2.012-4.145-4.327Q121.9,122.648,128.9,122.648Z" transform="translate(-30.439 -112.048)"/>
      <path id="Trazado_1553" data-name="Trazado 1553" class="cls-3" d="M61.952,128.725a15.152,15.152,0,0,1,11.94-5.352,26.913,26.913,0,0,1,4.589.41,36.156,36.156,0,0,1,7.936-9A34.88,34.88,0,0,0,72.942,112.1q-13.157,0-21.561,9.413a30.022,30.022,0,0,0-7.873,20.878,21.82,21.82,0,0,0,1.749,9.043,16.124,16.124,0,0,0,3.784,5.266,17.558,17.558,0,0,0,2.743,2.074,22.918,22.918,0,0,0,12.221,3.051,47.72,47.72,0,0,0,14.793-2.7l.325-.165c-.344-.39-.892-1-1.2-1.392a23.681,23.681,0,0,1-3.82-7.425,38.516,38.516,0,0,1-5.69.44q-10.877,0-10.877-9.565a19.448,19.448,0,0,1,1.316-7.253A17.38,17.38,0,0,1,61.952,128.725Z" transform="translate(-43.508 -112.1)"/>
      <path id="Trazado_1554" data-name="Trazado 1554" class="cls-1" d="M83.824,116.714A28.208,28.208,0,0,1,99.912,112.1a40.483,40.483,0,0,1,15.545,3.591,20.665,20.665,0,0,0-4.368,9.576,31.292,31.292,0,0,0-10.226-1.893,15.148,15.148,0,0,0-11.94,5.352,17.585,17.585,0,0,0-2.46,3.638,18.9,18.9,0,0,0-1.951,8.66q0,9.565,10.875,9.565a44.19,44.19,0,0,0,12.387-1.934,22.169,22.169,0,0,0-3.73,11.018q-2.846.854-5.494,1.369a39.752,39.752,0,0,1-7.573.784,22.74,22.74,0,0,1-12.48-3.212v-.028l-.058-.007a17.469,17.469,0,0,1-2.427-1.877,16.17,16.17,0,0,1-2.169-2.466,16.841,16.841,0,0,1-2.364-4.781,21.407,21.407,0,0,1-.846-4.154,27.633,27.633,0,0,1-.154-2.909,32.707,32.707,0,0,1,1.192-8.945,28.872,28.872,0,0,1,1.648-4.429,29.473,29.473,0,0,1,2.539-4.382,32.051,32.051,0,0,1,2.492-3.121,29.3,29.3,0,0,1,4.716-4.273Z" transform="translate(-37.234 -112.1)"/>
    </g>
  </g>
</svg>
